<?xml version="1.0" encoding="UTF-8"?>
<svg width="425px" height="425px" viewBox="0 0 425 425" version="1.1" xmlns="http://www.w3.org/2000/svg" xmlns:xlink="http://www.w3.org/1999/xlink">
    <!-- Generator: Sketch 42 (36781) - http://www.bohemiancoding.com/sketch -->
    <title>compass</title>
    <desc>Created with Sketch.</desc>
    <defs>
        <linearGradient x1="109.380394%" y1="15.1034387%" x2="-21.5399338%" y2="73.2502604%" id="linearGradient-1">
            <stop stop-color="#E4A8E2" offset="0%"></stop>
            <stop stop-color="#CC61C8" offset="13.5860127%"></stop>
            <stop stop-color="#D149CC" offset="36.4130883%"></stop>
            <stop stop-color="#D94ED4" offset="49.6341333%"></stop>
            <stop stop-color="#771C73" offset="100%"></stop>
        </linearGradient>
        <path d="M268.686794,137.937893 C249.16667,136.892493 240.305325,142.03544 235.638959,144.623272 C224.631138,150.727892 217.289133,161.862818 210.599452,174.403402 C201.418461,161.219214 195.917653,150.984492 183.766389,143.892236 C166.822958,134.002965 148.14073,138.572269 148.14073,138.572269 C134.655228,141.095871 114.707177,157.865271 111.666713,175.531778 C107.613621,194.257561 107.975107,208.13221 117.393379,223.508867 C120.969333,229.347116 130.446008,237.71225 139.141879,241.62432 C143.708239,243.678618 151.503837,249.483011 160.457549,254.590347 C169.411261,259.697683 200.906355,279.09361 210.599452,302.493196 C219.31377,267.422589 263.991982,261.008267 290.756605,235.157679 C318.063714,208.789304 315.798896,181.005808 301.667718,160.013698 C295.482195,149.220037 282.31235,138.572269 268.686794,137.937893 Z" id="path-2"></path>
        <filter x="-50%" y="-50%" width="200%" height="200%" filterUnits="objectBoundingBox" id="filter-3">
            <feMorphology radius="0.5" operator="dilate" in="SourceAlpha" result="shadowSpreadOuter1"></feMorphology>
            <feOffset dx="0" dy="1" in="shadowSpreadOuter1" result="shadowOffsetOuter1"></feOffset>
            <feGaussianBlur stdDeviation="2.5" in="shadowOffsetOuter1" result="shadowBlurOuter1"></feGaussianBlur>
            <feComposite in="shadowBlurOuter1" in2="SourceAlpha" operator="out" result="shadowBlurOuter1"></feComposite>
            <feColorMatrix values="0 0 0 0 0   0 0 0 0 0   0 0 0 0 0  0 0 0 0.792147871 0" type="matrix" in="shadowBlurOuter1"></feColorMatrix>
        </filter>
    </defs>
    <g id="Page-1" stroke="none" stroke-width="1" fill="none" fill-rule="evenodd">
        <g id="design-language" transform="translate(-1700.000000, -1507.000000)">
            <g id="compass" transform="translate(1704.000000, 1511.000000)">
                <path d="M106.054468,36.4679222 L127.663085,67.3141967" id="Line" stroke="#979797" stroke-width="3.4" stroke-linecap="square"></path>
                <path d="M41.4713707,104.095649 L73.0670042,124.604766" id="Line" stroke="#979797" stroke-width="3.4" stroke-linecap="square"></path>
                <path d="M16.8542351,200.926259 L62.9850191,200.926259" id="Line" stroke="#000000" stroke-width="10.4" stroke-linecap="square"></path>
                <path d="M314.02742,38.004916 L295.190683,70.6162701" id="Line" stroke="#979797" stroke-width="3.4" stroke-linecap="square"></path>
                <path d="M122.57616,346.940669 L99.9036972,377.014366" id="Line" stroke="#979797" stroke-width="3.4" stroke-linecap="square"></path>
                <path d="M64.8713991,279.312942 L32.2452139,298.141116" id="Line" stroke="#979797" stroke-width="3.4" stroke-linecap="square"></path>
                <path d="M376.021919,102.558656 L345.934545,125.220811" id="Line" stroke="#979797" stroke-width="3.4" stroke-linecap="square"></path>
                <path d="M401.277436,200.926259 L355.146651,200.926259" id="Line" stroke="#000000" stroke-width="10.4" stroke-linecap="square"></path>
                <path d="M299.976285,342.83004 L323.68497,372.094518" id="Line" stroke="#979797" stroke-width="3.4" stroke-linecap="square"></path>
                <path d="M387.786888,279.312942 L355.160702,298.141116" id="Line" stroke="#979797" stroke-width="3.4" stroke-linecap="square" transform="translate(371.473795, 288.727029) scale(-1, 1) translate(-371.473795, -288.727029) "></path>
                <ellipse id="Oval-6" stroke="#4A4A4A" stroke-width="7.4" cx="208.258593" cy="208.163923" rx="208.258593" ry="208.163923"></ellipse>
                <ellipse id="Oval-10" fill="#000000" cx="210.741568" cy="32.7217799" rx="26.1407776" ry="26.1288946"></ellipse>
                <ellipse id="Oval-10" fill="#000000" cx="210.741568" cy="383.792926" rx="26.1407776" ry="26.1288946"></ellipse>
                <path d="M223.471612,19.4342036 L217.826776,45.326087 L213.043876,45.326087 L209.038408,28.1549685 L205.083643,45.326087 L201.804906,45.326087 L207.010323,21.6143948 C205.410382,22.1777546 204.210444,23.050949 203.410473,24.2340044 C202.610502,25.4170599 202.210523,26.8536056 202.210523,28.5436848 C202.210523,29.2873196 202.292208,29.9661579 202.455583,30.58022 C202.618957,31.1942821 202.847114,31.6928479 203.140061,32.0759326 C201.664059,32.0759326 200.573974,31.7745396 199.869775,31.1717447 C199.165575,30.5689498 198.81348,29.6197029 198.81348,28.3239756 C198.81348,27.5014704 198.940234,26.7071451 199.193746,25.9409759 C199.447258,25.1748066 199.80217,24.453717 200.258491,23.7776854 C200.714812,23.1016537 201.26408,22.484784 201.90631,21.9270579 C202.54854,21.3693318 203.258363,20.8904832 204.035799,20.4904978 C204.813235,20.0905124 205.646995,19.7806692 206.537104,19.5609589 C207.427212,19.3412486 208.356742,19.2313951 209.32572,19.2313951 C209.866546,19.2313951 210.336944,19.268013 210.736929,19.3412497 C211.136915,19.4144865 211.579145,19.535607 212.063635,19.7046149 L216.238109,38.22779 L220.108371,19.4342036 L223.471612,19.4342036 Z" id="N" fill="#FFFFFF"></path>
                <path d="M220.214604,375.102342 C220.214604,375.586832 220.149819,376.029062 220.020246,376.429048 C219.890674,376.829033 219.713218,377.172677 219.487874,377.459991 C219.26253,377.747304 218.986488,377.969828 218.659739,378.127569 C218.332991,378.28531 217.978079,378.364179 217.594995,378.364179 C217.155574,378.364179 216.758412,378.271226 216.403495,378.085317 C216.048578,377.899408 215.741552,377.631816 215.482406,377.282533 C215.91056,376.967052 216.254204,376.547355 216.51335,376.023431 C216.772495,375.499506 216.902066,374.938972 216.902066,374.34181 C216.902066,373.598176 216.682359,373.009473 216.242938,372.575686 C215.803518,372.1419 215.200732,371.925009 214.434563,371.925009 C213.972608,371.925009 213.547277,372.012329 213.158559,372.18697 C212.769841,372.361612 212.437464,372.603853 212.161417,372.913701 C211.885371,373.223548 211.671298,373.592544 211.519191,374.020697 C211.367083,374.44885 211.291031,374.916432 211.291031,375.423456 C211.291031,376.189625 211.476937,376.910714 211.848754,377.586746 C212.220572,378.262778 212.688153,378.927532 213.251513,379.58103 C213.814873,380.234527 214.423292,380.896465 215.076789,381.566863 C215.730287,382.237261 216.338706,382.952717 216.902066,383.713252 C217.465426,384.473788 217.933007,385.296281 218.304825,386.180756 C218.676642,387.06523 218.862548,388.042645 218.862548,389.113028 C218.862548,390.251015 218.62594,391.301665 218.152718,392.26501 C217.679496,393.228355 217.023192,394.062115 216.183786,394.766315 C215.34438,395.470515 214.358515,396.022599 213.226162,396.422584 C212.093809,396.82257 210.86852,397.022559 209.550258,397.022559 C208.446073,397.022559 207.446125,396.878905 206.550383,396.591591 C205.654641,396.304278 204.888483,395.893031 204.251887,395.35784 C203.61529,394.822648 203.122358,394.183244 202.773075,393.439609 C202.423792,392.695975 202.249153,391.867848 202.249153,390.955206 C202.249153,390.189036 202.37309,389.47358 202.620968,388.808816 C202.868847,388.144051 203.206857,387.566616 203.635011,387.076493 C204.063164,386.58637 204.57018,386.200475 205.156074,385.918795 C205.741968,385.637115 206.367288,385.496277 207.032053,385.496277 C207.843291,385.496277 208.524946,385.699084 209.077038,386.104703 C209.629131,386.510322 209.972775,387.068039 210.107982,387.777873 C209.499553,387.777873 208.953102,387.862375 208.468613,388.031383 C207.984124,388.200391 207.572877,388.436999 207.234861,388.741213 C206.896846,389.045427 206.634887,389.414422 206.448978,389.848209 C206.26307,390.281996 206.170117,390.769295 206.170117,391.31012 C206.170117,392.324168 206.465876,393.126943 207.057404,393.718471 C207.648932,394.309999 208.446074,394.605758 209.448854,394.605758 C210.057282,394.605758 210.620634,394.495905 211.138925,394.276194 C211.657216,394.056484 212.102263,393.755091 212.474081,393.372007 C212.845898,392.988922 213.138841,392.532607 213.352917,392.003049 C213.566994,391.473491 213.674031,390.898873 213.674031,390.279177 C213.674031,389.648214 213.569811,389.042612 213.361368,388.462351 C213.152925,387.882091 212.874066,387.318739 212.524783,386.77228 C212.1755,386.225822 211.781154,385.687821 211.341733,385.158263 C210.902313,384.628705 210.451632,384.096338 209.989677,383.561146 C209.527722,383.025954 209.077041,382.487954 208.63762,381.947129 C208.198199,381.406303 207.803854,380.851402 207.454571,380.282409 C207.105288,379.713416 206.826429,379.124714 206.617986,378.516285 C206.409542,377.907857 206.305322,377.265636 206.305322,376.589604 C206.305322,375.676962 206.499679,374.834752 206.888397,374.062949 C207.277115,373.291146 207.817932,372.623575 208.510865,372.060215 C209.203797,371.496855 210.023473,371.054624 210.969918,370.733509 C211.916362,370.412394 212.947295,370.251839 214.062747,370.251839 C214.997924,370.251839 215.842951,370.367326 216.597853,370.598304 C217.352755,370.829281 217.997792,371.156025 218.532984,371.578545 C219.068176,372.001065 219.482239,372.510897 219.775186,373.108059 C220.068133,373.70522 220.214604,374.369975 220.214604,375.102342 Z" id="S" fill="#FFFFFF"></path>
                <polygon id="Rectangle-5" fill="#2F3DF0" transform="translate(209.905582, 217.082896) rotate(358.000000) translate(-209.905582, -217.082896) " points="89.0903177 278.190384 324.401269 144.555577 330.720847 153.391077 96.0003904 289.610216"></polygon>
                <path d="M338.597661,97.0481102 C340.854702,97.2154313 347.155921,148.910998 373.343742,167.35444 C371.096323,168.70775 360.002247,165.562497 356.149109,163.225802 C354.347822,162.133431 346.883932,158.727613 342.949813,156.17659 C339.015694,153.625566 334.115851,154.513927 330.388359,157.414492 C326.660867,160.315056 323.289319,162.233076 321.404803,163.099192 C313.120873,166.906456 306.704837,167.835042 303.501608,166.317569 C336.260328,140.607016 336.340621,96.880789 338.597661,97.0481102 Z" id="Triangle-3" fill="#2F3DF0" transform="translate(338.422675, 132.364208) rotate(411.000000) translate(-338.422675, -132.364208) "></path>
                <g id="Fill-1" transform="translate(210.568236, 220.005746) rotate(360.000000) translate(-210.568236, -220.005746) ">
                    <use fill="black" fill-opacity="1" filter="url(#filter-3)" xlink:href="#path-2"></use>
                    <use stroke="#855883" stroke-width="1" fill="url(#linearGradient-1)" fill-rule="evenodd" xlink:href="#path-2"></use>
                </g>
                <ellipse id="Oval" fill="#000000" transform="translate(184.934995, 201.937331) rotate(361.000000) translate(-184.934995, -201.937331) " cx="184.934995" cy="201.937331" rx="11.7888603" ry="10.628116"></ellipse>
                <ellipse id="Oval" fill="#000000" transform="translate(238.815354, 202.008382) rotate(361.000000) translate(-238.815354, -202.008382) " cx="238.815354" cy="202.008382" rx="11.7888603" ry="10.628116"></ellipse>
                <path d="M216.067318,245.787644 C223.566233,245.787644 230.284835,236.128326 229.645304,235.53987 C229.005773,234.951414 223.566233,236.946221 216.067318,236.946221 C208.568403,236.946221 202.489332,234.582436 202.489332,235.53987 C202.489332,236.497304 208.568403,245.787644 216.067318,245.787644 Z" id="Oval-2" fill="#000000" transform="translate(216.088440, 240.549612) rotate(361.000000) translate(-216.088440, -240.549612) "></path>
                <polygon id="Rectangle-5" fill="#2F3DF0" transform="translate(300.945486, 161.664664) rotate(-1.000000) translate(-300.945486, -161.664664) " points="278.132971 168.023706 318.724206 142.395198 323.758001 151.05951 281.231576 180.93413"></polygon>
            </g>
        </g>
    </g>
</svg>