<?xml version="1.0" encoding="UTF-8"?>
<svg width="35px" height="48px" viewBox="0 0 35 48" version="1.1" xmlns="http://www.w3.org/2000/svg" xmlns:xlink="http://www.w3.org/1999/xlink">
    <!-- Generator: Sketch 42 (36781) - http://www.bohemiancoding.com/sketch -->
    <title>Flash On</title>
    <desc>Created with Sketch.</desc>
    <defs></defs>
    <g id="Page-1" stroke="none" stroke-width="1" fill="none" fill-rule="evenodd">
        <g id="design-language" transform="translate(-4158.000000, -746.000000)" stroke="#FFFFFF" stroke-width="2">
            <path d="M4191.27898,770.387933 L4191.27898,770.383333 L4191.08563,770.0736 L4177.13144,747.4232 L4177.07401,747.328133 C4176.92851,747.131867 4176.66624,747 4176.36185,747 C4175.9043,747 4175.53482,747.299 4175.53482,747.667 L4175.53482,747.686933 L4175.55779,747.8142 L4177.90678,763.130667 C4177.91444,763.169 4177.92018,763.208867 4177.92401,763.250267 C4177.93167,763.314667 4177.93741,763.379067 4177.93741,763.446533 C4177.93741,764.550533 4176.82322,765.446 4175.4525,765.446 L4175.4525,765.456733 L4163.0241,765.456733 L4162.43064,765.456733 C4160.51239,765.577867 4159,766.868933 4159,768.446733 C4159,768.911333 4159.13209,769.352933 4159.36948,769.745467 L4173.41939,792.555333 L4173.50745,792.702533 C4173.51128,792.704067 4173.51128,792.704067 4173.51128,792.7056 C4173.6606,792.881933 4173.91522,792.998467 4174.19856,792.998467 C4174.6561,792.998467 4175.02941,792.701 4175.02941,792.331467 C4175.02941,792.317667 4175.02941,792.3008 4175.02558,792.287 L4175.01218,792.196533 C4175.01218,792.196533 4175.01218,792.196533 4175.01218,792.195 L4172.67085,776.9598 C4172.64405,776.855533 4172.62682,776.749733 4172.62299,776.639333 C4172.61916,776.608667 4172.61916,776.579533 4172.61916,776.548867 C4172.61916,775.444867 4173.73335,774.5494 4175.10407,774.5494 L4175.10407,774.538667 L4187.5497,774.538667 L4188.13934,774.538667 C4190.05759,774.419067 4191.56997,773.126467 4191.56997,771.5502 C4191.56997,771.137733 4191.46851,770.746733 4191.27898,770.387933 L4191.27898,770.387933 Z" id="Flash-On"></path>
        </g>
    </g>
</svg>