<?xml version="1.0" encoding="UTF-8"?>
<svg width="55px" height="47px" viewBox="0 0 55 47" version="1.1" xmlns="http://www.w3.org/2000/svg" xmlns:xlink="http://www.w3.org/1999/xlink">
    <!-- Generator: Sketch 42 (36781) - http://www.bohemiancoding.com/sketch -->
    <title>heart</title>
    <desc>Created with Sketch.</desc>
    <defs></defs>
    <g id="Page-1" stroke="none" stroke-width="1" fill="none" fill-rule="evenodd">
        <g id="design-language" transform="translate(-4299.000000, -1536.000000)">
            <g id="heart" transform="translate(4300.000000, 1537.000000)">
                <path d="M39.8265023,-2.59348099e-13 C32.4761115,-2.59348099e-13 29.1260836,6.81754668 26.4028708,10.283338 C23.6796579,6.81754668 20.2362932,-2.59423597e-13 12.8901675,-2.59348099e-13 C4.77341966,-2.58593111e-13 0.156959455,6.05524049 0.0183231639,13.8437496 C-0.00808374876,13.8913566 0.00181884347,13.9357899 0.00181884347,13.9833969 C-0.00808374876,14.3102984 0.0480309406,14.4753361 0.0579335328,14.684807 C0.436839998,25.0414581 10.1231936,29.3373186 18.4374965,34.6080348 C26.7517993,39.878751 25.4735456,45.4347959 26.4028708,44.5224866 C27.3321959,43.6101773 26.5368169,38.5656108 34.4831634,34.6080348 C42.4295099,30.6504588 52.3468216,24.7612534 52.7331225,14.716545 C52.746326,14.4943789 52.8057415,14.3198198 52.8057415,14.0913061 C52.7958389,13.9326161 52.8057415,13.8913566 52.8057415,13.8437496 C52.6406983,6.05524049 47.9433271,-2.59348099e-13 39.8265023,-2.59348099e-13 Z" id="Shape" stroke="#000000" stroke-width="1.9"></path>
                <ellipse id="Oval" fill="#000000" cx="19.8587406" cy="18.9768107" rx="2.85874062" ry="2.97681074"></ellipse>
                <ellipse id="Oval" fill="#000000" cx="33.8587406" cy="18.9768107" rx="2.85874062" ry="2.97681074"></ellipse>
                <path d="M27.2925948,30.9532942 C29.1110447,30.9532942 30.7402728,28.2302479 30.5851896,28.0643569 C30.4301065,27.8984659 29.1110447,28.4608197 27.2925948,28.4608197 C25.4741449,28.4608197 24,27.7944479 24,28.0643569 C24,28.3342659 25.4741449,30.9532942 27.2925948,30.9532942 Z" id="Oval-2" fill="#000000"></path>
            </g>
        </g>
    </g>
</svg>