<?xml version="1.0" encoding="UTF-8"?>
<svg width="40px" height="40px" viewBox="0 0 40 40" version="1.1" xmlns="http://www.w3.org/2000/svg" xmlns:xlink="http://www.w3.org/1999/xlink">
    <!-- Generator: Sketch 42 (36781) - http://www.bohemiancoding.com/sketch -->
    <title>live active</title>
    <desc>Created with Sketch.</desc>
    <defs></defs>
    <g id="Page-1" stroke="none" stroke-width="1" fill="none" fill-rule="evenodd">
        <g id="design-language" transform="translate(-5148.000000, -1679.000000)" fill-rule="nonzero">
            <g id="live-active" transform="translate(5148.000000, 1679.000000)">
                <path d="M20,0 C8.9535315,0.00105971494 0.00105971494,8.9535315 0,20 C0.00105971494,31.0464685 8.9535315,39.9989403 20,40 C31.0464685,39.9989403 39.9989403,31.0464685 40,20 C39.9989403,8.9535315 31.0464685,0.00105971494 20,0 Z" id="Shape" fill="#4A4A4A"></path>
                <path d="M20.2033588,14.8148148 C15.6322609,14.8157612 7.11111563,20.959866 7.11111563,20.959866 C7.11111563,20.959866 15.6322609,27.1030243 20.2033588,27.1049171 C24.7744567,27.1039707 33.2751244,20.8736303 33.2751244,20.8736303 C33.2751244,20.8736303 24.7744567,14.8167076 20.2033588,14.8148148 Z M20.4996505,24.9942432 C18.224512,24.9904576 16.3837696,23.1487689 16.3790376,20.8736303 C16.3828232,18.5984917 18.224512,16.7577494 20.4996505,16.7530174 C22.7738427,16.756803 24.6155314,18.5984917 24.6202634,20.8736303 C24.6155314,23.1487689 22.7747891,24.9895112 20.4996505,24.9942432 Z" id="Shape" fill="#FFFFFF"></path>
            </g>
        </g>
    </g>
</svg>