<?xml version="1.0" encoding="UTF-8"?>
<svg width="40px" height="40px" viewBox="0 0 40 40" version="1.1" xmlns="http://www.w3.org/2000/svg" xmlns:xlink="http://www.w3.org/1999/xlink">
    <!-- Generator: Sketch 42 (36781) - http://www.bohemiancoding.com/sketch -->
    <title>live icon</title>
    <desc>Created with Sketch.</desc>
    <defs></defs>
    <g id="Page-1" stroke="none" stroke-width="1" fill="none" fill-rule="evenodd">
        <g id="design-language" transform="translate(-5139.000000, -1332.000000)" fill-rule="nonzero" fill="#000000">
            <g id="live-icon" transform="translate(5139.000000, 1332.000000)">
                <path d="M3.07185185,26.1977778 L3.07185185,26.1977778 L3.05407407,26.1496296 C2.87555556,25.657037 2.33111111,25.402963 1.83851852,25.5814815 C1.34592593,25.76 1.09185185,26.3044444 1.27037037,26.797037 L1.28962963,26.8503704 C1.46962963,27.3422222 2.01481481,27.5948148 2.50666667,27.4148148 C2.99925926,27.2348148 3.25259259,26.6896296 3.07185185,26.1977778 Z" id="Shape"></path>
                <path d="M4.40518519,29.0385185 L4.40518519,29.0385185 L4.37925926,28.9940741 C4.11703704,28.54 3.53703704,28.3851852 3.0837037,28.6466667 C2.62962963,28.9081481 2.47481481,29.4888889 2.7362963,29.9422222 L2.76444444,29.9911111 C3.02740741,30.4437037 3.60814815,30.5977778 4.06074074,30.3348148 C4.51407407,30.0718519 4.66814815,29.4911111 4.40518519,29.0385185 Z" id="Shape"></path>
                <path d="M6.21185185,31.6059259 L6.17851852,31.5666667 C5.84222222,31.1651852 5.2437037,31.1118519 4.84222222,31.4488889 C4.44074074,31.7851852 4.38740741,32.3837037 4.72444444,32.7851852 L4.76074074,32.8288889 C5.09851852,33.2296296 5.69703704,33.2807407 6.09703704,32.942963 C6.49851852,32.6044444 6.54962963,32.0066667 6.21185185,31.6059259 L6.21185185,31.6059259 Z" id="Shape"></path>
                <path d="M11.0103704,35.6237037 L11.0103704,35.6237037 L10.9659259,35.5977778 C10.5125926,35.3348148 9.93259259,35.4888889 9.66962963,35.9414815 C9.40666667,36.3940741 9.56074074,36.9748148 10.0133333,37.2377778 L10.062963,37.2666667 C10.517037,37.5281481 11.097037,37.3725926 11.3585185,36.9192593 C11.62,36.4651852 11.4644444,35.8851852 11.0103704,35.6237037 Z" id="Shape"></path>
                <path d="M2.25555556,23.1674074 L2.24666667,23.1162963 C2.15703704,22.6 1.66518519,22.2548148 1.14962963,22.3444444 C0.633333333,22.4340741 0.288148148,22.9259259 0.377777778,23.4414815 L0.387407407,23.4977778 C0.478518519,24.0133333 0.971111111,24.3577778 1.48666667,24.2659259 C2.00296296,24.1755556 2.34666667,23.6837037 2.25555556,23.1674074 Z" id="Shape"></path>
                <path d="M8.4362963,33.8237037 L8.39703704,33.7903704 C7.9962963,33.4525926 7.39777778,33.5037037 7.06074074,33.9051852 C6.72296296,34.3059259 6.77407407,34.9044444 7.17555556,35.2414815 L7.21925926,35.2777778 C7.62074074,35.6140741 8.21925926,35.5607407 8.55555556,35.1592593 C8.89111111,34.7577778 8.83777778,34.16 8.4362963,33.8237037 L8.4362963,33.8237037 Z" id="Shape"></path>
                <path d="M1.83111111,14.4459259 C2.3237037,14.6237037 2.86740741,14.3688889 3.04518519,13.8762963 L3.04518519,13.8762963 L3.06296296,13.8274074 C3.24222222,13.3348148 2.98888889,12.7911111 2.49703704,12.6111111 C2.00444444,12.4318519 1.46074074,12.6851852 1.28074074,13.177037 L1.26148148,13.2311111 C1.08296296,13.7237037 1.33851852,14.2674074 1.83111111,14.4459259 Z" id="Shape"></path>
                <path d="M3.07185185,11.377037 C3.52592593,11.6377778 4.10592593,11.4814815 4.36740741,11.0274074 L4.36740741,11.0274074 L4.39333333,10.982963 C4.65555556,10.5296296 4.50074074,9.94888889 4.04814815,9.68666667 C3.59481481,9.42444444 3.01407407,9.57851852 2.75185185,10.0318519 L2.72296296,10.0814815 C2.46148148,10.5355556 2.61777778,11.1155556 3.07185185,11.377037 Z" id="Shape"></path>
                <path d="M1.14592593,17.682963 C1.66222222,17.7718519 2.15259259,17.4259259 2.24222222,16.9096296 L2.24222222,16.9096296 L2.25111111,16.8585185 C2.34148148,16.3422222 1.99703704,15.8503704 1.48074074,15.76 C0.964444444,15.6688889 0.472592593,16.0140741 0.382222222,16.5303704 L0.372592593,16.5866667 C0.283703704,17.102963 0.62962963,17.5940741 1.14592593,17.682963 Z" id="Shape"></path>
                <path d="M1.97851852,20.0392593 L1.97851852,20 L1.97851852,19.9874074 C1.97851852,19.4637037 1.55407407,19.0385185 1.03037037,19.0385185 C0.506666667,19.0385185 0.0814814815,19.462963 0.0814814815,19.9866667 L0.0814814815,20 L0.0814814815,20.0437037 C0.0822222222,20.5674074 0.508148148,20.9911111 1.03185185,20.9903704 C1.55555556,20.9888889 1.97925926,20.562963 1.97851852,20.0392593 Z" id="Shape"></path>
                <path d="M31.5911111,33.8007407 L31.5911111,33.8007407 L31.5518519,33.8333333 C31.1496296,34.1696296 31.0962963,34.7674074 31.4325926,35.1696296 C31.7688889,35.5718519 32.3666667,35.6251852 32.7688889,35.2888889 L32.8125926,35.2525926 C33.2133333,34.9155556 33.2651852,34.317037 32.9281481,33.9162963 C32.5896296,33.5155556 31.9918519,33.4637037 31.5911111,33.8007407 Z" id="Shape"></path>
                <path d="M26.18,36.9348148 L26.18,36.9348148 L26.1311111,36.9525926 C25.6385185,37.1303704 25.3837037,37.6748148 25.5614815,38.1674074 C25.7392593,38.66 26.2837037,38.9148148 26.7762963,38.737037 L26.8296296,38.7177778 C27.3214815,38.5385185 27.5748148,37.9933333 27.3955556,37.5014815 C27.2162963,37.0081481 26.6718519,36.7555556 26.18,36.9348148 Z" id="Shape"></path>
                <path d="M29.0214815,35.6044444 L29.0214815,35.6044444 L28.977037,35.6303704 C28.522963,35.8918519 28.3666667,36.4718519 28.6281481,36.9259259 C28.8896296,37.38 29.4696296,37.5362963 29.9237037,37.2748148 L29.9725926,37.2466667 C30.4259259,36.9837037 30.5807407,36.4037037 30.3177778,35.9503704 C30.0548148,35.497037 29.4748148,35.3422222 29.0214815,35.6044444 Z" id="Shape"></path>
                <path d="M23.1481481,37.7481481 L23.097037,37.757037 C22.5807407,37.8466667 22.2348148,38.337037 22.3244444,38.8533333 C22.4140741,39.3696296 22.9044444,39.7148148 23.4207407,39.6259259 L23.477037,39.6162963 C23.9925926,39.5251852 24.3377778,39.0333333 24.2466667,38.5177778 C24.1555556,38.0014815 23.6637037,37.657037 23.1481481,37.7481481 Z" id="Shape"></path>
                <path d="M6.16444444,8.45185185 L6.19777778,8.41259259 C6.53481481,8.01185185 6.48296296,7.41333333 6.08222222,7.0762963 C5.68148148,6.73925926 5.08296296,6.79111111 4.74592593,7.19185185 L4.70962963,7.23555556 C4.37333333,7.63777778 4.42740741,8.23555556 4.82962963,8.57185185 C5.23037037,8.90740741 5.82814815,8.85333333 6.16444444,8.45185185 Z" id="Shape"></path>
                <path d="M16.8903704,37.7548148 L16.8392593,37.7459259 C16.322963,37.6548148 15.8311111,37.9985185 15.74,38.5148148 C15.6488889,39.0303704 15.9925926,39.522963 16.5088889,39.6140741 L16.5651852,39.6237037 C17.0814815,39.7133333 17.5725926,39.3681481 17.6622222,38.8518519 C17.7525926,38.3355556 17.4066667,37.8444444 16.8903704,37.7548148 Z" id="Shape"></path>
                <path d="M13.8577778,36.9481481 L13.8088889,36.9303704 C13.317037,36.7503704 12.7718519,37.0037037 12.5925926,37.4955556 C12.4125926,37.9874074 12.6659259,38.5318519 13.1577778,38.7118519 L13.2118519,38.7311111 C13.7044444,38.9096296 14.2481481,38.6548148 14.4266667,38.162963 C14.6044444,37.6703704 14.3496296,37.1266667 13.8577778,36.9481481 Z" id="Shape"></path>
                <path d="M33.8103704,31.5785185 L33.8103704,31.5785185 L33.7777778,31.6177778 C33.44,32.0177778 33.4903704,32.6162963 33.8903704,32.9540741 C34.2903704,33.2918519 34.8888889,33.2414815 35.2266667,32.8414815 L35.2637037,32.7977778 C35.6007407,32.3962963 35.5481481,31.7977778 35.1466667,31.4614815 C34.7459259,31.1244444 34.1474074,31.177037 33.8103704,31.5785185 Z" id="Shape"></path>
                <path d="M20.0014825,38.000001 L19.9822232,38.000001 L19.9503713,38.000001 C19.4266676,37.9992602 19.0007417,38.4229639 19.000001,38.9466676 C18.9992602,39.4703713 19.4229639,39.8955565 19.9466676,39.897038 L19.9822232,39.897038 L20.0037047,39.897038 C20.5274084,39.8962973 20.9518528,39.4711121 20.9511121,38.9474084 C20.9503713,38.4237047 20.5251862,37.9992602 20.0014825,38.000001 Z" id="Shape"></path>
                <path d="M31.5333333,6.15185185 L31.5725926,6.18518519 C31.9740741,6.52148148 32.5725926,6.46888889 32.9088889,6.06814815 C33.2451852,5.66666667 33.1925926,5.06814815 32.7918519,4.73185185 L32.7481481,4.69555556 C32.3459259,4.36 31.7474074,4.41407407 31.4125926,4.8162963 C31.077037,5.21777778 31.1311111,5.8162963 31.5333333,6.15185185 L31.5333333,6.15185185 Z" id="Shape"></path>
                <path d="M38.8488889,22.3577778 C38.3325926,22.2674074 37.8414815,22.6125926 37.7511111,23.1288889 L37.7511111,23.1288889 L37.7422222,23.18 C37.6503704,23.6955556 37.9940741,24.1881481 38.5096296,24.28 C39.0251852,24.3718519 39.5177778,24.0281481 39.6096296,23.5125926 L39.6192593,23.4562963 C39.7103704,22.94 39.3651852,22.4481481 38.8488889,22.3577778 Z" id="Shape"></path>
                <path d="M37.7377778,16.7940741 L37.7377778,16.7940741 L37.7466667,16.8451852 C37.8377778,17.3607407 38.3296296,17.7051852 38.8459259,17.6140741 C39.3614815,17.522963 39.7059259,17.0311111 39.6148148,16.5148148 L39.6044444,16.4585185 C39.5118519,15.942963 39.0192593,15.6 38.5037037,15.6925926 C37.9881481,15.7851852 37.6451852,16.2785185 37.7377778,16.7940741 Z" id="Shape"></path>
                <path d="M33.762963,8.36444444 L33.7962963,8.4037037 C34.1333333,8.80444444 34.7318519,8.85555556 35.1325926,8.51851852 C35.5333333,8.18148148 35.5844444,7.58296296 35.2474074,7.18222222 L35.2111111,7.13851852 C34.8725926,6.73851852 34.2740741,6.68888889 33.8740741,7.02740741 C33.4740741,7.36592593 33.4237037,7.96444444 33.762963,8.36444444 L33.762963,8.36444444 Z" id="Shape"></path>
                <path d="M36.9148148,13.7651852 L36.9148148,13.7651852 L36.9325926,13.8140741 C37.1125926,14.3059259 37.657037,14.5592593 38.1488889,14.3792593 C38.6407407,14.1992593 38.8940741,13.6548148 38.7140741,13.162963 L38.6948148,13.1096296 C38.5133333,12.6177778 37.9681481,12.3666667 37.477037,12.5474074 C36.9844444,12.7288889 36.7333333,13.2740741 36.9148148,13.7651852 Z" id="Shape"></path>
                <path d="M39.9185185,19.9703704 L39.9185185,19.9133333 C39.9162963,19.3896296 39.4896296,18.9666667 38.9659259,18.9688889 C38.4422222,18.9711111 38.0192593,19.3977778 38.0214815,19.9214815 L38.0214815,19.9725926 L38.0244444,19.9866667 L38.0222222,20 L38.0222222,20 L38.0222222,20.0518519 C38.0207407,20.5755556 38.4444444,21.0014815 38.9681481,21.002963 C39.4918519,21.0044444 39.9177778,20.5807407 39.9192593,20.057037 L39.9192593,20 L39.9162963,19.9851852 L39.9185185,19.9703704 Z" id="Shape"></path>
                <path d="M35.5755556,10.9281481 L35.5755556,10.9281481 L35.6014815,10.9725926 C35.8644444,11.4259259 36.4444444,11.58 36.8977778,11.317037 C37.3511111,11.0540741 37.5051852,10.4740741 37.2422222,10.0207407 L37.2140741,9.97185185 C36.9496296,9.51925926 36.3688889,9.36666667 35.917037,9.63111111 C35.4637037,9.89481481 35.3111111,10.4755556 35.5755556,10.9281481 Z" id="Shape"></path>
                <path d="M38.157037,25.5940741 C37.6644444,25.4148148 37.1207407,25.6688889 36.9414815,26.1607407 L36.9414815,26.1607407 L36.9237037,26.2096296 C36.742963,26.7014815 36.9955556,27.2459259 37.4874074,27.4266667 C37.9792593,27.6074074 38.5237037,27.3548148 38.7044444,26.862963 L38.7244444,26.8088889 C38.902963,26.317037 38.6496296,25.7725926 38.157037,25.5940741 Z" id="Shape"></path>
                <path d="M28.9555556,4.35703704 L28.9555556,4.35703704 L29,4.38296296 C29.4533333,4.64518519 30.0340741,4.48962963 30.2955556,4.0362963 C30.5577778,3.58222222 30.4022222,3.00222222 29.9488889,2.74074074 L29.8992593,2.71259259 C29.4451852,2.45185185 28.8651852,2.60888889 28.6044444,3.06296296 C28.3444444,3.51703704 28.5014815,4.0962963 28.9555556,4.35703704 Z" id="Shape"></path>
                <path d="M16.8133333,2.25925926 L16.8133333,2.25925926 L16.8637037,2.25037037 C17.38,2.16 17.7244444,1.66814815 17.6340741,1.15259259 C17.5437037,0.636296296 17.0518519,0.291851852 16.5362963,0.382222222 L16.48,0.391851852 C15.9644444,0.483703704 15.6207407,0.976296296 15.7125926,1.49185185 C15.8044444,2.00740741 16.2977778,2.35111111 16.8133333,2.25925926 Z" id="Shape"></path>
                <path d="M10.9451852,4.41481481 L10.9896296,4.38888889 C11.442963,4.12666667 11.5977778,3.54666667 11.3355556,3.09333333 C11.0733333,2.64 10.4933333,2.48518519 10.04,2.74740741 L9.99111111,2.77555556 C9.53851852,3.03925926 9.38518519,3.62 9.64888889,4.07259259 C9.91185185,4.52518519 10.4918519,4.67851852 10.9451852,4.41481481 Z" id="Shape"></path>
                <path d="M36.9096296,28.66 C36.4562963,28.3977778 35.8755556,28.5525926 35.6140741,29.0066667 L35.6140741,29.0066667 L35.5881481,29.0511111 C35.3244444,29.5037037 35.4777778,30.0844444 35.9311111,30.3481481 C36.3837037,30.6111111 36.9644444,30.4577778 37.2281481,30.0051852 L37.257037,29.9562963 C37.5177778,29.5022222 37.362963,28.9222222 36.9096296,28.66 Z" id="Shape"></path>
                <path d="M8.37925926,6.22444444 L8.37925926,6.22444444 L8.41851852,6.19111111 C8.82,5.85407407 8.87185185,5.25555556 8.53481481,4.85481481 C8.19777778,4.45333333 7.59925926,4.40148148 7.19851852,4.73851852 L7.15481481,4.77555556 C6.75481481,5.11333333 6.70444444,5.71185185 7.04222222,6.11185185 C7.38074074,6.51259259 7.97925926,6.56296296 8.37925926,6.22444444 Z" id="Shape"></path>
                <path d="M13.7837037,3.07851852 L13.7837037,3.07851852 L13.8318519,3.06074074 C14.3244444,2.88148148 14.5777778,2.33703704 14.3985185,1.84444444 C14.2192593,1.35185185 13.6748148,1.09851852 13.1822222,1.27777778 L13.1288889,1.29777778 C12.637037,1.47851852 12.3851852,2.0237037 12.5659259,2.51481481 C12.7466667,3.00740741 13.2918519,3.25925926 13.7837037,3.07851852 Z" id="Shape"></path>
                <path d="M26.1059259,3.03851852 L26.1059259,3.03851852 L26.1548148,3.0562963 C26.6474074,3.23481481 27.1911111,2.98074074 27.3703704,2.48888889 C27.5488889,1.9962963 27.2948148,1.45185185 26.802963,1.27333333 L26.7488889,1.25407407 C26.2562963,1.0762963 25.7125926,1.33259259 25.5355556,1.82518519 C25.357037,2.31777778 25.6125926,2.86148148 26.1059259,3.03851852 Z" id="Shape"></path>
                <path d="M20.0815546,1.89703704 L20.1334064,1.89703704 C20.6571102,1.89703704 21.0815546,1.47185185 21.0815546,0.948148148 C21.0815546,0.424444444 20.6563694,0 20.1326657,0 L20.0756287,0 C19.551925,0.00148148148 19.1282213,0.427407407 19.1304435,0.951851852 C19.1311842,1.47555556 19.5571102,1.89851852 20.0815546,1.89703704 Z" id="Shape"></path>
                <path d="M23.0711111,2.23851852 L23.0711111,2.23851852 L23.1222222,2.24740741 C23.6385185,2.33703704 24.1296296,1.99185185 24.2192593,1.4762963 C24.3088889,0.96 23.9637037,0.468888889 23.4481481,0.379259259 L23.3918519,0.36962963 C22.8755556,0.280740741 22.3851852,0.627407407 22.2962963,1.1437037 C22.2081481,1.66 22.5548148,2.15037037 23.0711111,2.23851852 Z" id="Shape"></path>
                <path d="M20,6.02 C12.2785185,6.02074074 6.02074074,12.2785185 6.02,20 C6.02074074,27.7214815 12.2785185,33.9792593 20,33.98 C27.7214815,33.9792593 33.9792593,27.7214815 33.98,20 C33.9792593,12.2785185 27.7214815,6.02074074 20,6.02 Z M28.3518519,28.3525926 C26.2111111,30.4918519 23.2651852,31.8118519 20,31.8125926 C16.7348148,31.8118519 13.7888889,30.4918519 11.6474074,28.3525926 C9.50814815,26.2118519 8.18814815,23.2659259 8.18740741,20.0007407 C8.18814815,16.7355556 9.50814815,13.7896296 11.6474074,11.6481481 C13.7881481,9.50888889 16.7340741,8.18888889 20,8.18814815 C23.2651852,8.18888889 26.2111111,9.50888889 28.3518519,11.6481481 C30.4911111,13.7888889 31.8111111,16.7348148 31.8118519,20.0007407 C31.8111111,23.2651852 30.4911111,26.2111111 28.3518519,28.3525926 Z" id="Shape"></path>
                <path d="M20,15.2577924 C16.4222222,15.2585331 9.75276017,20.0674963 9.75276017,20.0674963 C9.75276017,20.0674963 16.4222222,24.8757187 20,24.8772002 C23.5777778,24.8764595 30.2312122,20 30.2312122,20 C30.2312122,20 23.5777778,15.2592739 20,15.2577924 Z M20,23.2251852 C18.2192593,23.2222222 16.7785185,21.7807407 16.7748148,20 C16.7777778,18.2192593 18.2192593,16.7785185 20,16.7748148 C21.78,16.7777778 23.2214815,18.2192593 23.2251852,20 C23.2214815,21.7807407 21.7807407,23.2214815 20,23.2251852 Z" id="Shape"></path>
            </g>
        </g>
    </g>
</svg>