<?xml version="1.0" encoding="UTF-8"?>
<svg width="64px" height="40px" viewBox="0 0 64 40" version="1.1" xmlns="http://www.w3.org/2000/svg" xmlns:xlink="http://www.w3.org/1999/xlink">
    <!-- Generator: Sketch 42 (36781) - http://www.bohemiancoding.com/sketch -->
    <title>people icon</title>
    <desc>Created with Sketch.</desc>
    <defs></defs>
    <g id="Page-1" stroke="none" stroke-width="1" fill="none" fill-rule="evenodd">
        <g id="design-language" transform="translate(-4934.000000, -1328.000000)" fill-rule="nonzero" fill="#000000">
            <g id="people-icon" transform="translate(4934.000000, 1328.000000)">
                <path d="M32.0788099,22.6499964 C25.8498353,22.6499964 20.7832377,17.5697696 20.7832377,11.3254518 C20.7832377,5.08 25.8498353,0 32.0788099,0 C38.3077846,0 43.3743822,5.08022679 43.3743822,11.3254518 C43.3743822,17.5697696 38.3077846,22.6499964 32.0788099,22.6499964 Z M32.0788099,1.74602321 C26.810227,1.74602321 22.5246544,6.04293214 22.5246544,11.3254518 C22.5246544,16.6066107 26.810227,20.9037464 32.0788099,20.9037464 C37.3473929,20.9037464 41.6329654,16.6066107 41.6329654,11.3254518 C41.6329654,6.04293214 37.3473929,1.74602321 32.0788099,1.74602321 Z" id="Shape"></path>
                <path d="M50.893716,39.6106196 L13.3201447,39.6106196 C12.8394965,39.6106196 12.4493233,39.2196411 12.4493233,38.7374946 L12.4493233,37.39515 C12.4493233,30.3269196 18.1838523,24.5769946 25.2336609,24.5769946 L38.980426,24.5769946 C46.0302346,24.5769946 51.7647636,30.3269196 51.7647636,37.39515 L51.7647636,38.7374946 C51.7645374,39.2198679 51.3743642,39.6106196 50.893716,39.6106196 Z M14.19074,37.8645964 L50.0228945,37.8645964 L50.0228945,37.3953768 C50.0228945,31.2898518 45.0696168,26.3234714 38.9801998,26.3234714 L25.2334348,26.3234714 C19.1440177,26.3234714 14.19074,31.2898518 14.19074,37.3953768 L14.19074,37.8645964 L14.19074,37.8645964 Z" id="Shape"></path>
                <path d="M32.1144395,19.9528101 C27.939925,19.9528101 24.5432689,16.5469422 24.5432689,12.3616118 C24.5432689,11.8796922 24.933216,11.4884868 25.4140904,11.4884868 L38.8129792,11.4884868 C39.2936274,11.4884868 39.6835745,11.8796922 39.6835745,12.3616118 C39.6833483,16.547169 36.2878231,19.9528101 32.1144395,19.9528101 Z M26.3493752,13.2347368 C26.7712147,16.0448386 29.1961698,18.2067868 32.1144395,18.2067868 C35.0315783,18.2067868 37.4556286,16.0448386 37.8774681,13.2347368 L26.3493752,13.2347368 Z" id="Shape"></path>
                <path d="M51.4775494,26.2421031 C47.7073806,26.2421031 44.6407557,23.167229 44.6407557,19.3877734 C44.6407557,15.6076316 47.7073806,12.5328947 51.4775494,12.5328947 C55.2477183,12.5328947 58.3143431,15.6077688 58.3143431,19.3877734 C58.3143431,23.167229 55.2477183,26.2421031 51.4775494,26.2421031 Z M51.4775494,13.5896983 C48.2886702,13.5896983 45.6947711,16.1904589 45.6947711,19.3877734 C45.6947711,22.5842644 48.2886702,25.1851623 51.4775494,25.1851623 C54.6664286,25.1851623 57.2603277,22.5842644 57.2603277,19.3877734 C57.2603277,16.1904589 54.6664286,13.5896983 51.4775494,13.5896983 Z" id="Shape"></path>
                <path d="M62.8655188,36.5077435 C62.8655188,36.5077435 54.6446196,36.5077435 50.6290513,36.5077435 C49.5093623,36.5077435 50.2233773,34.5213629 49.8945398,33.5271622 C49.5657024,32.5329615 45.8270908,27.4084441 47.3344329,27.4084441 L55.6548433,27.4084441 C59.9218328,27.4084441 63.3927319,30.8886619 63.3927319,35.1668013 L63.3927319,35.9792731 C63.392595,36.2712358 63.1564375,36.5077435 62.8655188,36.5077435 Z M49.8945398,34.3258295 C49.8945398,34.3258295 50.2922852,35.4434114 50.6290513,35.4509399 C50.9658174,35.4584685 62.3384427,35.4509399 62.3384427,35.4509399 L62.3384427,35.1669386 C62.3384427,31.4714892 59.3404062,28.4655222 55.6547064,28.4655222 L47.334296,28.4655222 C45.4569385,28.4655222 47.3171442,29.3173327 48.3892041,31.0234596 C49.461264,32.7295865 49.8945398,34.3258295 49.8945398,34.3258295 Z" id="Shape"></path>
                <path d="M51.4991147,24.6095956 C48.9724348,24.6095956 46.916564,22.5481492 46.916564,20.014923 C46.916564,19.7232348 47.1525846,19.4864526 47.4436402,19.4864526 L55.5534939,19.4864526 C55.8444126,19.4864526 56.0804332,19.7232348 56.0804332,20.014923 C56.0802963,22.5482865 54.02511,24.6095956 51.4991147,24.6095956 Z M48.0097337,20.5433934 C48.2650576,22.2442444 49.7327935,23.552792 51.4991147,23.552792 C53.2647513,23.552792 54.7319397,22.2442444 54.9872636,20.5433934 L48.0097337,20.5433934 Z" id="Shape"></path>
                <path d="M51.4775494,26.2421031 C47.7073806,26.2421031 44.6407557,23.167229 44.6407557,19.3877734 C44.6407557,15.6076316 47.7073806,12.5328947 51.4775494,12.5328947 C55.2477183,12.5328947 58.3143431,15.6077688 58.3143431,19.3877734 C58.3143431,23.167229 55.2477183,26.2421031 51.4775494,26.2421031 Z M51.4775494,13.5896983 C48.2886702,13.5896983 45.6947711,16.1904589 45.6947711,19.3877734 C45.6947711,22.5842644 48.2886702,25.1851623 51.4775494,25.1851623 C54.6664286,25.1851623 57.2603277,22.5842644 57.2603277,19.3877734 C57.2603277,16.1904589 54.6664286,13.5896983 51.4775494,13.5896983 Z" id="Shape"></path>
                <path d="M62.8655188,36.5077435 C62.8655188,36.5077435 54.6446196,36.5077435 50.6290513,36.5077435 C49.5093623,36.5077435 50.2233773,34.5213629 49.8945398,33.5271622 C49.5657024,32.5329615 45.2120832,27.4084441 46.7194253,27.4084441 L55.6548433,27.4084441 C59.9218328,27.4084441 63.3927319,30.8886619 63.3927319,35.1668013 L63.3927319,35.9792731 C63.392595,36.2712358 63.1564375,36.5077435 62.8655188,36.5077435 Z M50.6290513,35.4509399 C50.9658174,35.4584685 62.3384427,35.4509399 62.3384427,35.4509399 L62.3384427,35.1669386 C62.3384427,31.4714892 59.3404062,28.4655222 55.6547064,28.4655222 L47.334296,28.4655222 C45.4569385,28.4655222 47.7207979,29.3426089 48.7928578,31.0487358 C49.8649177,32.7548627 50.6290513,35.4509399 50.6290513,35.4509399 Z" id="Shape"></path>
                <path d="M51.4991147,24.6095956 C48.9724348,24.6095956 46.916564,22.5481492 46.916564,20.014923 C46.916564,19.7232348 47.1525846,19.4864526 47.4436402,19.4864526 L55.5534939,19.4864526 C55.8444126,19.4864526 56.0804332,19.7232348 56.0804332,20.014923 C56.0802963,22.5482865 54.02511,24.6095956 51.4991147,24.6095956 Z M48.0097337,20.5433934 C48.2650576,22.2442444 49.7327935,23.552792 51.4991147,23.552792 C53.2647513,23.552792 54.7319397,22.2442444 54.9872636,20.5433934 L48.0097337,20.5433934 Z" id="Shape"></path>
                <path d="M12.0224506,26.2421031 C8.25228174,26.2421031 5.18565687,23.167229 5.18565687,19.3877734 C5.18565687,15.6076316 8.25228174,12.5328947 12.0224506,12.5328947 C15.7926194,12.5328947 18.8592443,15.6077688 18.8592443,19.3877734 C18.8592443,23.167229 15.7926194,26.2421031 12.0224506,26.2421031 Z M12.0224506,13.5896983 C8.83357144,13.5896983 6.23967227,16.1904589 6.23967227,19.3877734 C6.23967227,22.5842644 8.83357144,25.1851623 12.0224506,25.1851623 C15.2113298,25.1851623 17.8052289,22.5842644 17.8052289,19.3877734 C17.8052289,16.1904589 15.2113298,13.5896983 12.0224506,13.5896983 Z" id="Shape" transform="translate(12.022451, 19.387499) scale(-1, 1) translate(-12.022451, -19.387499) "></path>
                <path d="M16.568599,36.5077435 C16.568599,36.5077435 7.35324212,36.5077435 3.33767378,36.5077435 C2.21798483,36.5077435 3.92645745,34.5213629 3.59762001,33.5271622 C3.26878257,32.5329615 -0.469828971,27.4084441 1.0375131,27.4084441 L9.3579235,27.4084441 C13.624913,27.4084441 17.0958121,30.8886619 17.0958121,35.1668013 L17.0958121,35.9792731 C17.0956752,36.2712358 16.8595177,36.5077435 16.568599,36.5077435 Z M3.33767378,35.1669386 C3.33767378,35.1669386 3.99536539,35.4434114 4.33213148,35.4509399 C4.66889758,35.4584685 16.0415229,35.4509399 16.0415229,35.4509399 L16.0415229,35.1669386 C16.0415229,31.4714892 13.0434864,28.4655222 9.3577866,28.4655222 L1.03737619,28.4655222 C-0.8399813,28.4655222 0.530952456,29.8290446 1.60301235,31.5351715 C2.67507224,33.2412984 3.33767378,35.1669386 3.33767378,35.1669386 Z" id="Shape" transform="translate(8.601540, 31.958094) scale(-1, 1) translate(-8.601540, -31.958094) "></path>
                <path d="M12.0021175,24.6095956 C9.47543761,24.6095956 7.41956682,22.5481492 7.41956682,20.014923 C7.41956682,19.7232348 7.65558741,19.4864526 7.94664297,19.4864526 L16.0564967,19.4864526 C16.3474154,19.4864526 16.583436,19.7232348 16.583436,20.014923 C16.5832991,22.5482865 14.5281128,24.6095956 12.0021175,24.6095956 Z M8.51273644,20.5433934 C8.76806034,22.2442444 10.2357963,23.552792 12.0021175,23.552792 C13.7677541,23.552792 15.2349424,22.2442444 15.4902663,20.5433934 L8.51273644,20.5433934 Z" id="Shape" transform="translate(12.001501, 22.048024) scale(-1, 1) translate(-12.001501, -22.048024) "></path>
                <path d="M12.0224506,26.2421031 C8.25228174,26.2421031 5.18565687,23.167229 5.18565687,19.3877734 C5.18565687,15.6076316 8.25228174,12.5328947 12.0224506,12.5328947 C15.7926194,12.5328947 18.8592443,15.6077688 18.8592443,19.3877734 C18.8592443,23.167229 15.7926194,26.2421031 12.0224506,26.2421031 Z M12.0224506,13.5896983 C8.83357144,13.5896983 6.23967227,16.1904589 6.23967227,19.3877734 C6.23967227,22.5842644 8.83357144,25.1851623 12.0224506,25.1851623 C15.2113298,25.1851623 17.8052289,22.5842644 17.8052289,19.3877734 C17.8052289,16.1904589 15.2113298,13.5896983 12.0224506,13.5896983 Z" id="Shape" transform="translate(12.022451, 19.387499) scale(-1, 1) translate(-12.022451, -19.387499) "></path>
                <path d="M16.8732831,36.5077435 C16.8732831,36.5077435 7.65792617,36.5077435 3.64235782,36.5077435 C2.52266888,36.5077435 4.23114149,34.5213629 3.90230405,33.5271622 C3.57346661,32.5329615 -1.1015761,27.4084441 0.405765967,27.4084441 L9.66260755,27.4084441 C13.929597,27.4084441 17.4004961,30.8886619 17.4004961,35.1668013 L17.4004961,35.9792731 C17.4003592,36.2712358 17.1642017,36.5077435 16.8732831,36.5077435 Z M3.64235782,35.1669386 C3.64235782,35.1669386 4.30004943,35.4434114 4.63681553,35.4509399 C4.97358162,35.4584685 16.3462069,35.4509399 16.3462069,35.4509399 L16.3462069,35.1669386 C16.3462069,31.4714892 13.3481704,28.4655222 9.66247064,28.4655222 L1.34206024,28.4655222 C-0.535297257,28.4655222 0.835636499,29.8290446 1.90769639,31.5351715 C2.97975628,33.2412984 3.64235782,35.1669386 3.64235782,35.1669386 Z" id="Shape" transform="translate(8.753882, 31.958094) scale(-1, 1) translate(-8.753882, -31.958094) "></path>
                <path d="M12.0021175,24.6095956 C9.47543761,24.6095956 7.41956682,22.5481492 7.41956682,20.014923 C7.41956682,19.7232348 7.65558741,19.4864526 7.94664297,19.4864526 L16.0564967,19.4864526 C16.3474154,19.4864526 16.583436,19.7232348 16.583436,20.014923 C16.5832991,22.5482865 14.5281128,24.6095956 12.0021175,24.6095956 Z M8.51273644,20.5433934 C8.76806034,22.2442444 10.2357963,23.552792 12.0021175,23.552792 C13.7677541,23.552792 15.2349424,22.2442444 15.4902663,20.5433934 L8.51273644,20.5433934 Z" id="Shape" transform="translate(12.001501, 22.048024) scale(-1, 1) translate(-12.001501, -22.048024) "></path>
            </g>
        </g>
    </g>
</svg>