<?xml version="1.0" encoding="UTF-8"?>
<svg width="40px" height="43px" viewBox="0 0 40 43" version="1.1" xmlns="http://www.w3.org/2000/svg" xmlns:xlink="http://www.w3.org/1999/xlink">
    <!-- Generator: Sketch 42 (36781) - http://www.bohemiancoding.com/sketch -->
    <title>Shape</title>
    <desc>Created with Sketch.</desc>
    <defs></defs>
    <g id="Page-1" stroke="none" stroke-width="1" fill="none" fill-rule="evenodd">
        <g id="meets-sort-dropdown" transform="translate(-35.000000, -61.000000)" fill-rule="nonzero" fill="#FFFFFF">
            <path d="M56.1111111,83.8316132 C62.5555556,83.2928141 67.5925926,78.376272 67.5925926,72.4494816 C67.5925926,66.1185918 61.962963,61 55,61 C48.037037,61 42.4074074,66.1185918 42.4074074,72.4494816 C42.4074074,78.4436219 47.4444444,83.2928141 53.8888889,83.8316132 C43.2222222,84.3704123 35,92.4523993 35,102.622233 C35,103.363082 35.6666667,103.969231 36.4814815,103.969231 C37.2962963,103.969231 37.962963,103.363082 37.962963,102.622233 C37.962963,93.3952978 45.2962963,86.458259 55,86.458259 C64.7037037,86.458259 72.037037,93.3952978 72.037037,102.622233 C72.037037,103.363082 72.7037037,103.969231 73.5185185,103.969231 C74.3333333,103.969231 75,103.363082 75,102.622233 C75,92.4523993 66.7777778,84.3704123 56.1111111,83.8316132 Z M45.3703704,72.4494816 C45.3703704,67.6002894 49.6666667,63.6939957 55,63.6939957 C60.3333333,63.6939957 64.6296296,67.6002894 64.6296296,72.4494816 C64.6296296,77.2986737 60.3333333,81.2049674 55,81.2049674 C49.6666667,81.2049674 45.3703704,77.2313238 45.3703704,72.4494816 Z" id="Shape"></path>
        </g>
    </g>
</svg>