<?xml version="1.0" encoding="UTF-8"?>
<svg width="10px" height="36px" viewBox="0 0 10 36" version="1.1" xmlns="http://www.w3.org/2000/svg" xmlns:xlink="http://www.w3.org/1999/xlink">
    <!-- Generator: Sketch 49.2 (51160) - http://www.bohemiancoding.com/sketch -->
    <title>Page 1</title>
    <desc>Created with Sketch.</desc>
    <defs></defs>
    <g id="Main-Page" stroke="none" stroke-width="1" fill="none" fill-rule="evenodd">
        <g transform="translate(-346.000000, -44.000000)" fill="#797575" id="Page-1">
            <g transform="translate(346.000000, 44.000000)">
                <path d="M10,18 C10,20.7614694 7.76146939,23 5,23 C2.23853061,23 0,20.7614694 0,18 C0,15.2385306 2.23853061,13 5,13 C7.76146939,13 10,15.2385306 10,18" id="Fill-1"></path>
                <path d="M10,31 C10,33.7614694 7.76146939,36 5,36 C2.23853061,36 0,33.7614694 0,31 C0,28.2385306 2.23853061,26 5,26 C7.76146939,26 10,28.2385306 10,31" id="Fill-2"></path>
                <path d="M10,5 C10,7.76146939 7.76146939,10 5,10 C2.23853061,10 0,7.76146939 0,5 C0,2.23853061 2.23853061,0 5,0 C7.76146939,0 10,2.23853061 10,5" id="Fill-3"></path>
            </g>
        </g>
    </g>
</svg>