<?xml version="1.0" encoding="UTF-8"?>
<svg width="46px" height="35px" viewBox="0 0 46 35" version="1.1" xmlns="http://www.w3.org/2000/svg" xmlns:xlink="http://www.w3.org/1999/xlink">
    <!-- Generator: Sketch 42 (36781) - http://www.bohemiancoding.com/sketch -->
    <title>Shape</title>
    <desc>Created with Sketch.</desc>
    <defs></defs>
    <g id="Page-1" stroke="none" stroke-width="1" fill="none" fill-rule="evenodd">
        <g id="login" transform="translate(-206.000000, -1060.000000)" stroke="#000000" stroke-width="1.4">
            <g id="Group" transform="translate(207.000000, 1042.000000)">
                <path d="M1.24068225,19 C1.24068225,19 42.4526453,19.0892769 42.2654012,19.2515986 C42.2654012,19.2515986 23.81501,38.7220864 23.6582121,38.8661469 C23.2076085,39.2820963 22.6626217,39.5235498 22.0795771,39.5235498 C21.4889211,39.5235498 20.937845,39.2760092 20.4872414,38.8539728 C20.3365328,38.7139703 1.89070841,19.2475406 1.89070841,19.2475406 C1.70346434,19.0892769 1.47968484,19 1.24068225,19 C0.554120662,19 0,19.7487088 0,20.6698845 L0,47.6497798 C0,49.7234395 1.25133842,51.4075272 2.79496026,51.4075272 L41.3626717,51.4075272 C42.9047712,51.4075272 44.1561097,49.7234395 44.1561097,47.6497798 L44.1561097,20.6698845 C44.1561097,19.7487088 43.2841084,19 42.5990691,19 L1.24068225,19 Z" id="Shape"></path>
            </g>
        </g>
    </g>
</svg>