<?xml version="1.0" encoding="UTF-8"?>
<svg width="35px" height="48px" viewBox="0 0 35 48" version="1.1" xmlns="http://www.w3.org/2000/svg" xmlns:xlink="http://www.w3.org/1999/xlink">
    <!-- Generator: Sketch 42 (36781) - http://www.bohemiancoding.com/sketch -->
    <title>Flash On active</title>
    <desc>Created with Sketch.</desc>
    <defs></defs>
    <g id="Page-1" stroke="none" stroke-width="1" fill="none" fill-rule="evenodd">
        <g id="design-language" transform="translate(-4316.000000, -937.000000)" stroke="#FFFFFF" fill="#FFFFFF">
            <path d="M4349.27898,961.387933 L4349.27898,961.383333 L4349.08563,961.0736 L4335.13144,938.4232 L4335.07401,938.328133 C4334.92851,938.131867 4334.66624,938 4334.36185,938 C4333.9043,938 4333.53482,938.299 4333.53482,938.667 L4333.53482,938.686933 L4333.55779,938.8142 L4335.90678,954.130667 C4335.91444,954.169 4335.92018,954.208867 4335.92401,954.250267 C4335.93167,954.314667 4335.93741,954.379067 4335.93741,954.446533 C4335.93741,955.550533 4334.82322,956.446 4333.4525,956.446 L4333.4525,956.456733 L4321.0241,956.456733 L4320.43064,956.456733 C4318.51239,956.577867 4317,957.868933 4317,959.446733 C4317,959.911333 4317.13209,960.352933 4317.36948,960.745467 L4331.41939,983.555333 L4331.50745,983.702533 C4331.51128,983.704067 4331.51128,983.704067 4331.51128,983.7056 C4331.6606,983.881933 4331.91522,983.998467 4332.19856,983.998467 C4332.6561,983.998467 4333.02941,983.701 4333.02941,983.331467 C4333.02941,983.317667 4333.02941,983.3008 4333.02558,983.287 L4333.01218,983.196533 C4333.01218,983.196533 4333.01218,983.196533 4333.01218,983.195 L4330.67085,967.9598 C4330.64405,967.855533 4330.62682,967.749733 4330.62299,967.639333 C4330.61916,967.608667 4330.61916,967.579533 4330.61916,967.548867 C4330.61916,966.444867 4331.73335,965.5494 4333.10407,965.5494 L4333.10407,965.538667 L4345.5497,965.538667 L4346.13934,965.538667 C4348.05759,965.419067 4349.56997,964.126467 4349.56997,962.5502 C4349.56997,962.137733 4349.46851,961.746733 4349.27898,961.387933 L4349.27898,961.387933 Z" id="Flash-On-active"></path>
        </g>
    </g>
</svg>