<?xml version="1.0" encoding="UTF-8"?>
<svg width="57px" height="41px" viewBox="0 0 57 41" version="1.1" xmlns="http://www.w3.org/2000/svg" xmlns:xlink="http://www.w3.org/1999/xlink">
    <!-- Generator: Sketch 42 (36781) - http://www.bohemiancoding.com/sketch -->
    <title>meets icon</title>
    <desc>Created with Sketch.</desc>
    <defs>
        <polygon id="path-1" points="46.4446276 7.04997137 49.8785221 7.20185792 50.0030724 8.34905466 46.3532042 8.37908518"></polygon>
        <mask id="mask-2" maskContentUnits="userSpaceOnUse" maskUnits="objectBoundingBox" x="0" y="0" width="3.64986816" height="1.32911382" fill="white">
            <use xlink:href="#path-1"></use>
        </mask>
    </defs>
    <g id="Page-1" stroke="none" stroke-width="1" fill="none" fill-rule="evenodd">
        <g id="design-language" transform="translate(-5587.000000, -1335.000000)">
            <g id="meets-icon" transform="translate(5588.000000, 1335.000000)">
                <path d="M35.0744569,1 C28.6011049,1 25.650798,6.85635267 23.2525153,9.83350813 C20.8542325,6.85635267 17.8217256,1 11.3521299,1 C4.20386156,1 0.138231261,6.2015227 0.0161368683,12.8919435 C-0.00711920659,12.9328385 0.00160182148,12.9710071 0.00160182148,13.0119021 C-0.00711920659,13.2927144 0.0422999525,13.4344837 0.0510209806,13.6144217 C0.384716829,22.5109066 8.91530755,26.2011012 16.2375589,30.7287083 C23.5598102,35.2563154 22.434076,40.0290233 23.2525153,39.2453389 C24.0709545,38.4616545 23.3704792,34.1283126 30.3686781,30.7287083 C37.3668771,27.3291041 46.1008684,22.2702075 46.4410763,13.641685 C46.4527043,13.4508417 46.5050305,13.3008934 46.5050305,13.1045975 C46.4963095,12.9682808 46.5050305,12.9328385 46.5050305,12.8919435 C46.35968,6.2015227 42.2227929,1 35.0744569,1 Z" id="Shape" stroke="#000000" stroke-width="1.9"></path>
                <use id="Rectangle-2" stroke="#000000" mask="url(#mask-2)" stroke-width="2" transform="translate(48.178138, 7.714528) rotate(-33.000000) translate(-48.178138, -7.714528) " xlink:href="#path-1"></use>
                <path d="M51.3362247,0.877546916 C51.3362247,0.877546916 51.8854758,2.76691008 52.4255124,4.38469577 C52.965549,6.00248145 54.5316287,8.08049502 54.5316287,8.08049502 C54.5316287,8.08049502 52.5684071,7.72926092 52.0552347,7.76794844 C51.5420624,7.80663596 49.3089523,9.37329869 49.3089523,9.37329869 C49.3089523,9.37329869 50.5854441,6.39352375 50.8730772,4.98897883 C51.1607103,3.58443391 51.3362247,0.877546916 51.3362247,0.877546916 Z" id="Triangle" stroke="#000000" transform="translate(51.920291, 5.125423) rotate(58.000000) translate(-51.920291, -5.125423) "></path>
                <polygon id="Rectangle" fill="#000000" transform="translate(7.718208, 31.393420) rotate(-30.000000) translate(-7.718208, -31.393420) " points="1.64832891 30.6241897 13.2203775 30.6241897 13.7880863 32.0057149 1.64832891 32.1626512"></polygon>
            </g>
        </g>
    </g>
</svg>