<?xml version="1.0" encoding="UTF-8"?>
<svg width="40px" height="40px" viewBox="0 0 40 40" version="1.1" xmlns="http://www.w3.org/2000/svg" xmlns:xlink="http://www.w3.org/1999/xlink">
    <!-- Generator: Sketch 42 (36781) - http://www.bohemiancoding.com/sketch -->
    <title>noun_814251_cc</title>
    <desc>Created with Sketch.</desc>
    <defs></defs>
    <g id="Page-1" stroke="none" stroke-width="1" fill="none" fill-rule="evenodd">
        <g id="profile" transform="translate(-675.000000, -62.000000)" fill-rule="nonzero" fill="#FFFFFF">
            <g id="noun_814251_cc" transform="translate(675.000000, 62.000000)">
                <path d="M20,11.030303 C15.030303,11.030303 11.030303,15.030303 11.030303,20 C11.030303,24.969697 15.030303,28.969697 20,28.969697 C24.969697,28.969697 28.969697,24.969697 28.969697,20 C28.969697,15.030303 24.969697,11.030303 20,11.030303 Z M20,27.1515152 C16.0606061,27.1515152 12.8484848,23.9393939 12.8484848,20 C12.8484848,16.0606061 16.0606061,12.8484848 20,12.8484848 C23.9393939,12.8484848 27.1515152,16.0606061 27.1515152,20 C27.1515152,23.9393939 23.9393939,27.1515152 20,27.1515152 Z" id="Shape"></path>
                <path d="M38.1212121,15.9393939 L33.0909091,15.2727273 C32.5454545,15.2121212 32.3030303,14.5454545 32.6060606,14.1212121 L35.6969697,10.0606061 C36.3636364,9.21212121 36.3030303,8 35.5151515,7.21212121 L32.7878788,4.48484848 C32.3636364,4.06060606 31.8181818,3.81818182 31.2727273,3.81818182 C30.7878788,3.81818182 30.3636364,4 29.9393939,4.3030303 L25.8787879,7.39393939 C25.7575758,7.51515152 25.5757576,7.57575758 25.4545455,7.57575758 C25.0909091,7.57575758 24.7878788,7.33333333 24.7272727,6.90909091 L24.0606061,1.87878788 C23.9393939,0.787878788 23.030303,0 21.9393939,0 L18.0606061,0 C16.969697,0 16.0606061,0.787878788 15.9393939,1.87878788 L15.2727273,6.90909091 C15.2121212,7.27272727 14.9090909,7.51515152 14.5454545,7.51515152 C14.4242424,7.51515152 14.2424242,7.45454545 14.1212121,7.39393939 L10.0606061,4.3030303 C9.6969697,4 9.21212121,3.81818182 8.72727273,3.81818182 C8.18181818,3.81818182 7.63636364,4.06060606 7.21212121,4.48484848 L4.48484848,7.21212121 C3.6969697,8 3.63636364,9.21212121 4.3030303,10.0606061 L7.39393939,14.1212121 C7.75757576,14.5454545 7.45454545,15.2121212 6.90909091,15.2727273 L1.87878788,15.9393939 C0.787878788,16.0606061 0,16.969697 0,18.0606061 L0,21.9393939 C0,23.030303 0.787878788,23.9393939 1.87878788,24.0606061 L6.90909091,24.7272727 C7.45454545,24.7878788 7.6969697,25.4545455 7.39393939,25.8787879 L4.3030303,29.9393939 C3.63636364,30.7878788 3.6969697,32 4.48484848,32.7878788 L7.21212121,35.5151515 C7.63636364,35.9393939 8.18181818,36.1818182 8.72727273,36.1818182 C9.21212121,36.1818182 9.63636364,36 10.0606061,35.6969697 L14.1212121,32.6060606 C14.2424242,32.4848485 14.4242424,32.4242424 14.5454545,32.4242424 C14.9090909,32.4242424 15.2121212,32.6666667 15.2727273,33.0909091 L15.9393939,38.1212121 C16.0606061,39.2121212 16.969697,40 18.0606061,40 L21.9393939,40 C23.030303,40 23.9393939,39.2121212 24.0606061,38.1212121 L24.7272727,33.0909091 C24.7878788,32.7272727 25.0909091,32.4848485 25.4545455,32.4848485 C25.5757576,32.4848485 25.7575758,32.5454545 25.8787879,32.6060606 L29.9393939,35.6969697 C30.3030303,36 30.7878788,36.1818182 31.2727273,36.1818182 C31.8181818,36.1818182 32.3636364,35.9393939 32.7878788,35.5151515 L35.5151515,32.7878788 C36.3030303,32 36.3636364,30.7878788 35.6969697,29.9393939 L32.6060606,25.8787879 C32.2424242,25.4545455 32.5454545,24.7878788 33.0909091,24.7272727 L38.1212121,24.0606061 C39.2121212,23.9393939 40,23.030303 40,21.9393939 L40,18.0606061 C40,16.969697 39.2121212,16.0606061 38.1212121,15.9393939 Z M38.1818182,21.9393939 C38.1818182,22.0606061 38.1212121,22.2424242 37.9393939,22.2424242 L37.9393939,22.2424242 L37.9393939,22.2424242 L32.9090909,22.9090909 C32,23.030303 31.2121212,23.6363636 30.8484848,24.4848485 C30.5454545,25.3333333 30.6666667,26.3030303 31.2121212,26.969697 L34.3030303,31.030303 C34.4242424,31.1515152 34.3636364,31.3333333 34.2424242,31.4545455 L31.5151515,34.2424242 C31.4545455,34.3030303 31.3333333,34.3636364 31.2727273,34.3636364 C31.2121212,34.3636364 31.1515152,34.3636364 31.030303,34.3030303 L26.969697,31.2121212 L26.969697,31.2121212 L26.969697,31.2121212 C26.5454545,30.9090909 26,30.7272727 25.5151515,30.7272727 C24.2424242,30.7272727 23.1515152,31.6969697 22.969697,32.9090909 L22.3030303,37.9393939 L22.3030303,37.9393939 L22.3030303,37.9393939 C22.3030303,38.1212121 22.1212121,38.1818182 22,38.1818182 L18.1212121,38.1818182 C18,38.1818182 17.8181818,38.1212121 17.8181818,37.9393939 L17.8181818,37.9393939 L17.8181818,37.9393939 L17.1515152,32.9090909 C16.969697,31.6363636 15.9393939,30.6666667 14.6060606,30.6666667 C14.0606061,30.6666667 13.5151515,30.8484848 13.030303,31.2121212 L8.96969697,34.3030303 C8.90909091,34.3636364 8.84848485,34.3636364 8.78787879,34.3636364 C8.72727273,34.3636364 8.60606061,34.3636364 8.54545455,34.2424242 L5.75757576,31.5151515 C5.63636364,31.3939394 5.63636364,31.2121212 5.75757576,31.030303 L8.84848485,26.969697 L8.84848485,26.969697 L8.84848485,26.969697 C9.39393939,26.2424242 9.45454545,25.2727273 9.09090909,24.4242424 C8.72727273,23.5757576 8,23.030303 7.09090909,22.969697 L2.06060606,22.3030303 L2.06060606,22.3030303 L2.06060606,22.3030303 C1.87878788,22.3030303 1.81818182,22.1212121 1.81818182,22 L1.81818182,18.1212121 C1.81818182,18 1.87878788,17.8181818 2.06060606,17.8181818 L2.06060606,17.8181818 L2.06060606,17.8181818 L7.09090909,17.1515152 C8,17.030303 8.78787879,16.4242424 9.15151515,15.5757576 C9.45454545,14.7272727 9.33333333,13.7575758 8.78787879,13.0909091 L5.6969697,9.03030303 C5.57575758,8.90909091 5.63636364,8.72727273 5.75757576,8.60606061 L8.48484848,5.87878788 C8.54545455,5.81818182 8.66666667,5.75757576 8.72727273,5.75757576 C8.78787879,5.75757576 8.84848485,5.75757576 8.96969697,5.81818182 L13.030303,8.90909091 L13.030303,8.90909091 L13.030303,8.90909091 C13.4545455,9.21212121 14,9.39393939 14.4848485,9.39393939 C15.7575758,9.39393939 16.8484848,8.42424242 17.030303,7.21212121 L17.6969697,2.18181818 L17.6969697,2.18181818 L17.6969697,2.18181818 C17.6969697,2 17.8787879,1.93939394 18,1.93939394 L21.8787879,1.93939394 C22,1.93939394 22.1818182,2 22.1818182,2.18181818 L22.1818182,2.18181818 L22.1818182,2.18181818 L22.8484848,7.21212121 C23.030303,8.48484848 24.0606061,9.45454545 25.3939394,9.45454545 C25.9393939,9.45454545 26.4848485,9.27272727 26.969697,8.90909091 L31.030303,5.81818182 C31.0909091,5.75757576 31.1515152,5.75757576 31.2121212,5.75757576 C31.2727273,5.75757576 31.3939394,5.75757576 31.4545455,5.87878788 L34.1818182,8.60606061 C34.3030303,8.72727273 34.3030303,8.90909091 34.1818182,9.09090909 L31.0909091,13.1515152 L31.0909091,13.1515152 L31.0909091,13.1515152 C30.5454545,13.8787879 30.4848485,14.8484848 30.8484848,15.6969697 C31.2121212,16.5454545 31.9393939,17.0909091 32.8484848,17.1515152 L37.8787879,17.8181818 L37.8787879,17.8181818 L37.8787879,17.8181818 C38.0606061,17.8181818 38.1212121,18 38.1212121,18.1212121 L38.1212121,21.9393939 L38.1818182,21.9393939 Z" id="Shape"></path>
            </g>
        </g>
    </g>
</svg>