<?xml version="1.0" encoding="UTF-8"?>
<svg width="566px" height="133px" viewBox="0 0 566 133" version="1.1" xmlns="http://www.w3.org/2000/svg" xmlns:xlink="http://www.w3.org/1999/xlink">
    <!-- Generator: Sketch 42 (36781) - http://www.bohemiancoding.com/sketch -->
    <title>Group</title>
    <desc>Created with Sketch.</desc>
    <defs></defs>
    <g id="Page-1" stroke="none" stroke-width="1" fill="none" fill-rule="evenodd">
        <g id="design-language" transform="translate(-278.000000, -2104.000000)" stroke-width="0.5" stroke="#B54DB1" fill="#000000">
            <g id="Group" transform="translate(279.000000, 2105.000000)">
                <g id="Group-2">
                    <g id="Group-3">
                        <path d="M87.9673934,23.7503687 C87.9673934,26.1226589 87.6501733,28.2880309 87.0157236,30.2465497 C86.3812738,32.2050684 85.5123666,33.8877141 84.4089758,35.2945374 C83.3055849,36.7013607 81.9539515,37.7909428 80.3540348,38.5633164 C78.7541181,39.33569 77.0163036,39.721871 75.1405392,39.721871 C72.9889271,39.721871 71.04423,39.2667291 69.3063894,38.3564316 C67.5685489,37.4461342 66.0652014,36.1358773 64.796302,34.4256215 C66.8927445,32.8808743 68.5753903,30.8258398 69.8442898,28.2604561 C71.1131892,25.6950724 71.7476294,22.9504289 71.7476294,20.0264433 C71.7476294,16.3852536 70.6718395,13.5026883 68.5202274,11.3786609 C66.3686153,9.25463362 63.4170891,8.19263588 59.6655603,8.19263588 C57.4036091,8.19263588 55.3209902,8.62019341 53.417641,9.4753213 C51.5142919,10.3304492 49.8868148,11.5165765 48.5351611,13.0337389 C47.1835073,14.5509013 46.1353018,16.3576767 45.390513,18.4541192 C44.6457241,20.5505618 44.2733353,22.8400634 44.2733353,25.3226927 C44.2733353,29.0742215 45.1836191,32.6050192 47.004214,35.9151917 C48.8248088,39.2253641 51.1143104,42.4803182 53.8727875,45.6801516 C56.6312645,48.879985 59.6103751,52.1211469 62.8102084,55.4037346 C66.0100418,58.6863223 68.9891524,62.1895356 71.7476294,65.9134796 C74.5061065,69.6374236 76.7956081,73.6647397 78.6162029,77.9955487 C80.4367978,82.3263577 81.3470816,87.1122436 81.3470816,92.35335 C81.3470816,97.9254736 80.1885386,103.069956 77.8714178,107.786952 C75.5542971,112.503948 72.3407196,116.586432 68.2305887,120.034529 C64.1204579,123.482625 59.2931955,126.185892 53.7486566,128.144411 C48.2041178,130.102929 42.2045202,131.082174 35.7496839,131.082174 C30.3430688,131.082174 25.4468455,130.378773 21.060867,128.97195 C16.6748885,127.565126 12.923416,125.551468 9.80633689,122.930915 C6.68925782,120.310362 4.2756266,117.179538 2.56537083,113.538348 C0.85511506,109.897158 0,105.842258 0,101.373525 C0,97.621996 0.606855849,94.1187827 1.82058575,90.8637798 C3.03431566,87.6087769 4.68937706,84.7813803 6.78581962,82.3815053 C8.88226218,79.9816302 11.3648543,78.0921018 14.2336704,76.7128633 C17.1024866,75.3336247 20.1643502,74.6440158 23.4193531,74.6440158 C27.39156,74.6440158 30.7292672,75.6370527 33.4325747,77.6231561 C36.1358822,79.6092596 37.818528,82.3401109 38.4805625,85.815792 C35.5014073,85.815792 32.8257247,86.2295574 30.4534344,87.0571005 C28.0811441,87.8846436 26.0674861,89.0431866 24.4123999,90.5327642 C22.7573136,92.0223418 21.474641,93.8291172 20.5643436,95.9531445 C19.6540462,98.0771718 19.1989043,100.463219 19.1989043,103.111357 C19.1989043,108.076615 20.647083,112.007386 23.5434839,114.903787 C26.4398848,117.800188 30.3430713,119.248367 35.2531605,119.248367 C38.2323157,119.248367 40.9907514,118.710472 43.5285502,117.634666 C46.0663491,116.55886 48.2455133,115.083097 50.0661082,113.207332 C51.886703,111.331568 53.3210896,109.097235 54.3693109,106.504266 C55.4175321,103.911298 55.9416349,101.097694 55.9416349,98.0633689 C55.9416349,94.9738746 55.4313243,92.0085563 54.4106878,89.1673249 C53.3900513,86.3260935 52.0246256,83.5676579 50.3143699,80.8919351 C48.6041141,78.2162124 46.6732091,75.5819063 44.521597,72.9889379 C42.3699849,70.3959694 40.1632364,67.7892477 37.9012852,65.1686945 C35.639334,62.5481413 33.4325855,59.9138353 31.2809734,57.2656973 C29.1293613,54.6175593 27.1984563,51.9005002 25.4882005,49.1144384 C23.7779448,46.3283765 22.4125191,43.4458112 21.3918826,40.466656 C20.3712461,37.4875008 19.8609355,34.3428841 19.8609355,31.0327117 C19.8609355,26.5639789 20.8125958,22.4401175 22.7159449,18.661004 C24.6192941,14.8818904 27.2673924,11.6131441 30.6603191,8.85466707 C34.0532459,6.09619001 38.0667698,3.93081801 42.7010113,2.35848609 C47.3352527,0.786154168 52.38319,0 57.8449746,0 C62.4240465,0 66.5617,0.565479314 70.2580592,1.69645491 C73.9544185,2.8274305 77.1128273,4.42732319 79.7333805,6.49618098 C82.3539337,8.56503877 84.381384,11.0614231 85.815792,13.9854087 C87.2502001,16.9093944 87.9673934,20.1643485 87.9673934,23.7503687 Z M236.736681,97.6495994 C234.364391,104.600962 231.812838,110.145417 229.081946,114.283133 C226.351054,118.420848 223.592618,121.579257 220.806556,123.758454 C218.020494,125.937651 215.289643,127.358245 212.61392,128.02028 C209.938197,128.682314 207.469398,129.013327 205.207446,129.013327 C201.455918,129.013327 198.311301,128.475432 195.773502,127.399626 C193.235703,126.32382 191.194461,124.889433 189.649714,123.096423 C188.104966,121.303413 186.9878,119.262171 186.298181,116.972635 C185.608561,114.683099 185.263757,112.324636 185.263757,109.897176 C185.263757,107.02836 185.66373,103.676861 186.463688,99.8425777 C187.263647,96.0082946 188.132554,92.0775238 189.070436,88.0501473 C190.008318,84.0227708 190.877226,80.1333765 191.677184,76.3818477 C192.477142,72.6303189 192.877116,69.4029491 192.877116,66.6996416 C192.877116,60.9068398 190.835873,58.0104824 186.753327,58.0104824 C185.20858,58.0104824 183.774193,58.4242477 182.450124,59.2517908 C181.126055,60.079334 179.912344,61.1965004 178.808953,62.6033237 C177.705562,64.010147 176.712525,65.6652084 175.829813,67.5685576 C174.9471,69.4719067 174.174738,71.499357 173.512703,73.6509691 L162.009912,128.02028 L137.597512,128.02028 L150.010597,69.5132742 C150.341614,68.1892052 150.50712,66.782403 150.50712,65.2928254 C150.50712,64.2997736 150.424367,63.3619055 150.258858,62.4791928 C150.09335,61.5964802 149.803714,60.810326 149.389942,60.1207068 C148.976171,59.4310875 148.452068,58.8794004 147.817618,58.4656288 C147.183168,58.0518572 146.36943,57.8449746 145.376378,57.8449746 C143.721292,57.8449746 142.19036,58.2587399 140.783537,59.086283 C139.376714,59.9138262 138.107833,61.0447848 136.976858,62.4791928 C135.845882,63.9136009 134.839053,65.5962467 133.95634,67.5271806 C133.073628,69.4581146 132.301266,71.499357 131.639231,73.6509691 L120.136439,128.02028 L95.7240395,128.02028 L113.681635,43.2802886 L138.094035,43.2802886 L136.273449,52.0522017 C138.094044,50.0109287 139.914612,48.3696595 141.735207,47.1283448 C143.555802,45.8870301 145.348785,44.9215776 147.11421,44.2319584 C148.879635,43.5423391 150.589866,43.0734051 152.244952,42.8251421 C153.900038,42.5768792 155.472346,42.4527496 156.961924,42.4527496 C159.168706,42.4527496 161.237532,42.714801 163.168466,43.2389116 C165.0994,43.7630222 166.80963,44.6043451 168.299208,45.7629055 C169.788786,46.9214659 171.057666,48.4248133 172.105887,50.2729929 C173.154108,52.1211725 173.898886,54.3692976 174.340242,57.0174356 C176.381515,53.8727718 178.477927,51.3488031 180.629539,49.4454539 C182.781151,47.5421048 184.877562,46.093926 186.918835,45.1008743 C188.960108,44.1078226 190.918597,43.445798 192.794362,43.1147808 C194.670126,42.7837635 196.380356,42.6182574 197.925103,42.6182574 C200.628411,42.6182574 203.124795,42.976854 205.414331,43.694058 C207.703867,44.4112621 209.689941,45.5422207 211.372612,47.0869679 C213.055283,48.631715 214.36554,50.6177887 215.303422,53.0452485 C216.241304,55.4727083 216.710238,58.3690658 216.710238,61.7344078 C216.710238,63.996359 216.503355,66.4375745 216.089584,69.0581277 C215.675812,71.6786809 215.179294,74.3543635 214.600014,77.0852558 C214.020734,79.8161481 213.372501,82.5332072 212.655297,85.2365147 C211.938093,87.9398223 211.289861,90.5327518 210.710581,93.0153811 C210.1313,95.4980105 209.634782,97.8013043 209.22101,99.9253316 C208.807239,102.049359 208.600356,103.911303 208.600356,105.51122 C208.600356,107.607662 209.083082,109.317892 210.048549,110.641961 C211.014016,111.96603 212.793207,112.628055 215.386176,112.628055 C217.206771,112.628055 218.806663,112.269458 220.185902,111.552254 C221.56514,110.83505 222.806436,109.814429 223.909827,108.49036 C225.013218,107.166291 226.020047,105.580191 226.930345,103.732011 C227.840642,101.883831 228.737134,99.8563811 229.619846,97.6495994 L236.736681,97.6495994 Z M293.318127,97.6495994 C291.718211,102.228671 289.93902,106.200819 287.980501,109.566161 C286.021982,112.931503 283.98074,115.772691 281.856712,118.089812 C279.732685,120.406933 277.553521,122.282669 275.319155,123.717077 C273.084788,125.151485 270.919416,126.25486 268.822974,127.027233 C266.726531,127.799607 264.726665,128.323709 262.823316,128.599557 C260.919967,128.875405 259.223529,129.013327 257.733951,129.013327 C255.196152,129.013327 252.823898,128.627146 250.617116,127.854772 C248.410334,127.082399 246.493222,125.868687 244.86572,124.213601 C243.238219,122.558514 241.955546,120.462103 241.017664,117.924304 C240.079782,115.386505 239.610848,112.324642 239.610848,108.738622 C239.610848,107.193875 239.721185,105.497437 239.941863,103.649257 C240.162541,101.801077 240.493554,99.8012115 240.93491,97.6495994 L252.437702,43.2802886 L276.850102,43.2802886 L264.685279,100.877001 C264.409431,101.814884 264.230133,102.73896 264.147378,103.649257 C264.064624,104.559554 264.023247,105.456046 264.023247,106.338759 C264.023247,108.711049 264.574935,110.352318 265.678325,111.262616 C266.781716,112.172913 268.519531,112.628055 270.891821,112.628055 C272.546907,112.628055 274.160592,112.255666 275.732924,111.510877 C277.305256,110.766088 278.753435,109.731675 280.077504,108.407606 C281.401573,107.083537 282.5877,105.497437 283.635921,103.649257 C284.684143,101.801077 285.539258,99.8012115 286.201292,97.6495994 L293.318127,97.6495994 Z M349.899573,97.6495994 C348.299656,102.228671 346.520465,106.200819 344.561947,109.566161 C342.603428,112.931503 340.562186,115.772691 338.438158,118.089812 C336.314131,120.406933 334.134967,122.282669 331.9006,123.717077 C329.666234,125.151485 327.500862,126.25486 325.404419,127.027233 C323.307977,127.799607 321.308111,128.323709 319.404762,128.599557 C317.501413,128.875405 315.804975,129.013327 314.315397,129.013327 C311.777598,129.013327 309.405344,128.627146 307.198562,127.854772 C304.99178,127.082399 303.074667,125.868687 301.447166,124.213601 C299.819665,122.558514 298.536992,120.462103 297.59911,117.924304 C296.661228,115.386505 296.192293,112.324642 296.192293,108.738622 C296.192293,107.193875 296.302631,105.497437 296.523309,103.649257 C296.743987,101.801077 297.075,99.8012115 297.516356,97.6495994 L307.695085,50.0661082 L302.06782,50.0661082 L303.474636,43.2802886 L309.019148,43.2802886 L314.149889,19.8609355 L339.22432,16.4680257 L333.431547,43.2802886 L343.610277,43.2802886 L342.286215,50.0661082 L332.107485,50.0661082 L321.266725,100.877001 C320.990877,101.814884 320.811578,102.73896 320.728824,103.649257 C320.64607,104.559554 320.604693,105.456046 320.604693,106.338759 C320.604693,108.711049 321.15638,110.352318 322.259771,111.262616 C323.363162,112.172913 325.100977,112.628055 327.473267,112.628055 C329.128353,112.628055 330.742038,112.255666 332.31437,111.510877 C333.886702,110.766088 335.334881,109.731675 336.65895,108.407606 C337.983018,107.083537 339.169146,105.497437 340.217367,103.649257 C341.265588,101.801077 342.120703,99.8012115 342.782738,97.6495994 L349.899573,97.6495994 Z M406.481019,97.6495994 C404.881102,102.228671 403.101911,106.200819 401.143393,109.566161 C399.184874,112.931503 397.143632,115.772691 395.019604,118.089812 C392.895577,120.406933 390.716413,122.282669 388.482046,123.717077 C386.24768,125.151485 384.082308,126.25486 381.985865,127.027233 C379.889423,127.799607 377.889557,128.323709 375.986208,128.599557 C374.082859,128.875405 372.386421,129.013327 370.896843,129.013327 C368.359044,129.013327 365.986789,128.627146 363.780008,127.854772 C361.573226,127.082399 359.656113,125.868687 358.028612,124.213601 C356.40111,122.558514 355.118438,120.462103 354.180556,117.924304 C353.242673,115.386505 352.773739,112.324642 352.773739,108.738622 C352.773739,107.193875 352.884077,105.497437 353.104755,103.649257 C353.325433,101.801077 353.656445,99.8012115 354.097802,97.6495994 L364.276531,50.0661082 L358.649266,50.0661082 L360.056082,43.2802886 L365.600594,43.2802886 L370.731335,19.8609355 L395.805766,16.4680257 L390.012993,43.2802886 L400.191723,43.2802886 L398.86766,50.0661082 L388.688931,50.0661082 L377.84817,100.877001 C377.572323,101.814884 377.393024,102.73896 377.31027,103.649257 C377.227516,104.559554 377.186139,105.456046 377.186139,106.338759 C377.186139,108.711049 377.737826,110.352318 378.841217,111.262616 C379.944608,112.172913 381.682422,112.628055 384.054713,112.628055 C385.709799,112.628055 387.323484,112.255666 388.895816,111.510877 C390.468148,110.766088 391.916326,109.731675 393.240395,108.407606 C394.564464,107.083537 395.750592,105.497437 396.798813,103.649257 C397.847034,101.801077 398.702149,99.8012115 399.364184,97.6495994 L406.481019,97.6495994 Z M481.516584,97.6495994 C479.144294,101.621806 476.427235,105.483616 473.365325,109.235145 C470.303416,112.986674 466.855371,116.324381 463.021088,119.248367 C459.186805,122.172352 454.938814,124.530815 450.276988,126.323825 C445.615161,128.116835 440.498263,129.013327 434.92614,129.013327 C430.898763,129.013327 427.257628,128.503016 424.002625,127.48238 C420.747622,126.461743 417.961602,124.875643 415.644481,122.72403 C413.327361,120.572418 411.54817,117.800191 410.306855,114.407264 C409.06554,111.014337 408.444892,106.91806 408.444892,102.11831 C408.444892,98.863307 408.775905,95.1118345 409.437939,90.8637798 C410.099974,86.6157251 411.148179,82.2573968 412.582587,77.7886639 C414.016995,73.3199311 415.920316,68.9340184 418.292606,64.6307942 C420.664896,60.32757 423.53367,56.4795522 426.899012,53.0866254 C430.264354,49.6936987 434.208917,46.9628474 438.732819,44.8939896 C443.256721,42.8251318 448.414996,41.7907184 454.207798,41.7907184 C458.014496,41.7907184 461.117736,42.2458603 463.517611,43.1561577 C465.917486,44.0664551 467.820807,45.2663747 469.22763,46.7559523 C470.634454,48.2455299 471.599906,49.9695522 472.124017,51.9280709 C472.648127,53.8865896 472.910179,55.9140398 472.910179,58.0104824 C472.910179,62.9205715 471.834389,67.4857826 469.682777,71.7062525 C467.531165,75.9267223 464.648599,79.609234 461.034994,82.7538978 C457.421389,85.8985617 453.269944,88.4363225 448.580533,90.3672564 C443.891122,92.2981903 439.008691,93.429149 433.933093,93.7601662 C433.822754,95.0290657 433.726209,96.2289852 433.643454,97.3599608 C433.5607,98.4909364 433.519323,99.5529341 433.519323,100.545986 C433.519323,103.414802 433.781375,105.773264 434.305485,107.621444 C434.829596,109.469624 435.601958,110.917802 436.622595,111.966024 C437.643231,113.014245 438.912111,113.74523 440.429274,114.159002 C441.946436,114.572774 443.725627,114.779656 445.7669,114.779656 C449.132242,114.779656 452.180314,114.338307 454.911206,113.455594 C457.642098,112.572881 460.193651,111.35917 462.565942,109.814422 C464.938232,108.269675 467.186357,106.449108 469.310384,104.352665 C471.434412,102.256223 473.572199,100.02189 475.723811,97.6495994 L481.516584,97.6495994 Z M435.257155,85.6502842 C438.456989,85.4296061 441.546437,84.5193223 444.525592,82.9194056 C447.504747,81.3194889 450.125261,79.23687 452.387212,76.6714863 C454.649163,74.1061027 456.455939,71.1821608 457.807592,67.8995732 C459.159246,64.6169855 459.835063,61.2103174 459.835063,57.6794668 C459.835063,55.5830242 459.531635,53.9003785 458.92477,52.631479 C458.317905,51.3625796 457.214531,50.7281394 455.614614,50.7281394 C453.463002,50.7281394 451.352799,51.7625527 449.283941,53.8314105 C447.215083,55.9002683 445.270386,58.5897431 443.449791,61.8999156 C441.629196,65.210088 440.015511,68.9477684 438.608688,73.1130687 C437.201865,77.2783691 436.084698,81.4573991 435.257155,85.6502842 Z M480.584071,128.02028 L498.541667,43.2802886 L522.954067,43.2802886 L521.133481,52.0522017 C522.954076,50.0109287 524.760851,48.3696595 526.553861,47.1283448 C528.346871,45.8870301 530.098478,44.9353698 531.808734,44.2733353 C533.51899,43.6113008 535.132674,43.1699511 536.649837,42.949273 C538.166999,42.7285948 539.587594,42.6182574 540.911663,42.6182574 C543.61497,42.6182574 546.125146,42.976854 548.442267,43.694058 C550.759388,44.4112621 552.759254,45.5422207 554.441925,47.0869679 C556.124596,48.631715 557.434853,50.6177887 558.372735,53.0452485 C559.310617,55.4727083 559.779551,58.3690658 559.779551,61.7344078 C559.779551,63.996359 559.572669,66.4375745 559.158897,69.0581277 C558.745125,71.6786809 558.234815,74.3543635 557.62795,77.0852558 C557.021085,79.8161481 556.372853,82.5332072 555.683233,85.2365147 C554.993614,87.9398223 554.345382,90.5327518 553.738517,93.0153811 C553.131652,95.4980105 552.621341,97.8013043 552.20757,99.9253316 C551.793798,102.049359 551.586915,103.911303 551.586915,105.51122 C551.586915,107.607662 552.069642,109.317892 553.035109,110.641961 C554.000576,111.96603 555.779767,112.628055 558.372735,112.628055 C561.186382,112.628055 563.062118,112.269458 564,111.552254 C563.613813,114.641749 562.841451,117.276055 561.682891,119.455251 C560.52433,121.634448 559.117528,123.441224 557.462442,124.875632 C555.807356,126.31004 553.93162,127.358245 551.835177,128.02028 C549.738734,128.682314 547.587155,129.013327 545.380373,129.013327 C542.12537,129.013327 539.394519,128.475432 537.187737,127.399626 C534.980955,126.32382 533.215557,124.889433 531.891488,123.096423 C530.567419,121.303413 529.629551,119.262171 529.077855,116.972635 C528.52616,114.683099 528.250316,112.324636 528.250316,109.897176 C528.250316,107.02836 528.650289,103.676861 529.450248,99.8425777 C530.250206,96.0082946 531.119113,92.0775238 532.056995,88.0501473 C532.994878,84.0227708 533.863785,80.1333765 534.663743,76.3818477 C535.463702,72.6303189 535.863675,69.4029491 535.863675,66.6996416 C535.863675,60.9068398 533.822432,58.0104824 529.739886,58.0104824 C528.195139,58.0104824 526.760753,58.4242477 525.436684,59.2517908 C524.112615,60.079334 522.898903,61.1965004 521.795512,62.6033237 C520.692121,64.010147 519.699084,65.6652084 518.816372,67.5685576 C517.933659,69.4719067 517.161297,71.499357 516.499263,73.6509691 L504.996471,128.02028 L480.584071,128.02028 Z" id="Smitten"></path>
                    </g>
                </g>
            </g>
        </g>
    </g>
</svg>