<?xml version="1.0" encoding="UTF-8"?>
<svg width="47px" height="42px" viewBox="0 0 47 42" version="1.1" xmlns="http://www.w3.org/2000/svg" xmlns:xlink="http://www.w3.org/1999/xlink">
    <!-- Generator: Sketch 42 (36781) - http://www.bohemiancoding.com/sketch -->
    <title>Switch Camera</title>
    <desc>Created with Sketch.</desc>
    <defs></defs>
    <g id="Page-1" stroke="none" stroke-width="1" fill="none" fill-rule="evenodd">
        <g id="design-language" transform="translate(-4257.000000, -752.000000)" stroke="#FFFFFF" stroke-width="2">
            <path d="M4263.98176,775.017571 C4263.98652,775.017571 4263.98652,775.017571 4263.98176,775.0225 C4263.99919,775.145714 4264.0087,775.267286 4264.0087,775.393786 C4264.0087,776.384429 4263.54612,777.261714 4262.83325,777.810429 C4262.3485,778.191571 4261.74019,778.411714 4261.08593,778.411714 C4259.69663,778.411714 4258.53544,777.407929 4258.24079,776.065714 C4258.22178,775.962214 4258.20436,775.855429 4258.1901,775.747 C4258.06337,774.955143 4258,774.143571 4258,773.317214 C4258,764.999429 4264.52196,758.257143 4272.56788,758.257143 L4283.99438,758.257143 C4284.03081,758.262071 4284.06725,758.262071 4284.10844,758.262071 C4284.14487,758.262071 4284.18606,758.262071 4284.2225,758.257143 C4284.94804,758.201286 4285.52309,757.604929 4285.58804,756.859071 C4285.59121,756.816357 4285.59121,756.770357 4285.59121,756.722714 C4285.59121,756.675071 4285.59121,756.632357 4285.58804,756.586357 L4285.58804,753.7705 C4285.58804,753.346643 4285.92388,753 4286.33259,753 C4286.48625,753 4286.62724,753.047643 4286.74605,753.131429 L4286.75081,753.131429 L4295.66009,760.038 C4296.02286,760.318929 4296.2589,760.765786 4296.2589,761.271786 C4296.2589,761.731786 4296.06405,762.145786 4295.75038,762.426714 L4295.57296,762.563071 L4286.84586,769.328357 L4286.69536,769.445 C4286.69061,769.449929 4286.69061,769.449929 4286.68586,769.449929 C4286.58289,769.510714 4286.45932,769.543571 4286.33259,769.543571 C4285.92388,769.543571 4285.58804,769.201857 4285.58804,768.774714 L4285.58804,765.926 C4285.59121,765.884929 4285.59121,765.702571 4285.58804,765.654929 C4285.52942,764.964929 4285.03042,764.406357 4284.38091,764.279857 C4284.29062,764.265071 4283.92309,764.265071 4283.83596,764.279857 L4272.56788,764.279857 C4267.74255,764.279857 4263.82652,768.327857 4263.82652,773.315571 C4263.82652,773.798571 4263.86295,774.271714 4263.93582,774.736643 C4263.95008,774.830286 4263.96275,774.923929 4263.98176,775.017571 Z M4302.16621,769.678286 C4302.28977,770.471786 4302.35155,771.283357 4302.34997,772.1015 C4302.34997,780.419286 4295.82959,787.161571 4287.78209,787.161571 L4276.36034,787.161571 C4276.31915,787.156643 4276.28272,787.156643 4276.24628,787.156643 C4276.2051,787.156643 4276.16866,787.156643 4276.12906,787.161571 C4275.40827,787.217429 4274.82688,787.813786 4274.76352,788.559643 C4274.75876,788.602357 4274.75876,788.648357 4274.75876,788.696 C4274.75876,788.738714 4274.75876,788.784714 4274.76352,788.832357 L4274.76352,791.648214 C4274.76352,792.070429 4274.43243,792.417071 4274.01896,792.417071 C4273.86847,792.417071 4273.72273,792.366143 4273.6055,792.280714 L4273.60075,792.285643 L4264.69147,785.379071 C4264.32869,785.098143 4264.09266,784.652929 4264.09266,784.145286 C4264.09266,783.686929 4264.29226,783.272929 4264.60592,782.992 L4264.78335,782.852357 L4273.5057,776.092 L4273.65936,775.970429 C4273.65936,775.970429 4273.66411,775.970429 4273.66411,775.967143 C4273.77342,775.911286 4273.89065,775.878429 4274.01896,775.878429 C4274.43243,775.878429 4274.76352,776.221786 4274.76352,776.648929 L4274.76352,779.496 C4274.75876,779.538714 4274.75876,779.584714 4274.75876,779.632357 C4274.75876,779.675071 4274.75876,779.721071 4274.76352,779.768714 C4274.82213,780.458714 4275.32114,781.017286 4275.97064,781.143786 C4276.06252,781.156929 4276.15282,781.166786 4276.24787,781.166786 C4276.33975,781.166786 4276.43004,781.156929 4276.52034,781.143786 L4287.78367,781.143786 C4292.61376,781.143786 4296.52504,777.095786 4296.52504,772.108071 C4296.52504,771.625071 4296.4886,771.151929 4296.41573,770.687 C4296.40306,770.593357 4296.3888,770.499714 4296.37137,770.406071 L4296.37137,770.401143 C4296.35712,770.277929 4296.34761,770.156357 4296.34761,770.029857 C4296.34761,769.039214 4296.80543,768.161929 4297.5183,767.613214 C4298.00939,767.233714 4298.61137,767.013571 4299.26562,767.013571 C4300.65492,767.013571 4301.81611,768.012429 4302.11076,769.354643 C4302.12977,769.463071 4302.1472,769.5715 4302.16621,769.678286 Z" id="Switch-Camera"></path>
        </g>
    </g>
</svg>