<?xml version="1.0" encoding="UTF-8"?>
<svg width="278px" height="221px" viewBox="0 0 278 221" version="1.1" xmlns="http://www.w3.org/2000/svg" xmlns:xlink="http://www.w3.org/1999/xlink">
    <!-- Generator: Sketch 42 (36781) - http://www.bohemiancoding.com/sketch -->
    <title>message icon</title>
    <desc>Created with Sketch.</desc>
    <defs>
        <linearGradient x1="50%" y1="0%" x2="50%" y2="50%" id="linearGradient-1">
            <stop stop-color="#FFB8FF" offset="0%"></stop>
            <stop stop-color="#B252B2" offset="100%"></stop>
        </linearGradient>
    </defs>
    <g id="Page-1" stroke="none" stroke-width="1" fill="none" fill-rule="evenodd">
        <g id="note-BB" transform="translate(-534.000000, -1110.000000)">
            <g id="Group-3" transform="translate(136.000000, 754.000000)">
                <g id="message-icon" transform="translate(537.000000, 466.500000) scale(-1, 1) translate(-537.000000, -466.500000) translate(398.000000, 356.000000)">
                    <path d="M35.1776743,220.597551 L35.1776743,220.597551 C32.6201195,220.597551 30.9934063,217.794286 32.1953666,215.499864 L57.6127613,166.114286 C21.4455031,148.767347 0,121.28517 0,91.7028571 C0,41.1469388 62.3257111,0 138.948424,0 C215.571138,0 277.896849,41.1469388 277.896849,91.7028571 C277.896849,142.244898 215.571138,183.391837 138.948424,183.391837 C128.885395,183.391837 118.84496,182.684082 108.890378,181.240816 L36.7682383,220.181224 C36.2711871,220.449524 35.7244307,220.597551 35.1776743,220.597551 Z M138.948424,6.93877551 C66.0852262,6.93877551 6.77797192,45.1020408 6.77797192,91.7028571 C6.77797192,119.457959 28.0653224,145.371973 63.6858241,161.308027 C65.484246,162.122177 66.2253043,164.328707 65.3080188,166.095782 L43.3157592,208.834014 L106.716909,174.588844 C107.354038,174.246531 108.077022,174.140136 108.781931,174.246531 C118.772661,175.745306 128.853765,176.503946 138.948424,176.503946 C211.811622,176.503946 271.118877,138.34068 271.118877,91.7398639 C271.118877,45.157551 211.811622,6.93877551 138.948424,6.93877551 Z" id="Fill-1" fill="#4A4A4A"></path>
                    <path d="M140.726043,119.786395 L140.726043,119.786395 C119.596846,119.786395 109.005135,93.6179592 123.957341,78.3341497 C138.891472,63.0272109 164.448945,73.8702041 164.448945,95.5006803 C164.448945,108.906395 153.821085,119.786395 140.726043,119.786395 Z M140.726043,78.1537415 L140.726043,78.1537415 C125.633759,78.1537415 118.060505,96.837551 128.742589,107.768435 C139.420154,118.69932 157.670973,110.946395 157.670973,95.5006803 C157.670973,85.9205442 150.079645,78.1537415 140.726043,78.1537415 Z" id="Fill-2" stroke="#000000" stroke-width="0.1" fill="url(#linearGradient-1)"></path>
                    <path d="M204.642319,119.786395 L204.642319,119.786395 C183.513121,119.786395 172.92141,93.6179592 187.873616,78.3341497 C202.803229,63.0272109 228.36522,73.8702041 228.36522,95.5006803 C228.36522,108.906395 217.73736,119.786395 204.642319,119.786395 Z M204.642319,78.1537415 L204.642319,78.1537415 C189.550034,78.1537415 181.97678,96.837551 192.654346,107.768435 C203.331911,118.69932 221.587248,110.946395 221.587248,95.5006803 C221.587248,85.9205442 213.99592,78.1537415 204.642319,78.1537415 Z" id="Fill-3" stroke="#000000" stroke-width="0.1" fill="url(#linearGradient-1)"></path>
                    <path d="M76.8097682,119.786395 L76.8097682,119.786395 C55.685089,119.786395 45.0933783,93.6179592 60.0455843,78.3341497 C74.9751971,63.0272109 100.53267,73.8702041 100.53267,95.5006803 C100.53267,108.906395 89.9093286,119.786395 76.8097682,119.786395 Z M76.8097682,78.1537415 L76.8097682,78.1537415 C61.7220027,78.1537415 54.1487487,96.837551 64.8263138,107.768435 C75.5038789,118.69932 93.754698,110.946395 93.754698,95.5006803 C93.754698,85.9205442 86.1678881,78.1537415 76.8097682,78.1537415 Z" id="Fill-4" stroke="#000000" stroke-width="0.1" fill="url(#linearGradient-1)"></path>
                </g>
            </g>
        </g>
    </g>
</svg>