<?xml version="1.0" encoding="UTF-8"?>
<svg width="278px" height="221px" viewBox="0 0 278 221" version="1.1" xmlns="http://www.w3.org/2000/svg" xmlns:xlink="http://www.w3.org/1999/xlink">
    <!-- Generator: Sketch 42 (36781) - http://www.bohemiancoding.com/sketch -->
    <title>message icon</title>
    <desc>Created with Sketch.</desc>
    <defs>
        <linearGradient x1="50%" y1="0%" x2="50%" y2="68.3035272%" id="linearGradient-1">
            <stop stop-color="#AAB0F7" offset="0%"></stop>
            <stop stop-color="#2F3DF0" offset="100%"></stop>
        </linearGradient>
    </defs>
    <g id="Page-1" stroke="none" stroke-width="1" fill="none" fill-rule="evenodd">
        <g id="note-BB" transform="translate(-237.000000, -443.000000)">
            <g id="message-icon" transform="translate(237.000000, 443.000000)">
                <path d="M35.1790204,220.597551 L35.1790204,220.597551 C32.6213678,220.597551 30.9945923,217.794286 32.1965986,215.499864 L57.614966,166.114286 C21.4463238,148.767347 0,121.28517 0,91.7028571 C0,41.1469388 62.3280961,0 138.953741,0 C215.579387,0 277.907483,41.1469388 277.907483,91.7028571 C277.907483,142.244898 215.579387,183.391837 138.953741,183.391837 C128.890327,183.391837 118.849507,182.684082 108.894545,181.240816 L36.7696454,220.181224 C36.2725751,220.449524 35.7257977,220.597551 35.1790204,220.597551 Z M138.953741,6.93877551 C66.0877551,6.93877551 6.77823129,45.1020408 6.77823129,91.7028571 C6.77823129,119.457959 28.0663964,145.371973 63.6882612,161.308027 C65.4867519,162.122177 66.2278385,164.328707 65.3105179,166.095782 L43.3174168,208.834014 L106.720992,174.588844 C107.358146,174.246531 108.081157,174.140136 108.786093,174.246531 C118.777206,175.745306 128.858696,176.503946 138.953741,176.503946 C211.819728,176.503946 271.129252,138.34068 271.129252,91.7398639 C271.129252,45.157551 211.819728,6.93877551 138.953741,6.93877551 Z" id="Fill-1" fill="#4A4A4A"></path>
                <path d="M140.731429,119.786395 L140.731429,119.786395 C119.601422,119.786395 109.009306,93.6179592 123.962084,78.3341497 C138.896787,63.0272109 164.455238,73.8702041 164.455238,95.5006803 C164.455238,108.906395 153.826971,119.786395 140.731429,119.786395 Z M140.731429,78.1537415 L140.731429,78.1537415 C125.638567,78.1537415 118.065023,96.837551 128.747516,107.768435 C139.425489,118.69932 157.677007,110.946395 157.677007,95.5006803 C157.677007,85.9205442 150.085388,78.1537415 140.731429,78.1537415 Z" id="Fill-2" stroke="#000000" stroke-width="0.1" fill="url(#linearGradient-1)"></path>
                <path d="M204.65015,119.786395 L204.65015,119.786395 C183.520143,119.786395 172.928027,93.6179592 187.880805,78.3341497 C202.81099,63.0272109 228.373959,73.8702041 228.373959,95.5006803 C228.373959,108.906395 217.745693,119.786395 204.65015,119.786395 Z M204.65015,78.1537415 L204.65015,78.1537415 C189.557288,78.1537415 181.983744,96.837551 192.661718,107.768435 C203.339692,118.69932 221.595728,110.946395 221.595728,95.5006803 C221.595728,85.9205442 214.004109,78.1537415 204.65015,78.1537415 Z" id="Fill-3" stroke="#000000" stroke-width="0.1" fill="url(#linearGradient-1)"></path>
                <path d="M76.8127075,119.786395 L76.8127075,119.786395 C55.68722,119.786395 45.0951039,93.6179592 60.0478821,78.3341497 C74.9780662,63.0272109 100.536517,73.8702041 100.536517,95.5006803 C100.536517,108.906395 89.9127692,119.786395 76.8127075,119.786395 Z M76.8127075,78.1537415 L76.8127075,78.1537415 C61.7243646,78.1537415 54.1508209,96.837551 64.8287946,107.768435 C75.5067683,118.69932 93.7582857,110.946395 93.7582857,95.5006803 C93.7582857,85.9205442 86.1711855,78.1537415 76.8127075,78.1537415 Z" id="Fill-4" stroke="#000000" stroke-width="0.1" fill="url(#linearGradient-1)"></path>
            </g>
        </g>
    </g>
</svg>