<?xml version="1.0" encoding="UTF-8"?>
<svg width="66px" height="57px" viewBox="0 0 66 57" version="1.1" xmlns="http://www.w3.org/2000/svg" xmlns:xlink="http://www.w3.org/1999/xlink">
    <!-- Generator: Sketch 42 (36781) - http://www.bohemiancoding.com/sketch -->
    <title>upload icon</title>
    <desc>Created with Sketch.</desc>
    <defs></defs>
    <g id="Page-1" stroke="none" stroke-width="1" fill="none" fill-rule="evenodd">
        <g id="design-language" transform="translate(-4212.000000, -1085.000000)" fill-rule="nonzero" fill="#FFFFFF">
            <g id="upload-icon" transform="translate(4212.000000, 1085.000000)">
                <g id="Group">
                    <g id="Shape">
                        <path d="M63.7802527,37.3762343 C62.9208777,37.3762343 62.2224069,38.0833259 62.2224069,38.9533076 L62.2224069,53.7466998 L3.60206117,53.7466998 L3.60206117,38.9533076 C3.60206117,38.0833259 2.90359043,37.3762343 2.04421543,37.3762343 C1.18484043,37.3762343 0.486369681,38.0833259 0.486369681,38.9533076 L0.486369681,55.3200711 C0.486369681,56.1900529 1.18484043,56.8971444 2.04421543,56.8971444 L63.7765957,56.8971444 C64.6359707,56.8971444 65.3344415,56.1900529 65.3344415,55.3200711 L65.3344415,38.9533076 C65.3344415,38.0833259 64.6396277,37.3762343 63.7802527,37.3762343 Z"></path>
                        <path d="M33.2583549,48.5348022 C34.1177299,48.5348022 34.8162006,47.8277107 34.8162006,46.9577289 L34.8162006,16.2418193 L41.9727831,16.2418193 C42.5469187,16.2418193 43.0771714,15.9197409 43.3477831,15.4051559 C43.6183948,14.890571 43.5854825,14.2686266 43.2673309,13.783658 L34.5529028,0.652486329 C33.9751102,-0.217495443 32.5489134,-0.217495443 31.9674639,0.652486329 L23.2493788,13.7873601 C22.9312272,14.2686266 22.898315,14.894273 23.1689267,15.4051559 C23.4395384,15.9197409 23.9697911,16.2418193 24.5439267,16.2418193 L31.7005091,16.2418193 L31.7005091,46.9614309 C31.7005091,47.8314127 32.3989799,48.5348022 33.2583549,48.5348022 Z M33.2583549,4.36194052 L39.0509081,13.0913746 L27.4658017,13.0913746 L33.2583549,4.36194052 Z"></path>
                        <path d="M63.7802527,37.3762343 C62.9208777,37.3762343 62.2224069,38.0833259 62.2224069,38.9533076 L62.2224069,53.7466998 L3.60206117,53.7466998 L3.60206117,38.9533076 C3.60206117,38.0833259 2.90359043,37.3762343 2.04421543,37.3762343 C1.18484043,37.3762343 0.486369681,38.0833259 0.486369681,38.9533076 L0.486369681,55.3200711 C0.486369681,56.1900529 1.18484043,56.8971444 2.04421543,56.8971444 L63.7765957,56.8971444 C64.6359707,56.8971444 65.3344415,56.1900529 65.3344415,55.3200711 L65.3344415,38.9533076 C65.3344415,38.0833259 64.6396277,37.3762343 63.7802527,37.3762343 Z"></path>
                        <path d="M33.2583549,48.5348022 C34.1177299,48.5348022 34.8162006,47.8277107 34.8162006,46.9577289 L34.8162006,16.2418193 L41.9727831,16.2418193 C42.5469187,16.2418193 43.0771714,15.9197409 43.3477831,15.4051559 C43.6183948,14.890571 43.5854825,14.2686266 43.2673309,13.783658 L34.5529028,0.652486329 C33.9751102,-0.217495443 32.5489134,-0.217495443 31.9674639,0.652486329 L23.2493788,13.7873601 C22.9312272,14.2686266 22.898315,14.894273 23.1689267,15.4051559 C23.4395384,15.9197409 23.9697911,16.2418193 24.5439267,16.2418193 L31.7005091,16.2418193 L31.7005091,46.9614309 C31.7005091,47.8314127 32.3989799,48.5348022 33.2583549,48.5348022 Z M33.2583549,4.36194052 L39.0509081,13.0913746 L27.4658017,13.0913746 L33.2583549,4.36194052 Z"></path>
                    </g>
                </g>
            </g>
        </g>
    </g>
</svg>