<?xml version="1.0" encoding="UTF-8"?>
<svg width="51px" height="41px" viewBox="0 0 51 41" version="1.1" xmlns="http://www.w3.org/2000/svg" xmlns:xlink="http://www.w3.org/1999/xlink">
    <!-- Generator: Sketch 42 (36781) - http://www.bohemiancoding.com/sketch -->
    <title>message icon</title>
    <desc>Created with Sketch.</desc>
    <defs></defs>
    <g id="Page-1" stroke="none" stroke-width="1" fill="none" fill-rule="evenodd">
        <g id="design-language" transform="translate(-5347.000000, -1344.000000)" stroke="#000000" fill="#000000">
            <g id="message-icon" transform="translate(5348.000000, 1345.000000)">
                <path d="M6.23741497,38.9289796 L6.23741497,38.9289796 C5.78393046,38.9289796 5.49549509,38.4342857 5.70861678,38.0293878 L10.2154195,29.3142857 C3.80253968,26.2530612 0,21.4032653 0,16.1828571 C0,7.26122449 11.0510809,0 24.6371882,0 C38.2232955,0 49.2743764,7.26122449 49.2743764,16.1828571 C49.2743764,25.1020408 38.2232955,32.3632653 24.6371882,32.3632653 C22.8528949,32.3632653 21.0726077,32.2383673 19.3075435,31.9836735 L6.51944067,38.8555102 C6.43130763,38.9028571 6.3343613,38.9289796 6.23741497,38.9289796 Z M24.6371882,1.2244898 C11.7176871,1.2244898 1.20181406,7.95918367 1.20181406,16.1828571 C1.20181406,21.0808163 4.97631141,25.6538776 11.2922449,28.4661224 C11.6111262,28.6097959 11.7425246,28.9991837 11.5798791,29.3110204 L7.68039305,36.8530612 L18.9221618,30.8097959 C19.0351323,30.7493878 19.1633258,30.7306122 19.2883144,30.7493878 C21.0597884,31.0138776 22.8472865,31.1477551 24.6371882,31.1477551 C37.5566893,31.1477551 48.0725624,24.4130612 48.0725624,16.1893878 C48.0725624,7.96897959 37.5566893,1.2244898 24.6371882,1.2244898 Z" id="Fill-1" stroke-width="0.5"></path>
                <path d="M24.952381,21.1387755 L24.952381,21.1387755 C21.2059259,21.1387755 19.3278912,16.5208163 21.979093,13.8236735 C24.6270899,11.122449 29.1587302,13.0359184 29.1587302,16.8530612 C29.1587302,19.2187755 27.2742857,21.1387755 24.952381,21.1387755 Z M24.952381,13.7918367 L24.952381,13.7918367 C22.2763416,13.7918367 20.9335147,17.0889796 22.8275737,19.0179592 C24.7208314,20.9469388 27.9569161,19.5787755 27.9569161,16.8530612 C27.9569161,15.162449 26.6108844,13.7918367 24.952381,13.7918367 Z" id="Fill-2" stroke-width="0.1"></path>
                <path d="M36.2854875,21.1387755 L36.2854875,21.1387755 C32.5390325,21.1387755 30.6609977,16.5208163 33.3121995,13.8236735 C35.9593953,11.122449 40.4918367,13.0359184 40.4918367,16.8530612 C40.4918367,19.2187755 38.6073923,21.1387755 36.2854875,21.1387755 Z M36.2854875,13.7918367 L36.2854875,13.7918367 C33.6094482,13.7918367 32.2666213,17.0889796 34.1598791,19.0179592 C36.0531368,20.9469388 39.2900227,19.5787755 39.2900227,16.8530612 C39.2900227,15.162449 37.9439909,13.7918367 36.2854875,13.7918367 Z" id="Fill-3" stroke-width="0.1"></path>
                <path d="M13.6192744,21.1387755 L13.6192744,21.1387755 C9.87362056,21.1387755 7.99558579,16.5208163 10.6467876,13.8236735 C13.2939834,11.122449 17.8256236,13.0359184 17.8256236,16.8530612 C17.8256236,19.2187755 15.9419803,21.1387755 13.6192744,21.1387755 Z M13.6192744,13.7918367 L13.6192744,13.7918367 C10.9440363,13.7918367 9.60120937,17.0889796 11.4944671,19.0179592 C13.3877249,20.9469388 16.6238095,19.5787755 16.6238095,16.8530612 C16.6238095,15.162449 15.278579,13.7918367 13.6192744,13.7918367 Z" id="Fill-4" stroke-width="0.1"></path>
            </g>
        </g>
    </g>
</svg>