<?xml version="1.0" encoding="UTF-8"?>
<svg width="51px" height="41px" viewBox="0 0 51 41" version="1.1" xmlns="http://www.w3.org/2000/svg" xmlns:xlink="http://www.w3.org/1999/xlink">
    <!-- Generator: Sketch 42 (36781) - http://www.bohemiancoding.com/sketch -->
    <title>message icon active</title>
    <desc>Created with Sketch.</desc>
    <defs></defs>
    <g id="Page-1" stroke="none" stroke-width="1" fill="none" fill-rule="evenodd">
        <g id="design-language" transform="translate(-5362.000000, -1679.000000)">
            <g id="message-icon-active" transform="translate(5363.000000, 1680.000000)">
                <path d="M6.23741497,38.9289796 C5.78393046,38.9289796 5.49549509,38.4342857 5.70861678,38.0293878 L10.2154195,29.3142857 C3.80253968,26.2530612 0,21.4032653 0,16.1828571 C0,7.26122449 11.0510809,0 24.6371882,0 C38.2232955,0 49.2743764,7.26122449 49.2743764,16.1828571 C49.2743764,25.1020408 38.2232955,32.3632653 24.6371882,32.3632653 C22.8528949,32.3632653 21.0726077,32.2383673 19.3075435,31.9836735 L6.51944067,38.8555102 C6.43130763,38.9028571 6.3343613,38.9289796 6.23741497,38.9289796 Z" id="Fill-1" stroke="#4A4A4A" stroke-width="0.5" fill="#4A4A4A"></path>
                <path d="M25.2380952,21.1387755 L25.2380952,21.1387755 C21.4916402,21.1387755 19.6136054,16.5208163 22.2648073,13.8236735 C24.9128042,11.122449 29.4444444,13.0359184 29.4444444,16.8530612 C29.4444444,19.2187755 27.56,21.1387755 25.2380952,21.1387755 Z" id="Fill-2" stroke="#FFFFFF" stroke-width="0.1" fill="#FFFFFF"></path>
                <path d="M36.5712018,21.1387755 L36.5712018,21.1387755 C32.8247468,21.1387755 30.946712,16.5208163 33.5979138,13.8236735 C36.2451096,11.122449 40.777551,13.0359184 40.777551,16.8530612 C40.777551,19.2187755 38.8931066,21.1387755 36.5712018,21.1387755 Z" id="Fill-3" stroke="#FFFFFF" stroke-width="0.1" fill="#FFFFFF"></path>
                <path d="M13.9049887,21.1387755 C10.1593348,21.1387755 8.28130008,16.5208163 10.9325019,13.8236735 C13.5796977,11.122449 18.1113379,13.0359184 18.1113379,16.8530612 C18.1113379,19.2187755 16.2276946,21.1387755 13.9049887,21.1387755 Z" id="Fill-4" stroke="#FFFFFF" stroke-width="0.1" fill="#FFFFFF"></path>
            </g>
        </g>
    </g>
</svg>