<?xml version="1.0" encoding="UTF-8"?>
<svg width="64px" height="40px" viewBox="0 0 64 40" version="1.1" xmlns="http://www.w3.org/2000/svg" xmlns:xlink="http://www.w3.org/1999/xlink">
    <!-- Generator: Sketch 42 (36781) - http://www.bohemiancoding.com/sketch -->
    <title>people icon active</title>
    <desc>Created with Sketch.</desc>
    <defs></defs>
    <g id="Page-1" stroke="none" stroke-width="1" fill="none" fill-rule="evenodd">
        <g id="design-language" transform="translate(-4943.000000, -1679.000000)" fill-rule="nonzero" fill="#4A4A4A">
            <g id="people-icon-active" transform="translate(4943.000000, 1679.000000)">
                <path d="M32.0788099,22.6499964 C25.8498353,22.6499964 20.7832377,17.5697696 20.7832377,11.3254518 C20.7832377,5.08 25.8498353,0 32.0788099,0 C38.3077846,0 43.3743822,5.08022679 43.3743822,11.3254518 C43.3743822,17.5697696 38.3077846,22.6499964 32.0788099,22.6499964 Z" id="Shape"></path>
                <path d="M50.893716,39.6106196 L13.3201447,39.6106196 C12.8394965,39.6106196 12.4493233,39.2196411 12.4493233,38.7374946 L12.4493233,37.39515 C12.4493233,30.3269196 18.1838523,24.5769946 25.2336609,24.5769946 L38.980426,24.5769946 C46.0302346,24.5769946 51.7647636,30.3269196 51.7647636,37.39515 L51.7647636,38.7374946 C51.7645374,39.2198679 51.3743642,39.6106196 50.893716,39.6106196 Z M14.19074,37.8645964 L50.0228945,37.8645964 L14.19074,37.8645964 Z" id="Shape"></path>
                <path d="M51.4775494,26.2421031 C47.7073806,26.2421031 44.6407557,23.167229 44.6407557,19.3877734 C44.6407557,15.6076316 47.7073806,12.5328947 51.4775494,12.5328947 C55.2477183,12.5328947 58.3143431,15.6077688 58.3143431,19.3877734 C58.3143431,23.167229 55.2477183,26.2421031 51.4775494,26.2421031 Z M51.4775494,13.5896983 C48.2886702,13.5896983 45.6947711,16.1904589 45.6947711,19.3877734 C45.6947711,22.5842644 48.2886702,25.1851623 51.4775494,25.1851623 C54.6664286,25.1851623 57.2603277,22.5842644 57.2603277,19.3877734 C57.2603277,16.1904589 54.6664286,13.5896983 51.4775494,13.5896983 Z" id="Shape"></path>
                <path d="M51.4775494,13.5896983 C48.2886702,13.5896983 45.6947711,16.1904589 45.6947711,19.3877734 C45.6947711,22.5842644 48.2886702,25.1851623 51.4775494,25.1851623 C54.6664286,25.1851623 57.2603277,22.5842644 57.2603277,19.3877734 C57.2603277,16.1904589 54.6664286,13.5896983 51.4775494,13.5896983 Z" id="Shape"></path>
                <path d="M62.8655188,36.5077435 C62.8655188,36.5077435 54.6446196,36.5077435 50.6290513,36.5077435 C49.5093623,36.5077435 50.2233773,34.5213629 49.8945398,33.5271622 C49.5657024,32.5329615 45.2120832,27.4084441 46.7194253,27.4084441 L55.6548433,27.4084441 C59.9218328,27.4084441 63.3927319,30.8886619 63.3927319,35.1668013 L63.3927319,35.9792731 C63.392595,36.2712358 63.1564375,36.5077435 62.8655188,36.5077435 Z" id="Shape"></path>
                <path d="M12.0224506,26.2421031 C8.25228174,26.2421031 5.18565687,23.167229 5.18565687,19.3877734 C5.18565687,15.6076316 8.25228174,12.5328947 12.0224506,12.5328947 C15.7926194,12.5328947 18.8592443,15.6077688 18.8592443,19.3877734 C18.8592443,23.167229 15.7926194,26.2421031 12.0224506,26.2421031 Z M12.0224506,13.5896983 C8.83357144,13.5896983 6.23967227,16.1904589 6.23967227,19.3877734 C6.23967227,22.5842644 8.83357144,25.1851623 12.0224506,25.1851623 C15.2113298,25.1851623 17.8052289,22.5842644 17.8052289,19.3877734 C17.8052289,16.1904589 15.2113298,13.5896983 12.0224506,13.5896983 Z" id="Shape" transform="translate(12.022451, 19.387499) scale(-1, 1) translate(-12.022451, -19.387499) "></path>
                <path d="M16.568599,36.5077435 C16.568599,36.5077435 7.35324212,36.5077435 3.33767378,36.5077435 C2.21798483,36.5077435 3.92645745,34.5213629 3.59762001,33.5271622 C3.26878257,32.5329615 -0.469828971,27.4084441 1.0375131,27.4084441 L9.3579235,27.4084441 C13.624913,27.4084441 17.0958121,30.8886619 17.0958121,35.1668013 L17.0958121,35.9792731 C17.0956752,36.2712358 16.8595177,36.5077435 16.568599,36.5077435 Z M3.33767378,35.1669386 C3.33767378,35.1669386 3.99536539,35.4434114 4.33213148,35.4509399 C4.66889758,35.4584685 16.0415229,35.4509399 16.0415229,35.4509399 L16.0415229,35.1669386 C16.0415229,31.4714892 13.0434864,28.4655222 9.3577866,28.4655222 L1.03737619,28.4655222 C-0.8399813,28.4655222 0.530952456,29.8290446 1.60301235,31.5351715 C2.67507224,33.2412984 3.33767378,35.1669386 3.33767378,35.1669386 Z" id="Shape" transform="translate(8.601540, 31.958094) scale(-1, 1) translate(-8.601540, -31.958094) "></path>
                <path d="M12.0224506,13.5896983 C8.83357144,13.5896983 6.23967227,16.1904589 6.23967227,19.3877734 C6.23967227,22.5842644 8.83357144,25.1851623 12.0224506,25.1851623 C15.2113298,25.1851623 17.8052289,22.5842644 17.8052289,19.3877734 C17.8052289,16.1904589 15.2113298,13.5896983 12.0224506,13.5896983 Z" id="Shape" transform="translate(12.022451, 19.387430) scale(-1, 1) translate(-12.022451, -19.387430) "></path>
                <path d="M16.8732831,36.5077435 C16.8732831,36.5077435 7.65792617,36.5077435 3.64235782,36.5077435 C2.52266888,36.5077435 4.23114149,34.5213629 3.90230405,33.5271622 C3.57346661,32.5329615 -1.1015761,27.4084441 0.405765967,27.4084441 L9.66260755,27.4084441 C13.929597,27.4084441 17.4004961,30.8886619 17.4004961,35.1668013 L17.4004961,35.9792731 C17.4003592,36.2712358 17.1642017,36.5077435 16.8732831,36.5077435 Z M3.64235782,35.1669386 C3.64235782,35.1669386 4.30004943,35.4434114 4.63681553,35.4509399 C4.97358162,35.4584685 3.64235782,35.1669386 3.64235782,35.1669386 Z" id="Shape" transform="translate(8.753882, 31.958094) scale(-1, 1) translate(-8.753882, -31.958094) "></path>
            </g>
        </g>
    </g>
</svg>