<?xml version="1.0" encoding="UTF-8"?>
<svg width="155px" height="126px" viewBox="0 0 155 126" version="1.1" xmlns="http://www.w3.org/2000/svg" xmlns:xlink="http://www.w3.org/1999/xlink">
    <!-- Generator: Sketch 42 (36781) - http://www.bohemiancoding.com/sketch -->
    <title>purple heart (logo</title>
    <desc>Created with Sketch.</desc>
    <defs>
        <linearGradient x1="109.380394%" y1="15.1034387%" x2="-21.5399338%" y2="73.2502604%" id="linearGradient-1">
            <stop stop-color="#E4A8E2" offset="0%"></stop>
            <stop stop-color="#CC61C8" offset="13.5860127%"></stop>
            <stop stop-color="#D94ED4" offset="49.6341333%"></stop>
            <stop stop-color="#771C73" offset="100%"></stop>
        </linearGradient>
    </defs>
    <g id="Page-1" stroke="none" stroke-width="1" fill="none" fill-rule="evenodd">
        <g id="design-language" transform="translate(-2120.000000, -1011.000000)">
            <g id="purple-heart-(logo" transform="translate(2121.000000, 1012.000000)">
                <path d="M120.595084,0.500957524 C105.872219,-0.286691664 99.1886341,3.58822321 95.6690724,5.5380055 C87.3665293,10.1374849 81.8288929,18.5270103 76.7832649,27.9756183 C69.8585908,18.0420924 65.7096598,10.3308181 56.5446851,4.98721174 C43.7652651,-2.46378434 29.6743741,0.978923164 29.6743741,0.978923164 C19.5030641,2.88031195 4.45743828,15.515089 2.16419792,28.8257849 C-0.892808093,42.9345839 -0.620160357,53.3883327 6.48348081,64.9737583 C9.18060981,69.3725429 16.3283004,75.6751896 22.8870779,78.6227089 C26.331211,80.1705047 32.2109659,84.54378 38.964217,88.3918636 C45.7174681,92.2399473 69.4723401,106.853661 76.7832649,124.483902 C83.3559559,98.0602195 117.054068,93.227397 137.241028,73.7504672 C157.837152,53.8834155 156.128935,32.9501511 145.470629,17.1338049 C140.805258,9.00140281 130.872029,0.978923164 120.595084,0.500957524 Z" id="Fill-1" stroke="#855883" fill="url(#linearGradient-1)" transform="translate(76.759721, 62.334359) rotate(360.000000) translate(-76.759721, -62.334359) "></path>
                <ellipse id="Oval" fill="#000000" transform="translate(57.426095, 48.720848) rotate(361.000000) translate(-57.426095, -48.720848) " cx="57.4260954" cy="48.720848" rx="8.89163457" ry="8.00767337"></ellipse>
                <ellipse id="Oval" fill="#000000" transform="translate(98.064838, 48.774381) rotate(361.000000) translate(-98.064838, -48.774381) " cx="98.0648384" cy="48.7743809" rx="8.89163457" ry="8.00767337"></ellipse>
                <path d="M80.9073506,81.7595338 C86.5633349,81.7595338 91.6307764,74.4817944 91.1484161,74.0384264 C90.6660558,73.5950585 86.5633349,75.0980313 80.9073506,75.0980313 C75.2513663,75.0980313 70.6662851,73.3170551 70.6662851,74.0384264 C70.6662851,74.7597977 75.2513663,81.7595338 80.9073506,81.7595338 Z" id="Oval-2" fill="#000000" transform="translate(80.923282, 77.812979) rotate(361.000000) translate(-80.923282, -77.812979) "></path>
            </g>
        </g>
    </g>
</svg>