<?xml version="1.0" encoding="UTF-8"?>
<svg width="47px" height="42px" viewBox="0 0 47 42" version="1.1" xmlns="http://www.w3.org/2000/svg" xmlns:xlink="http://www.w3.org/1999/xlink">
    <!-- Generator: Sketch 42 (36781) - http://www.bohemiancoding.com/sketch -->
    <title>Switch Camera</title>
    <desc>Created with Sketch.</desc>
    <defs></defs>
    <g id="Page-1" stroke="none" stroke-width="1" fill="none" fill-rule="evenodd">
        <g id="design-language" transform="translate(-4381.000000, -944.000000)" stroke="#FFFFFF" stroke-width="2" fill="#FFFFFF">
            <path d="M4387.98176,967.017571 C4387.98652,967.017571 4387.98652,967.017571 4387.98176,967.0225 C4387.99919,967.145714 4388.0087,967.267286 4388.0087,967.393786 C4388.0087,968.384429 4387.54612,969.261714 4386.83325,969.810429 C4386.3485,970.191571 4385.74019,970.411714 4385.08593,970.411714 C4383.69663,970.411714 4382.53544,969.407929 4382.24079,968.065714 C4382.22178,967.962214 4382.20436,967.855429 4382.1901,967.747 C4382.06337,966.955143 4382,966.143571 4382,965.317214 C4382,956.999429 4388.52196,950.257143 4396.56788,950.257143 L4407.99438,950.257143 C4408.03081,950.262071 4408.06725,950.262071 4408.10844,950.262071 C4408.14487,950.262071 4408.18606,950.262071 4408.2225,950.257143 C4408.94804,950.201286 4409.52309,949.604929 4409.58804,948.859071 C4409.59121,948.816357 4409.59121,948.770357 4409.59121,948.722714 C4409.59121,948.675071 4409.59121,948.632357 4409.58804,948.586357 L4409.58804,945.7705 C4409.58804,945.346643 4409.92388,945 4410.33259,945 C4410.48625,945 4410.62724,945.047643 4410.74605,945.131429 L4410.75081,945.131429 L4419.66009,952.038 C4420.02286,952.318929 4420.2589,952.765786 4420.2589,953.271786 C4420.2589,953.731786 4420.06405,954.145786 4419.75038,954.426714 L4419.57296,954.563071 L4410.84586,961.328357 L4410.69536,961.445 C4410.69061,961.449929 4410.69061,961.449929 4410.68586,961.449929 C4410.58289,961.510714 4410.45932,961.543571 4410.33259,961.543571 C4409.92388,961.543571 4409.58804,961.201857 4409.58804,960.774714 L4409.58804,957.926 C4409.59121,957.884929 4409.59121,957.702571 4409.58804,957.654929 C4409.52942,956.964929 4409.03042,956.406357 4408.38091,956.279857 C4408.29062,956.265071 4407.92309,956.265071 4407.83596,956.279857 L4396.56788,956.279857 C4391.74255,956.279857 4387.82652,960.327857 4387.82652,965.315571 C4387.82652,965.798571 4387.86295,966.271714 4387.93582,966.736643 C4387.95008,966.830286 4387.96275,966.923929 4387.98176,967.017571 Z M4426.16621,961.678286 C4426.28977,962.471786 4426.35155,963.283357 4426.34997,964.1015 C4426.34997,972.419286 4419.82959,979.161571 4411.78209,979.161571 L4400.36034,979.161571 C4400.31915,979.156643 4400.28272,979.156643 4400.24628,979.156643 C4400.2051,979.156643 4400.16866,979.156643 4400.12906,979.161571 C4399.40827,979.217429 4398.82688,979.813786 4398.76352,980.559643 C4398.75876,980.602357 4398.75876,980.648357 4398.75876,980.696 C4398.75876,980.738714 4398.75876,980.784714 4398.76352,980.832357 L4398.76352,983.648214 C4398.76352,984.070429 4398.43243,984.417071 4398.01896,984.417071 C4397.86847,984.417071 4397.72273,984.366143 4397.6055,984.280714 L4397.60075,984.285643 L4388.69147,977.379071 C4388.32869,977.098143 4388.09266,976.652929 4388.09266,976.145286 C4388.09266,975.686929 4388.29226,975.272929 4388.60592,974.992 L4388.78335,974.852357 L4397.5057,968.092 L4397.65936,967.970429 C4397.65936,967.970429 4397.66411,967.970429 4397.66411,967.967143 C4397.77342,967.911286 4397.89065,967.878429 4398.01896,967.878429 C4398.43243,967.878429 4398.76352,968.221786 4398.76352,968.648929 L4398.76352,971.496 C4398.75876,971.538714 4398.75876,971.584714 4398.75876,971.632357 C4398.75876,971.675071 4398.75876,971.721071 4398.76352,971.768714 C4398.82213,972.458714 4399.32114,973.017286 4399.97064,973.143786 C4400.06252,973.156929 4400.15282,973.166786 4400.24787,973.166786 C4400.33975,973.166786 4400.43004,973.156929 4400.52034,973.143786 L4411.78367,973.143786 C4416.61376,973.143786 4420.52504,969.095786 4420.52504,964.108071 C4420.52504,963.625071 4420.4886,963.151929 4420.41573,962.687 C4420.40306,962.593357 4420.3888,962.499714 4420.37137,962.406071 L4420.37137,962.401143 C4420.35712,962.277929 4420.34761,962.156357 4420.34761,962.029857 C4420.34761,961.039214 4420.80543,960.161929 4421.5183,959.613214 C4422.00939,959.233714 4422.61137,959.013571 4423.26562,959.013571 C4424.65492,959.013571 4425.81611,960.012429 4426.11076,961.354643 C4426.12977,961.463071 4426.1472,961.5715 4426.16621,961.678286 Z" id="Switch-Camera"></path>
        </g>
    </g>
</svg>