<?xml version="1.0" standalone="no"?>
<!DOCTYPE svg PUBLIC "-//W3C//DTD SVG 1.1//EN" "http://www.w3.org/Graphics/SVG/1.1/DTD/svg11.dtd" >
<svg xmlns="http://www.w3.org/2000/svg" xmlns:xlink="http://www.w3.org/1999/xlink" version="1.1">
<metadata>
Created by FontForge 20170731 at Sun Sep 17 02:58:48 2017
 By Aleksey,,,
Copyright (c) 2011 Fabian Leuenberger and EuropaType. All rights reserved. This Font Software may not be reproduced, modified, disclosed or transferred without the express written approval of EuropaType. EUROPA is a trademark of EuropaType and may be registered in certain jurisdictions. This Font Software is original artwork of Fabian Leuenberger and EuropaType. The design may be protected in certain jurisdictions.
</metadata>
<defs>
<font id="Europa-Regular" horiz-adv-x="580" >
  <font-face 
    font-family="Europa-Regular"
    font-weight="400"
    font-stretch="normal"
    units-per-em="1000"
    panose-1="2 0 0 0 0 0 0 0 0 0"
    ascent="782"
    descent="-218"
    x-height="462"
    cap-height="700"
    bbox="-194 -254 1048 991"
    underline-thickness="38"
    underline-position="-153"
    unicode-range="U+0020-FB04"
  />
<missing-glyph horiz-adv-x="570" 
d="M314 181q0 -12 -8.5 -21t-20.5 -9q-13 0 -22 9t-9 21t9 21t22 9q12 0 20.5 -9t8.5 -21zM348 436q0 25 -18.5 43t-45.5 18q-24 0 -43 -13.5t-25 -27.5l-7 -14l-38 19q1 3 3 8.5t11.5 19t21 23.5t32 18.5t45.5 8.5q44 0 76 -30t32 -73q0 -23 -11 -44.5t-20 -31t-26 -24.5
q-22 -18 -26 -25.5t-4 -24.5v-33h-42v33q0 27 6.5 40t32.5 35q2 2 12 11t13.5 13t9.5 12.5t8.5 18t2.5 20.5zM40 0v700h490v-700h-490zM80 663v-626h410v626h-410z" />
    <glyph glyph-name="ffj" unicode="ffj" horiz-adv-x="799" 
d="M515 -221l30 70q23 -13 35 -13q15 0 25 3.5t19 20.5t9 47v555h84v-563q0 -74 -38.5 -107.5t-85.5 -33.5q-42 0 -78 21zM298 462v-76h-100v-386h-84v386h-94v76h94v134q0 73 48 122.5t124 49.5q79 0 130 -56q49 56 128 56q76 0 124.5 -49.5t48.5 -122.5v-10
q0 -17 -12.5 -29.5t-29.5 -12.5t-29.5 12.5t-12.5 29.5v14q0 35 -22.5 62.5t-66.5 27.5q-43 0 -64 -26t-22 -61v-3v-138h100v-76h-100v-386h-84v596v4q0 35 -22 62.5t-66 27.5t-66 -27.5t-22 -62.5v-138h100z" />
    <glyph glyph-name="fft" unicode="fft" horiz-adv-x="923" 
d="M198 616v-154h190v159q0 69 43.5 108t98.5 39q48 0 97 -27l-31 -69q-28 18 -54 18q-33 0 -51.5 -20t-18.5 -54v-154h190v141h84v-141h144v-76h-144v-246q0 -35 17 -54.5t50 -19.5q12 0 25 5t20 9l8 5l31 -69q-51 -28 -96 -28q-55 0 -97 39t-42 108v251h-190v-386h-84v386
h-190v-386h-84v386h-94v76h94v159q0 69 43.5 108t98.5 39q48 0 97 -27l-31 -69q-28 18 -54 18q-33 0 -51.5 -20t-18.5 -54z" />
    <glyph glyph-name="ff" unicode="ff" horiz-adv-x="607" 
d="M190 616v-154h190v159q0 69 43.5 108t98.5 39q48 0 97 -27l-31 -69q-28 18 -54 18q-33 0 -51.5 -20t-18.5 -54v-154h120v-76h-120v-386h-84v386h-190v-386h-84v386h-86v76h86v159q0 69 43.5 108t98.5 39q48 0 97 -27l-31 -69q-28 18 -54 18q-33 0 -51.5 -20t-18.5 -54z
" />
    <glyph glyph-name="fi" unicode="fi" horiz-adv-x="538" 
d="M372 586v14q0 35 -22 62.5t-65 27.5t-65 -27.5t-22 -62.5v-138h103v-76h-103v-386h-84v386h-94v76h94v134q0 73 47.5 122.5t123.5 49.5t123.5 -49.5t47.5 -122.5v-10q0 -17 -12.5 -29.5t-29.5 -12.5t-29.5 12.5t-12.5 29.5zM372 0v462h84v-462h-84z" />
    <glyph glyph-name="fl" unicode="fl" horiz-adv-x="538" 
d="M372 0v600q0 35 -22 62.5t-65 27.5t-65 -27.5t-22 -62.5v-138h103v-76h-103v-386h-84v386h-94v76h94v134q0 73 47.5 122.5t123.5 49.5t123.5 -49.5t47.5 -122.5v-596h-84z" />
    <glyph glyph-name="ffi" unicode="ffi" horiz-adv-x="798" 
d="M632 0v462h84v-462h-84zM299 462v-76h-101v-386h-84v386h-94v76h94v134q0 73 48 122.5t124 49.5q79 0 130 -56q49 56 129 56q76 0 123.5 -49.5t47.5 -122.5v-10q0 -17 -12.5 -29.5t-29.5 -12.5t-29.5 12.5t-12.5 29.5v14q0 35 -22 62.5t-65 27.5t-64.5 -26t-22.5 -61v-3
v-138h103v-76h-103v-386h-84v596v4q0 35 -22 62.5t-66 27.5t-66 -27.5t-22 -62.5v-138h101z" />
    <glyph glyph-name="ffl" unicode="ffl" horiz-adv-x="798" 
d="M298 462v-76h-100v-386h-84v386h-94v76h94v134q0 73 48 122.5t124 49.5q79 0 130 -56q49 56 129 56q76 0 123.5 -49.5t47.5 -122.5v-596h-84v600q0 35 -22 62.5t-65 27.5t-65 -27.5t-22 -62.5v-4v-134h100v-76h-100v-386h-84v596v7q-1 34 -23.5 60.5t-64.5 26.5
q-44 0 -66 -27.5t-22 -62.5v-138h100z" />
    <glyph glyph-name=".notdef" horiz-adv-x="570" 
d="M314 181q0 -12 -8.5 -21t-20.5 -9q-13 0 -22 9t-9 21t9 21t22 9q12 0 20.5 -9t8.5 -21zM348 436q0 25 -18.5 43t-45.5 18q-24 0 -43 -13.5t-25 -27.5l-7 -14l-38 19q1 3 3 8.5t11.5 19t21 23.5t32 18.5t45.5 8.5q44 0 76 -30t32 -73q0 -23 -11 -44.5t-20 -31t-26 -24.5
q-22 -18 -26 -25.5t-4 -24.5v-33h-42v33q0 27 6.5 40t32.5 35q2 2 12 11t13.5 13t9.5 12.5t8.5 18t2.5 20.5zM40 0v700h490v-700h-490zM80 663v-626h410v626h-410z" />
    <glyph glyph-name=".null" horiz-adv-x="0" 
 />
    <glyph glyph-name="nonmarkingreturn" horiz-adv-x="333" 
 />
    <glyph glyph-name="NULL" horiz-adv-x="0" 
 />
    <glyph glyph-name="NULL" horiz-adv-x="0" 
 />
    <glyph glyph-name="space" unicode=" " horiz-adv-x="280" 
 />
    <glyph glyph-name="exclam" unicode="!" horiz-adv-x="277" 
d="M181 700v-519h-84v519h84zM195 45q0 -23 -17 -40t-39 -17q-23 0 -40 17t-17 40q0 22 17 39t40 17t39.5 -16.5t16.5 -39.5z" />
    <glyph glyph-name="quotedbl" unicode="&#x22;" horiz-adv-x="332" 
d="M60 462v238h72v-238h-72zM200 462v238h72v-238h-72z" />
    <glyph glyph-name="numbersign" unicode="#" horiz-adv-x="634" 
d="M77 430v64h128l32 222l61 -9l-30 -213h136l31 222l62 -9l-30 -213h119v-64h-128l-21 -144h120v-64h-129l-33 -237l-61 9l32 228h-136l-33 -237l-62 9l32 228h-119v64h128l20 144h-119zM259 430l-20 -144h136l20 144h-136z" />
    <glyph glyph-name="dollar" unicode="$" 
d="M276 -94v83q-43 3 -80 18.5t-59 36.5t-37.5 41.5t-21.5 34.5l-7 14l70 43q2 -4 5 -10.5t14.5 -24t26 -31t38.5 -26.5t51 -16v251q-43 20 -70 36t-54.5 41t-41 57.5t-13.5 73.5q0 64 48 119.5t131 63.5v83h51v-84q50 -6 92.5 -31t60.5 -47l17 -22l-63 -52q-4 6 -12.5 16
t-36 29.5t-58.5 25.5v-240q3 -2 9 -4q45 -21 73 -38t53 -41t36.5 -55.5t11.5 -72.5q0 -76 -51 -127.5t-132 -60.5v-84h-51zM424 178q0 42 -24.5 68t-72.5 50v-225q42 9 69.5 36.5t27.5 70.5zM181 528q0 -39 23 -64.5t72 -50.5v217q-44 -6 -69.5 -36t-25.5 -66z" />
    <glyph glyph-name="percent" unicode="%" horiz-adv-x="712" 
d="M189 712q65 0 111 -45t46 -110t-46 -110t-111 -45t-111 45t-46 110t46 110t111 45zM189 456q42 0 70.5 29.5t28.5 71.5t-28.5 71.5t-70.5 29.5t-70.5 -29.5t-28.5 -71.5t28.5 -71.5t70.5 -29.5zM96 11l461 709l43 -29l-459 -711zM523 298q65 0 111 -45t46 -110t-46 -110
t-111 -45t-111 45t-46 110t46 110t111 45zM523 42q42 0 70.5 29.5t28.5 71.5t-28.5 71.5t-70.5 29.5t-70.5 -29.5t-28.5 -71.5t28.5 -71.5t70.5 -29.5z" />
    <glyph glyph-name="ampersand" unicode="&#x26;" horiz-adv-x="701" 
d="M545 384h78q0 -69 -11 -125.5t-22 -78.5l-11 -22l122 -110l-51 -60l-120 106q-38 -47 -101.5 -76.5t-133.5 -29.5q-99 0 -161 49.5t-62 115.5q0 59 30 103t120 114q-59 53 -82 94t-23 88q0 62 48 111t128 49t128 -49.5t48 -110.5q0 -46 -24.5 -83t-100.5 -100l175 -158
q26 33 26 173zM295 66q52 0 101 21.5t78 57.5l-193 172l-3 -3q-70 -58 -96 -87.5t-26 -63.5q0 -49 41.5 -73t97.5 -24zM201 552q0 -23 9 -43t15.5 -28.5t31 -31t31.5 -29.5q68 59 82.5 78.5t14.5 53.5t-26.5 60t-65.5 26q-41 0 -66.5 -26.5t-25.5 -59.5z" />
    <glyph glyph-name="quotesingle" unicode="'" horiz-adv-x="150" 
d="M40 462v238h70v-238h-70z" />
    <glyph glyph-name="parenleft" unicode="(" horiz-adv-x="308" 
d="M280 -115l-61 -43q-79 119 -116 220.5t-37 232.5t37 232.5t116 220.5l61 -43q-71 -110 -103.5 -199t-32.5 -211t32.5 -211t103.5 -199z" />
    <glyph glyph-name="parenright" unicode=")" horiz-adv-x="308" 
d="M89 -158l-61 43q71 110 103.5 199t32.5 211t-32.5 211t-103.5 199l61 43q79 -119 116 -220.5t37 -232.5t-37 -232.5t-116 -220.5z" />
    <glyph glyph-name="asterisk" unicode="*" horiz-adv-x="398" 
d="M370 564l-122 -39l74 -104l-48 -34l-74 106l-76 -106l-48 35l76 103l-124 39l18 57l123 -41v132h60v-132l123 41z" />
    <glyph glyph-name="plus" unicode="+" horiz-adv-x="520" 
d="M492 278v-74h-194v-204h-76v204h-194v74h194v196h76v-196h194z" />
    <glyph glyph-name="comma" unicode="," horiz-adv-x="229" 
d="M24 -142l81 234l76 -26l-86 -233z" />
    <glyph glyph-name="hyphen" unicode="-" horiz-adv-x="333" 
d="M33 204v80h267v-80h-267z" />
    <glyph glyph-name="period" unicode="." horiz-adv-x="230" 
d="M58 45q0 23 17 40t40 17t40 -17t17 -40t-17 -40t-40 -17t-40 17t-17 40z" />
    <glyph glyph-name="slash" unicode="/" horiz-adv-x="497" 
d="M487 764l-397 -897l-68 30l397 897z" />
    <glyph glyph-name="zero" unicode="0" horiz-adv-x="592" 
d="M297 712q85 0 144 -52.5t84 -132t25 -177.5t-25 -177.5t-84 -132t-144 -52.5t-144.5 52.5t-85 132t-25.5 177.5t25.5 177.5t85 132t144.5 52.5zM297 66q59 0 98.5 44t55 105t15.5 135t-15.5 135t-55 105t-98.5 44t-99 -43.5t-56 -105.5t-16 -135t16 -135t56 -105.5
t99 -43.5z" />
    <glyph glyph-name="one" unicode="1" horiz-adv-x="405" 
d="M18 547l192 153h75v-700h-84v590l-134 -107z" />
    <glyph glyph-name="two" unicode="2" horiz-adv-x="532" 
d="M52 0l246 326l15 19q15 19 20.5 26.5t18 28t18.5 34.5t11.5 34.5t5.5 38.5q0 54 -33.5 90.5t-95.5 36.5q-49 0 -83.5 -27t-44.5 -53l-10 -27l-72 27q2 6 5.5 17t19.5 38t37.5 48t60.5 38t87 17q95 0 154 -58.5t59 -146.5q0 -19 -3 -38t-9 -35.5t-12 -30t-14.5 -27.5
t-13.5 -21l-12.5 -17.5t-8.5 -11.5l-186 -248h264v-78h-424z" />
    <glyph glyph-name="three" unicode="3" horiz-adv-x="544" 
d="M389 515q0 48 -35.5 83.5t-89.5 35.5q-44 0 -77 -23t-43 -45l-11 -23l-72 32q2 6 6.5 15t21 32.5t37.5 41.5t58 33t80 15q87 0 148 -57t61 -140q0 -32 -9 -59.5t-21.5 -43.5t-25 -28t-21.5 -16l-9 -5q4 -1 11 -3.5t25 -15t31.5 -29.5t24.5 -49.5t11 -72.5q0 -93 -65 -149
t-163 -56q-50 0 -92 16.5t-65.5 40t-40 46.5t-22.5 39l-5 17l74 34q1 -5 4 -12.5t14.5 -27.5t27 -35t43.5 -27.5t62 -12.5q65 0 104.5 37t39.5 90q0 60 -37.5 93t-110.5 33h-33v77h21q62 0 102.5 30.5t40.5 88.5z" />
    <glyph glyph-name="four" unicode="4" horiz-adv-x="562" 
d="M2 184l365 516h74v-438h87v-78h-87v-184h-82v184h-357zM142 262h217v310z" />
    <glyph glyph-name="five" unicode="5" horiz-adv-x="575" 
d="M527 223q0 -111 -70 -173t-168 -62q-48 0 -89 15.5t-65.5 37.5t-42 44.5t-24.5 38.5l-6 15l73 39l5 -12.5t16 -26.5t29 -34t44 -27t60 -12q65 0 109.5 41.5t44.5 115.5q0 76 -44 116.5t-112 40.5q-43 0 -90.5 -19.5t-73.5 -38.5l-26 -20v398h415v-78h-335v-192
q51 29 129 29q92 0 156.5 -61.5t64.5 -174.5z" />
    <glyph glyph-name="six" unicode="6" horiz-adv-x="542" 
d="M374 680l-151 -240q21 10 50 10q105 0 167 -67.5t62 -161.5t-62 -163.5t-167 -69.5t-167 69.5t-62 161.5q0 61 34 124l228 381zM273 372q-64 0 -104.5 -44t-40.5 -107q0 -64 40 -109.5t105 -45.5t105 45.5t40 109.5q0 63 -40.5 107t-104.5 44z" />
    <glyph glyph-name="seven" unicode="7" horiz-adv-x="506" 
d="M46 622v78h466l-372 -718l-71 38l311 602h-334z" />
    <glyph glyph-name="eight" unicode="8" horiz-adv-x="552" 
d="M276 712q89 0 143 -57t54 -131q0 -43 -21.5 -83.5t-56.5 -61.5q48 -26 75.5 -73t27.5 -106q0 -88 -62 -150t-160 -62t-160 62t-62 150q0 59 27.5 106t75.5 73q-35 21 -56.5 61.5t-21.5 83.5q0 74 54 131t143 57zM276 66q61 0 99.5 40.5t38.5 93.5q0 57 -38 98t-100 41
t-100 -41t-38 -98q0 -53 38.5 -93.5t99.5 -40.5zM276 412q48 0 80.5 31.5t32.5 79.5t-32.5 79.5t-80.5 31.5t-80.5 -31.5t-32.5 -79.5t32.5 -79.5t80.5 -31.5z" />
    <glyph glyph-name="nine" unicode="9" horiz-adv-x="542" 
d="M169 23l151 241q-15 -12 -51 -12q-105 0 -167 68t-62 160t62 162t167 70t167 -70t62 -162q0 -51 -28 -109l-233 -392zM269 330q64 0 104.5 43.5t40.5 106.5q0 64 -40 109t-105 45t-105 -45t-40 -109q0 -63 40.5 -106.5t104.5 -43.5z" />
    <glyph glyph-name="colon" unicode=":" horiz-adv-x="236" 
d="M61 45q0 23 17 40t40 17t40 -17t17 -40t-17 -40t-40 -17t-40 17t-17 40zM61 417q0 23 17 40t40 17t40 -17t17 -40t-17 -40t-40 -17t-40 17t-17 40z" />
    <glyph glyph-name="semicolon" unicode=";" horiz-adv-x="230" 
d="M68 417q0 23 17 40t40 17t40 -17t17 -40t-17 -40t-40 -17t-40 17t-17 40zM24 -142l81 234l76 -26l-86 -233z" />
    <glyph glyph-name="less" unicode="&#x3c;" horiz-adv-x="520" 
d="M18 236v70l462 197v-78l-366 -154l366 -155v-78z" />
    <glyph glyph-name="equal" unicode="=" horiz-adv-x="520" 
d="M55 283v74h410v-74h-410zM55 125v74h410v-74h-410z" />
    <glyph glyph-name="greater" unicode="&#x3e;" horiz-adv-x="520" 
d="M502 306v-70l-462 -198v78l366 155l-366 154v78z" />
    <glyph glyph-name="question" unicode="?" horiz-adv-x="482" 
d="M353 519q0 47 -35 81t-85 34q-46 0 -80.5 -26t-46.5 -52l-12 -25l-72 34q2 6 6 16t21 35t38.5 44.5t60.5 35.5t85 16q84 0 144 -55.5t60 -137.5q0 -34 -9.5 -63.5t-28.5 -53.5t-33 -37.5t-36 -32.5q-41 -33 -48.5 -46.5t-7.5 -47.5v-58h-78v58q0 53 11.5 77t58.5 65
q4 4 15.5 13t16 13.5t14 13.5t14 15t11 16t9 19.5t5 22t2.5 26.5zM179 44q0 23 16.5 40t39.5 17t40 -17t17 -40t-17 -39.5t-40 -16.5t-39.5 16.5t-16.5 39.5z" />
    <glyph glyph-name="at" unicode="@" horiz-adv-x="799" 
d="M577 89l25 -54q-88 -47 -192 -47q-150 0 -256 106t-106 256t106 256t256 106q148 0 244.5 -101t96.5 -246q0 -67 -15 -113t-40 -66.5t-47 -28.5t-46 -8q-37 0 -66.5 17t-35.5 54l-5 -7.5t-14 -17t-24.5 -22t-35.5 -17t-46 -7.5q-51 0 -91.5 36t-40.5 93q0 55 41.5 90.5
t104.5 35.5q29 0 55 -12t38 -24l12 -12v30q0 54 -27.5 75.5t-64.5 21.5q-29 0 -55.5 -9.5t-39.5 -19.5l-12 -10l-29 53q7 5 19 13t47.5 21.5t70.5 13.5q73 0 114.5 -39t41.5 -106v-149q0 -43 46 -43q83 0 83 157q0 122 -78.5 203.5t-200.5 81.5q-124 0 -212 -88t-88 -212
t88 -212t212 -88q93 0 167 39zM390 209q22 0 41 6.5t30.5 16t19.5 19t11 15.5l3 7v30q-4 5 -11 12.5t-33 19.5t-55 12q-36 0 -60 -20t-24 -49q0 -34 22.5 -51.5t55.5 -17.5z" />
    <glyph glyph-name="A" unicode="A" horiz-adv-x="642" 
d="M8 0l275 700h78l273 -700h-88l-73 189h-302l-73 -189h-90zM322 580l-120 -311h240z" />
    <glyph glyph-name="B" unicode="B" horiz-adv-x="563" 
d="M82 0v700h184q107 0 166 -51t59 -140q0 -33 -10.5 -60.5t-25.5 -43t-26.5 -24t-16.5 -9.5q6 -1 16.5 -5t29 -16.5t33.5 -30t26.5 -49.5t11.5 -71q0 -91 -62 -145.5t-166 -54.5h-219zM301 80q71 0 107.5 33.5t36.5 86.5t-36.5 86.5t-107.5 33.5h-135v-240h135zM166 398
h114q59 0 93 30t34 81t-34 81t-93 30h-114v-222z" />
    <glyph glyph-name="C" unicode="C" horiz-adv-x="663" 
d="M635 605l-58 -55q-3 3 -8 8.5t-23 20t-38.5 25t-54 19.5t-69.5 9q-111 0 -183.5 -83.5t-72.5 -198.5t72.5 -198.5t183.5 -83.5q36 0 69.5 9.5t56.5 23.5t41 27.5t27 23.5l8 9l57 -58q-4 -5 -11.5 -12.5t-32.5 -27.5t-53 -35t-72 -27.5t-90 -12.5q-150 0 -248 104.5
t-98 257.5t98 257.5t248 104.5q73 0 135.5 -27t88.5 -53z" />
    <glyph glyph-name="D" unicode="D" horiz-adv-x="667" 
d="M283 700q160 0 253 -97.5t93 -252.5t-93 -252.5t-253 -97.5h-201v700h201zM278 80q124 0 192.5 76.5t68.5 193.5t-68.5 193.5t-192.5 76.5h-112v-540h112z" />
    <glyph glyph-name="E" unicode="E" horiz-adv-x="544" 
d="M166 620v-221h296v-80h-296v-239h326v-80h-410v700h404v-80h-320z" />
    <glyph glyph-name="F" unicode="F" horiz-adv-x="523" 
d="M166 620v-221h291v-80h-291v-319h-84v700h395v-80h-311z" />
    <glyph glyph-name="G" unicode="G" horiz-adv-x="717" 
d="M403 304v80h258v-304q-4 -4 -11 -10t-33 -22t-55.5 -28t-77 -22t-98.5 -10q-150 0 -249 104.5t-99 257.5t99 257.5t249 104.5q51 0 96 -10t73 -25t48.5 -29.5t29.5 -24.5l9 -10l-60 -59q-3 3 -8 8.5t-23.5 19t-39.5 23.5t-55 18.5t-70 8.5q-111 0 -184.5 -83.5
t-73.5 -198.5t73.5 -198.5t184.5 -83.5q57 0 105 13t67 25l20 13v185h-175z" />
    <glyph glyph-name="H" unicode="H" horiz-adv-x="683" 
d="M517 399v301h84v-700h-84v319h-351v-319h-84v700h84v-301h351z" />
    <glyph glyph-name="I" unicode="I" horiz-adv-x="276" 
d="M96 0v700h84v-700h-84z" />
    <glyph glyph-name="J" unicode="J" horiz-adv-x="474" 
d="M308 186v514h84v-513q0 -89 -55.5 -144t-150.5 -55q-32 0 -63 10.5t-51.5 25t-36.5 29.5t-23 25l-8 11l61 53q5 -8 14 -20.5t40.5 -33t66.5 -20.5q64 0 93 35t29 83z" />
    <glyph glyph-name="K" unicode="K" horiz-adv-x="589" 
d="M166 700v-329l283 329h107l-296 -342l329 -358h-114l-309 334v-334h-84v700h84z" />
    <glyph glyph-name="L" unicode="L" horiz-adv-x="488" 
d="M82 0v700h84v-620h314v-80h-398z" />
    <glyph glyph-name="M" unicode="M" horiz-adv-x="810" 
d="M82 700h84l241 -391l240 391h81v-700h-84v548l-239 -389l-239 388v-547h-84v700z" />
    <glyph glyph-name="N" unicode="N" horiz-adv-x="710" 
d="M82 700h87l375 -560v560h84v-700h-87l-375 560v-560h-84v700z" />
    <glyph glyph-name="O" unicode="O" horiz-adv-x="768" 
d="M384 712q150 0 248 -104.5t98 -257.5t-98 -257.5t-248 -104.5t-248 104.5t-98 257.5t98 257.5t248 104.5zM384 68q112 0 184 83.5t72 198.5t-72 198.5t-184 83.5t-184 -83.5t-72 -198.5t72 -198.5t184 -83.5z" />
    <glyph glyph-name="P" unicode="P" horiz-adv-x="528" 
d="M82 0v700h181q111 0 175 -55.5t64 -155.5t-64 -155.5t-175 -55.5h-97v-278h-84zM166 358h92q74 0 117 33t43 98t-43 98t-117 33h-92v-262z" />
    <glyph glyph-name="Q" unicode="Q" horiz-adv-x="791" 
d="M384 712q150 0 248 -104.5t98 -257.5q0 -129 -73 -227l108 -96l-52 -61l-111 98q-92 -76 -218 -76q-150 0 -248 104.5t-98 257.5t98 257.5t248 104.5zM438 209l53 62l100 -90q50 75 50 169q0 115 -73 198.5t-184 83.5t-183.5 -83.5t-72.5 -198.5t72.5 -198.5t183.5 -83.5
q86 0 152 53z" />
    <glyph glyph-name="R" unicode="R" horiz-adv-x="553" 
d="M269 366q69 0 107 34t38 93t-38 93t-107 34h-103v-254h103zM82 0v700h182q105 0 169.5 -57t64.5 -150q0 -47 -16.5 -84t-37.5 -57.5t-48.5 -34.5t-42.5 -18t-26 -6l194 -293h-101l-189 286h-65v-286h-84z" />
    <glyph glyph-name="S" unicode="S" horiz-adv-x="542" 
d="M404 178q0 26 -9 46t-31 37t-40.5 27t-55.5 27t-60 29t-51 32t-43.5 39.5t-26.5 48.5t-11 64q0 69 54.5 126.5t147.5 57.5q37 0 71 -10.5t56.5 -25.5t39.5 -30t25 -26l7 -10l-63 -51q-2 3 -6 8t-17 17.5t-27.5 22t-38 17.5t-47.5 8q-54 0 -86 -31.5t-32 -72.5
q0 -26 9.5 -45.5t34 -37t46 -28.5t66.5 -32t73 -38t53 -41t36.5 -55.5t11.5 -72.5q0 -84 -61.5 -137t-155.5 -53q-46 0 -86.5 15t-64.5 36.5t-41 43t-24 36.5l-7 15l70 42q2 -4 5.5 -11.5t16.5 -26t29 -33t43.5 -26t58.5 -11.5q54 0 92.5 29.5t38.5 80.5z" />
    <glyph glyph-name="T" unicode="T" horiz-adv-x="514" 
d="M215 0v620h-201v80h486v-80h-201v-620h-84z" />
    <glyph glyph-name="U" unicode="U" horiz-adv-x="674" 
d="M508 267v433h84v-442q0 -121 -68.5 -195.5t-186.5 -74.5t-186.5 74.5t-68.5 195.5v442h84v-433q0 -90 42 -144.5t129 -54.5t129 54.5t42 144.5z" />
    <glyph glyph-name="V" unicode="V" horiz-adv-x="592" 
d="M588 700l-292 -720l-292 720h92l202 -513l203 513h87z" />
    <glyph glyph-name="W" unicode="W" horiz-adv-x="950" 
d="M946 700l-270 -720l-201 551l-202 -551l-269 720h94l177 -485l172 485h61l170 -485l179 485h89z" />
    <glyph glyph-name="X" unicode="X" horiz-adv-x="590" 
d="M473 0l-181 294l-180 -294h-95l226 362l-210 338h99l166 -272l165 272h94l-210 -338l226 -362h-100z" />
    <glyph glyph-name="Y" unicode="Y" 
d="M248 0v275l-236 425h94l188 -344l185 344h89l-236 -425v-275h-84z" />
    <glyph glyph-name="Z" unicode="Z" horiz-adv-x="572" 
d="M45 700h509l-393 -620h374v-80h-517l393 620h-366v80z" />
    <glyph glyph-name="bracketleft" unicode="[" horiz-adv-x="313" 
d="M149 674v-838h114v-66h-188v970h188v-66h-114z" />
    <glyph glyph-name="backslash" unicode="\" horiz-adv-x="497" 
d="M407 -133l-397 897l68 30l397 -897z" />
    <glyph glyph-name="bracketright" unicode="]" horiz-adv-x="313" 
d="M164 -164v838h-114v66h188v-970h-188v66h114z" />
    <glyph glyph-name="asciicircum" unicode="^" horiz-adv-x="536" 
d="M28 350l206 406h68l206 -406h-91l-149 302l-151 -302h-89z" />
    <glyph glyph-name="underscore" unicode="_" horiz-adv-x="500" 
d="M42 -230v80h416v-80h-416z" />
    <glyph glyph-name="grave" unicode="`" horiz-adv-x="264" 
d="M18 649l52 52l149 -149l-50 -47z" />
    <glyph glyph-name="a" unicode="a" horiz-adv-x="512" 
d="M247 474q96 0 148.5 -50t52.5 -120v-304h-77v67q-2 -3 -6 -8.5t-19 -19t-31.5 -24t-44 -19t-56.5 -8.5q-67 0 -119.5 43.5t-52.5 114.5q0 67 52 110.5t131 43.5q38 0 72.5 -9.5t50.5 -18.5l16 -10v25q0 34 -12.5 57.5t-32.5 33.5t-37.5 14t-34.5 4q-31 0 -65.5 -10
t-53.5 -20l-19 -9l-35 70q8 5 23 13t60 21t90 13zM232 62q36 0 69 17.5t48 34.5l15 18v65q-46 33 -121 33q-53 0 -85 -23.5t-32 -60.5q0 -42 31 -63t75 -21z" />
    <glyph glyph-name="b" unicode="b" horiz-adv-x="571" 
d="M315 474q94 0 159 -70.5t65 -172.5t-65 -172.5t-159 -70.5q-49 0 -88 20t-53 40l-15 19v-67h-77v756h84v-351q2 3 5.5 7.5t17.5 16.5t29.5 21t41.5 16.5t55 7.5zM166 316v-170q2 -3 5.5 -8.5t16 -19.5t27 -24.5t38 -19t49.5 -8.5q69 0 111 47.5t42 117.5t-42.5 117.5
t-110.5 47.5q-26 0 -49.5 -8t-38.5 -20t-26.5 -24t-16.5 -20z" />
    <glyph glyph-name="c" unicode="c" horiz-adv-x="477" 
d="M405 132l54 -55q-3 -4 -8 -10t-23.5 -21t-38.5 -27t-52.5 -21.5t-66.5 -9.5q-102 0 -170 70t-68 173q0 102 68.5 172.5t169.5 70.5q52 0 98 -21t66 -41l20 -21l-57 -51q-5 6 -15 15.5t-43 25t-69 15.5q-68 0 -111 -47.5t-43 -117.5t43 -117.5t111 -47.5q25 0 48.5 7
t38.5 16.5t26.5 19t16.5 16.5z" />
    <glyph glyph-name="d" unicode="d" horiz-adv-x="571" 
d="M256 474q29 0 54.5 -7t42 -17t29 -20.5t18.5 -17.5l5 -7v351h84v-756h-77v67q-2 -3 -5.5 -8.5t-17.5 -19t-30 -24t-44 -19t-59 -8.5q-94 0 -159 70.5t-65 172.5t65 172.5t159 70.5zM405 146v170q-2 3 -5.5 8.5t-16 19.5t-27 24.5t-38 19t-49.5 8.5q-68 0 -110.5 -47.5
t-42.5 -117.5t42 -117.5t111 -47.5q26 0 49.5 8t38.5 20t26.5 24t16.5 20z" />
    <glyph glyph-name="e" unicode="e" horiz-adv-x="520" 
d="M263 474q98 0 161.5 -68t63.5 -178q0 -16 -1 -27h-373q4 -54 49.5 -94.5t109.5 -40.5q40 0 75 17t50 34l14 17l53 -55q-3 -4 -8.5 -10t-24 -21.5t-39 -27.5t-53.5 -22t-67 -10q-104 0 -172.5 70t-68.5 173t64.5 173t166.5 70zM116 271h290q-3 45 -41 85t-102 40
q-67 0 -104 -39.5t-43 -85.5z" />
    <glyph glyph-name="f" unicode="f" horiz-adv-x="343" 
d="M20 386v76h96v159q0 69 43.5 108t98.5 39q48 0 97 -27l-31 -69q-28 18 -54 18q-33 0 -51.5 -20t-18.5 -54v-154h120v-76h-120v-386h-84v386h-96z" />
    <glyph glyph-name="g" unicode="g" horiz-adv-x="553" 
d="M405 -6v64q-11 -15 -26.5 -28.5t-49.5 -27.5t-73 -14q-94 0 -159 70.5t-65 172.5t65 172.5t159 70.5q49 0 88 -20t54 -40l14 -19v67h77v-464q0 -115 -68.5 -177.5t-174.5 -62.5q-56 0 -106.5 22t-73.5 44l-22 22l51 63q2 -3 6.5 -8t19.5 -17.5t31 -22t41.5 -17.5t52.5 -8
q75 0 117 40.5t42 117.5zM405 144v174q-2 3 -5.5 8.5t-16 19t-27 23.5t-38.5 18.5t-49 8.5q-69 0 -111 -47.5t-42 -117.5t42 -117.5t111 -47.5q26 0 49.5 8t38.5 19.5t26.5 23t16.5 19.5z" />
    <glyph glyph-name="h" unicode="h" horiz-adv-x="540" 
d="M302 474q73 0 123.5 -47.5t50.5 -129.5v-297h-84v283q0 56 -31 84.5t-80 28.5q-21 0 -40.5 -8t-32.5 -19.5t-23 -23t-15 -19.5l-4 -8v-318h-84v756h84v-350q48 68 136 68z" />
    <glyph glyph-name="i" unicode="i" horiz-adv-x="242" 
d="M79 0v462h84v-462h-84zM64 610q0 23 17 40t40 17t40 -17t17 -40t-17 -40t-40 -17t-40 17t-17 40z" />
    <glyph glyph-name="j" unicode="j" horiz-adv-x="257" 
d="M-24 -221l30 70q23 -13 35 -13q15 0 25 3.5t19 20.5t9 47v555h84v-563q0 -74 -38.5 -107.5t-85.5 -33.5q-42 0 -78 21zM79 610q0 23 17 40t40 17t40 -17t17 -40t-17 -40t-40 -17t-40 17t-17 40z" />
    <glyph glyph-name="k" unicode="k" horiz-adv-x="494" 
d="M375 0l-209 224v-224h-84v756h84v-499l198 205h110l-216 -218l234 -244h-117z" />
    <glyph glyph-name="l" unicode="l" horiz-adv-x="248" 
d="M82 0v756h84v-756h-84z" />
    <glyph glyph-name="m" unicode="m" horiz-adv-x="776" 
d="M552 474q73 0 116.5 -46.5t43.5 -130.5v-297h-84v284q0 55 -26.5 83.5t-72.5 28.5q-31 0 -55.5 -18.5t-33.5 -37.5l-10 -18v-322h-84v284q0 55 -26.5 83.5t-72.5 28.5q-30 0 -55 -18.5t-34 -37.5l-10 -18v-322h-84v462h78v-68q1 3 4 8.5t14 19.5t24.5 24.5t36.5 19
t49 8.5q32 0 59 -9t42 -21.5t25.5 -25t13.5 -21.5l4 -9q2 3 5 9t14.5 21t26 26t39.5 20.5t53 9.5z" />
    <glyph glyph-name="n" unicode="n" horiz-adv-x="522" 
d="M284 474q73 0 123.5 -47.5t50.5 -129.5v-297h-84v283q0 56 -31 84.5t-80 28.5q-21 0 -40.5 -8t-32.5 -19.5t-23 -23t-15 -19.5l-4 -8v-318h-84v462h78v-65q2 3 5.5 8.5t16 18.5t27.5 23t40 18.5t53 8.5z" />
    <glyph glyph-name="o" unicode="o" horiz-adv-x="540" 
d="M270 474q102 0 170 -70t68 -173t-68 -173t-170 -70t-170 70t-68 173t68 173t170 70zM270 66q68 0 111 47.5t43 117.5t-43 117.5t-111 47.5t-111 -47.5t-43 -117.5t43 -117.5t111 -47.5z" />
    <glyph glyph-name="p" unicode="p" horiz-adv-x="553" 
d="M64 462h77v-67q2 3 5.5 8.5t17.5 19t30.5 24t44 19t58.5 8.5q94 0 159 -70.5t65 -172.5t-65 -172.5t-159 -70.5q-96 0 -149 69v-287h-84v692zM148 317v-172q2 -3 5.5 -8.5t16 -19t27 -24t38 -19t49.5 -8.5q69 0 111 47.5t42 117.5t-42 117.5t-111 47.5q-41 0 -75 -20
t-47 -40z" />
    <glyph glyph-name="q" unicode="q" horiz-adv-x="553" 
d="M412 462h77v-692h-84v287q-53 -69 -149 -69q-94 0 -159 70.5t-65 172.5t65 172.5t159 70.5q49 0 88 -20t54 -40l14 -19v67zM405 145v172q-2 3 -5.5 8.5t-16 19t-27 24t-38 19t-49.5 8.5q-69 0 -111 -47.5t-42 -117.5t42 -117.5t111 -47.5q41 0 75 20t48 40z" />
    <glyph glyph-name="r" unicode="r" horiz-adv-x="340" 
d="M271 474q17 0 33.5 -3t25.5 -6l8 -3l-31 -76q-18 10 -53 10q-32 0 -58.5 -19.5t-37.5 -38.5l-10 -20v-318h-84v462h78v-71q2 3 5 9t15 20t25.5 25t36 20t47.5 9z" />
    <glyph glyph-name="s" unicode="s" horiz-adv-x="455" 
d="M34 85l58 54q2 -3 6 -8t17 -18t28 -23t39.5 -18t49.5 -8q39 0 69.5 15.5t30.5 41.5q0 29 -25 46t-80 28q-81 16 -125 50.5t-44 95.5q0 53 48 93t122 40q48 0 91 -17.5t61 -34.5l19 -18l-55 -57q-5 6 -14.5 14.5t-40 22.5t-61.5 14q-42 0 -65 -17.5t-23 -41.5
q0 -26 26.5 -42t85.5 -28q77 -17 120 -49t43 -97q0 -63 -55 -99t-128 -36q-36 0 -70 10t-56 24.5t-39 28.5t-25 24z" />
    <glyph glyph-name="t" unicode="t" horiz-adv-x="376" 
d="M24 386v76h90v141h84v-141h144v-76h-144v-249q0 -71 67 -71q12 0 25 5t20 9l8 5l31 -69q-51 -28 -96 -28q-56 0 -97.5 37t-41.5 108v253h-90z" />
    <glyph glyph-name="u" unicode="u" horiz-adv-x="522" 
d="M238 -12q-73 0 -123.5 47.5t-50.5 129.5v297h84v-283q0 -56 31 -84.5t80 -28.5q35 0 63.5 19t39.5 38l12 19v320h84v-462h-78v71q-2 -3 -5.5 -9t-16 -20t-27.5 -25t-40 -20t-53 -9z" />
    <glyph glyph-name="v" unicode="v" horiz-adv-x="474" 
d="M6 462h92l142 -313l142 313h86l-231 -482z" />
    <glyph glyph-name="w" unicode="w" horiz-adv-x="742" 
d="M8 462h91l124 -299l122 299h57l123 -299l123 299h86l-211 -482l-152 347l-152 -347z" />
    <glyph glyph-name="x" unicode="x" horiz-adv-x="489" 
d="M32 462h98l117 -170l116 170h93l-155 -224l166 -238h-99l-127 181l-125 -181h-94l168 238z" />
    <glyph glyph-name="y" unicode="y" horiz-adv-x="500" 
d="M27 -209l36 69q29 -24 55 -24t41.5 17t30.5 54l36 91l-216 464h95l162 -365l138 365h91q-232 -584 -243 -611q-19 -47 -53.5 -70t-74.5 -23q-25 0 -49.5 8t-36.5 16z" />
    <glyph glyph-name="z" unicode="z" horiz-adv-x="470" 
d="M48 462h399l-265 -384h254v-78h-402l265 384h-251v78z" />
    <glyph glyph-name="braceleft" unicode="{" horiz-adv-x="312" 
d="M282 740v-72h-10q-34 0 -51 -16.5t-17 -62.5v-204q0 -124 -109 -128v-4q109 -4 109 -128v-204q0 -46 17 -62.5t51 -16.5h10v-72h-20q-136 0 -136 135v220q0 61 -27 81t-73 20v58q46 0 73 20t27 81v220q0 60 38.5 97.5t97.5 37.5h20z" />
    <glyph glyph-name="bar" unicode="|" horiz-adv-x="260" 
d="M90 -230v970h80v-970h-80z" />
    <glyph glyph-name="braceright" unicode="}" horiz-adv-x="312" 
d="M30 668v72h20q59 0 97.5 -37.5t38.5 -97.5v-220q0 -61 27 -81t73 -20v-58q-46 0 -73 -20t-27 -81v-220q0 -135 -136 -135h-20v72h10q34 0 51 16.5t17 62.5v204q0 124 109 128v4q-109 4 -109 128v204q0 46 -17 62.5t-51 16.5h-10z" />
    <glyph glyph-name="asciitilde" unicode="~" horiz-adv-x="430" 
d="M77 273l-57 39l5 10t14.5 21.5t25 27.5t36.5 22t48 10q29 0 72.5 -23.5t59.5 -23.5q26 0 44 15t23 29l6 15l56 -39q-1 -4 -4 -10t-13.5 -21.5t-23.5 -27.5t-35.5 -22t-48.5 -10q-32 0 -76.5 23.5t-57.5 23.5q-26 0 -44.5 -15t-24.5 -29z" />
    <glyph glyph-name="nbspace" unicode="&#xa0;" horiz-adv-x="280" 
 />
    <glyph glyph-name="exclamdown" unicode="&#xa1;" horiz-adv-x="277" 
d="M181 281v-519h-84v519h84zM195 417q0 -23 -16.5 -39.5t-39.5 -16.5t-40 17t-17 39q0 23 17 40t40 17q22 0 39 -17t17 -40z" />
    <glyph glyph-name="cent" unicode="&#xa2;" 
d="M461 132l54 -55q-2 -3 -7 -8.5t-21.5 -20t-35 -25.5t-48 -21.5t-60.5 -12.5v-83h-51v85q-89 11 -146.5 78.5t-57.5 161.5q0 92 57.5 160t146.5 80v87h51v-85q48 -3 89.5 -23.5t59.5 -39.5l18 -19l-57 -51q-4 5 -12.5 13.5t-37 23.5t-60.5 18v-328q35 3 64.5 19.5
t41.5 31.5zM172 231q0 -61 32.5 -105.5t87.5 -56.5v323q-55 -11 -87.5 -56t-32.5 -105z" />
    <glyph glyph-name="sterling" unicode="&#xa3;" 
d="M177 519q0 -8 0.5 -14.5t2.5 -14t3 -12.5t5 -14t6.5 -13.5t9 -16t10 -17.5t12.5 -21.5t14 -23.5h170v-64h-138q15 -36 15 -82q0 -26 -7.5 -50.5t-14.5 -35.5l-7 -11q25 -7 63 -34t67 -27q27 0 47.5 16t27.5 32l7 16l62 -43q-2 -4 -5 -11t-15.5 -24.5t-27.5 -30.5t-41 -24
t-55 -11q-40 0 -70 17t-54.5 34t-50.5 17q-27 0 -48 -17t-29 -34l-8 -17l-62 43q4 8 11.5 21t33 39.5t53.5 36.5q39 40 39 100q0 38 -22 80h-111v64h74q-30 49 -40.5 79.5t-10.5 67.5q0 71 52.5 132t154.5 61q53 0 101 -25t69 -49l22 -25l-58 -56q-2 3 -5.5 8t-16.5 18
t-27.5 23t-37.5 18t-47 8q-62 0 -92.5 -37t-30.5 -76z" />
    <glyph glyph-name="currency" unicode="&#xa4;" 
d="M88 580l68 -68q61 43 134 43t134 -43l68 68l55 -55l-68 -68q43 -61 43 -134t-43 -134l68 -68l-55 -55l-68 68q-61 -43 -134 -43t-134 43l-68 -68l-55 55l68 68q-43 61 -43 134t43 134l-68 68zM290 483q-68 0 -114 -46.5t-46 -113.5t46.5 -113.5t113.5 -46.5t113.5 46.5
t46.5 113.5t-46.5 113.5t-113.5 46.5z" />
    <glyph glyph-name="yen" unicode="&#xa5;" 
d="M36 385v64h119l-136 251h90l182 -341l180 341h90l-135 -251h120v-64h-154l-38 -70h192v-64h-213v-251h-84v251h-213v64h191l-38 70h-153z" />
    <glyph glyph-name="brokenbar" unicode="&#xa6;" horiz-adv-x="260" 
d="M90 350v390h80v-390h-80zM90 -230v390h80v-390h-80z" />
    <glyph glyph-name="section" unicode="&#xa7;" horiz-adv-x="508" 
d="M347 -34q0 14 -2.5 25.5t-11 22t-14 17.5t-21.5 17t-23 14t-29 15.5t-29 15.5q-32 17 -44.5 24.5t-36 24.5t-33.5 30.5t-18.5 35t-8.5 46.5q0 97 107 143q-98 58 -98 155q0 68 51.5 114t127.5 46q47 0 87.5 -20.5t58.5 -41.5l17 -20l-59 -54q-4 6 -11.5 15.5t-34.5 25
t-58 15.5q-44 0 -69.5 -23.5t-25.5 -56.5q0 -14 2.5 -25.5t11 -22t14 -17.5t21.5 -17t23 -14t29 -15.5t29 -15.5q32 -17 44.5 -24.5t36 -24.5t33.5 -30.5t18.5 -35t8.5 -46.5q0 -55 -32.5 -90.5t-74.5 -53.5q98 -57 98 -154q0 -68 -51.5 -114t-127.5 -46q-47 0 -87.5 21
t-58.5 41l-17 21l59 54q4 -6 11.5 -15.5t34.5 -25.5t58 -16q44 0 69.5 23.5t25.5 56.5zM256 358l-4 2q-20 -5 -38.5 -13.5t-37.5 -31.5t-19 -55q0 -31 22.5 -50t80.5 -50l5 -3q94 25 94 101q0 31 -22.5 50t-80.5 50z" />
    <glyph glyph-name="dieresis" unicode="&#xa8;" horiz-adv-x="391" 
d="M48 610q0 23 17 40t40 17t40 -17t17 -40t-17 -40t-40 -17t-40 17t-17 40zM229 610q0 23 17 40t40 17t40 -17t17 -40t-17 -40t-40 -17t-40 17t-17 40z" />
    <glyph glyph-name="copyright" unicode="&#xa9;" horiz-adv-x="819" 
d="M48 350q0 150 106 256t256 106t255.5 -106t105.5 -256t-105.5 -256t-255.5 -106t-256 106t-106 256zM107 350q0 -124 89.5 -213.5t213.5 -89.5t213 89t89 214t-89 214t-213 89t-213.5 -89.5t-89.5 -213.5zM526 257l38 -37q-6 -8 -17 -19t-47 -29.5t-75 -18.5
q-82 0 -137.5 57.5t-55.5 139.5q0 83 55.5 140t137.5 57q38 0 72.5 -16.5t50.5 -32.5l15 -16l-41 -36q-4 5 -12.5 12.5t-33.5 20.5t-51 13q-61 0 -96 -39.5t-35 -102.5q0 -62 35 -101.5t96 -39.5q26 0 51 12.5t38 24.5z" />
    <glyph glyph-name="ordfeminine" unicode="&#xaa;" horiz-adv-x="328" 
d="M151 483q19 0 35 8t22 16l7 8v23q-26 18 -63 18q-19 0 -34.5 -8.5t-15.5 -27.5t15 -28t34 -9zM158 712q57 0 91.5 -29.5t34.5 -72.5v-178h-64v35q-3 -5 -9.5 -12t-29.5 -18.5t-51 -11.5q-38 0 -67.5 25.5t-29.5 66.5q0 40 29.5 65.5t74.5 25.5q23 0 42.5 -5t27.5 -11
l8 -5v16q0 24 -20 35t-43 11q-19 0 -37.5 -5.5t-28.5 -11.5l-9 -6l-30 56q42 30 111 30z" />
    <glyph glyph-name="guillemotleft" unicode="&#xab;" horiz-adv-x="488" 
d="M191 14l-177 231l177 231l59 -44l-146 -187l146 -187zM374 14l-177 231l177 231l59 -44l-146 -187l146 -187z" />
    <glyph glyph-name="logicalnot" unicode="&#xac;" horiz-adv-x="678" 
d="M22 422v78h600v-300h-76v222h-524z" />
    <glyph glyph-name="uni00AD" unicode="&#xad;" horiz-adv-x="333" 
d="M33 204v80h267v-80h-267z" />
    <glyph glyph-name="registered" unicode="&#xae;" horiz-adv-x="451" 
d="M154 437v192h91q28 0 45.5 -18.5t17.5 -44.5q0 -21 -11.5 -37t-31.5 -22l50 -70h-56l-42 65h-15v-65h-48zM230 542q30 0 30 24t-30 24h-28v-48h28zM22 531q0 84 59.5 144t143.5 60t144 -60t60 -144t-60 -143.5t-144 -59.5t-143.5 59.5t-59.5 143.5zM73 531
q0 -64 44.5 -108.5t108.5 -44.5t109 44.5t45 108.5t-45 109t-109 45t-108.5 -45t-44.5 -109z" />
    <glyph glyph-name="macron" unicode="&#xaf;" horiz-adv-x="314" 
d="M6 572v69h302v-69h-302z" />
    <glyph glyph-name="degree" unicode="&#xb0;" horiz-adv-x="332" 
d="M310 568q0 -59 -42.5 -101.5t-101.5 -42.5t-101.5 42.5t-42.5 101.5t42.5 101.5t101.5 42.5t101.5 -42.5t42.5 -101.5zM94 567q0 -30 20.5 -50.5t50.5 -20.5t51 20.5t21 50.5t-21 51t-51 21t-50.5 -21t-20.5 -51z" />
    <glyph glyph-name="plusminus" unicode="&#xb1;" horiz-adv-x="520" 
d="M45 0v68h430v-68h-430zM45 261v70h178v143h74v-143h178v-70h-178v-149h-74v149h-178z" />
    <glyph glyph-name="twosuperior" unicode="&#xb2;" horiz-adv-x="350" 
d="M256 559l-100 -111h152v-54h-279l165 181q17 19 26 29.5t18 29.5t9 38q0 34 -20.5 58t-59.5 24q-62 0 -88 -71l-51 21q14 43 51 72.5t88 29.5q60 0 98 -36.5t38 -97.5q0 -58 -47 -113z" />
    <glyph glyph-name="threesuperior" unicode="&#xb3;" horiz-adv-x="352" 
d="M251 692q0 27 -19.5 44.5t-51.5 17.5q-27 0 -47.5 -14t-27.5 -28l-7 -14l-46 23q1 3 4 9t13.5 20.5t23.5 26t36.5 20.5t50.5 9q55 0 91 -32.5t36 -81.5q0 -18 -5.5 -34t-13.5 -25.5t-16.5 -16t-13.5 -9.5l-6 -3q2 -1 6 -2.5t14 -8.5t17.5 -17t14 -28.5t6.5 -42.5
q0 -53 -40.5 -85t-98.5 -32q-30 0 -55 10t-39 24t-24 28.5t-13 24.5l-4 10l47 23l2.5 -7.5t8.5 -16t16 -20.5t25 -16.5t36 -7.5q35 0 59 17.5t24 47.5q0 71 -78 71h-24v52h17q36 0 59 15.5t23 48.5z" />
    <glyph glyph-name="acute" unicode="&#xb4;" horiz-adv-x="264" 
d="M194 701l52 -52l-151 -144l-50 47z" />
    <glyph glyph-name="mu" unicode="&#xb5;" horiz-adv-x="528" 
d="M66 -230v692h84v-279q0 -57 31 -87t80 -30q22 0 42.5 8t33.5 19.5t22.5 23t14.5 19.5l4 8v318h84v-462h-78v71q-2 -3 -5 -9t-16 -20t-28 -25t-40.5 -20t-54.5 -9q-49 0 -90 22v-240h-84z" />
    <glyph glyph-name="mu" unicode="&#x3bc;" horiz-adv-x="528" 
d="M66 -230v692h84v-279q0 -57 31 -87t80 -30q22 0 42.5 8t33.5 19.5t22.5 23t14.5 19.5l4 8v318h84v-462h-78v71q-2 -3 -5 -9t-16 -20t-28 -25t-40.5 -20t-54.5 -9q-49 0 -90 22v-240h-84z" />
    <glyph glyph-name="paragraph" unicode="&#xb6;" horiz-adv-x="618" 
d="M358 622v-810h-84v414q-98 0 -168 69t-70 167t70 168t168 70h262v-888h-84v810h-94z" />
    <glyph glyph-name="periodcentered" unicode="&#xb7;" horiz-adv-x="230" 
d="M58 350q0 23 17 40t40 17t40 -17t17 -40t-17 -40t-40 -17t-40 17t-17 40z" />
    <glyph glyph-name="cedilla" unicode="&#xb8;" horiz-adv-x="315" 
d="M227 -56l-59 -198l-80 24l62 183z" />
    <glyph glyph-name="onesuperior" unicode="&#xb9;" horiz-adv-x="288" 
d="M12 677l148 123h48v-406h-56v330l-107 -88z" />
    <glyph glyph-name="ordmasculine" unicode="&#xba;" horiz-adv-x="332" 
d="M310 568q0 -59 -42.5 -101.5t-101.5 -42.5t-101.5 42.5t-42.5 101.5t42.5 101.5t101.5 42.5t101.5 -42.5t42.5 -101.5zM87 568q0 -35 22.5 -56.5t56.5 -21.5t56.5 21.5t22.5 56.5t-22.5 57t-56.5 22t-56.5 -22t-22.5 -57z" />
    <glyph glyph-name="guillemotright" unicode="&#xbb;" horiz-adv-x="488" 
d="M474 245l-177 -231l-59 44l146 187l-146 187l59 44zM114 476l177 -231l-177 -231l-59 44l146 187l-146 187z" />
    <glyph glyph-name="onequarter" unicode="&#xbc;" horiz-adv-x="830" 
d="M466 93l217 313h50v-259h54v-54h-54v-93h-56v93h-211zM564 147h113v164zM46 577l148 123h48v-406h-56v330l-107 -88zM189 0l475 730l43 -30l-473 -731z" />
    <glyph glyph-name="onehalf" unicode="&#xbd;" horiz-adv-x="830" 
d="M714 165l-100 -111h152v-54h-279l165 181q17 19 26 29.5t18 29.5t9 38q0 34 -20.5 58t-59.5 24q-62 0 -88 -71l-51 21q14 43 51 72.5t88 29.5q60 0 98 -36.5t38 -97.5q0 -58 -47 -113zM141 0l475 730l43 -30l-473 -731zM46 577l148 123h48v-406h-56v330l-107 -88z" />
    <glyph glyph-name="threequarters" unicode="&#xbe;" horiz-adv-x="830" 
d="M189 0l475 730l43 -30l-473 -731zM467 93l217 313h50v-259h54v-54h-54v-93h-56v93h-211zM565 147h113v164zM264 592q0 27 -19.5 44.5t-51.5 17.5q-27 0 -47.5 -14t-27.5 -28l-7 -14l-46 23q1 3 4 9t13.5 20.5t23.5 26t36.5 20.5t50.5 9q55 0 91 -32.5t36 -81.5
q0 -29 -14 -51t-28 -29l-13 -8q2 -1 6 -2.5t14 -8.5t17.5 -17t14 -28.5t6.5 -42.5q0 -53 -40.5 -85t-98.5 -32q-30 0 -55 10t-39 24t-24 28.5t-14 24.5l-3 10l47 23l2.5 -7.5t8.5 -16t16 -20.5t25 -16.5t36 -7.5q35 0 59 17.5t24 47.5q0 71 -78 71h-24v52h17q36 0 59 15.5
t23 48.5z" />
    <glyph glyph-name="questiondown" unicode="&#xbf;" horiz-adv-x="482" 
d="M130 -57q0 -47 35 -81t85 -34q46 0 80.5 26t46.5 52l12 25l72 -34q-2 -6 -6 -16t-21 -35t-38.5 -44.5t-60.5 -35.5t-85 -16q-84 0 -144 55.5t-60 137.5q0 34 9.5 63.5t28.5 53.5t33 37.5t36 32.5q41 33 48.5 46.5t7.5 47.5v58h78v-58q0 -53 -11.5 -77t-58.5 -65
q-4 -4 -15.5 -13t-16 -13.5t-14 -13.5t-14 -15t-11 -16t-9 -19.5t-5 -22t-2.5 -26.5zM304 418q0 -23 -16.5 -40t-39.5 -17t-40 17t-17 40t17 39.5t40 16.5t39.5 -16.5t16.5 -39.5z" />
    <glyph glyph-name="Agrave" unicode="&#xc0;" horiz-adv-x="642" 
d="M8 0l275 700h78l273 -700h-88l-73 189h-302l-73 -189h-90zM322 580l-120 -311h240zM193 887l52 52l149 -149l-50 -47z" />
    <glyph glyph-name="Aacute" unicode="&#xc1;" horiz-adv-x="642" 
d="M8 0l275 700h78l273 -700h-88l-73 189h-302l-73 -189h-90zM322 580l-120 -311h240zM399 939l52 -52l-151 -144l-50 47z" />
    <glyph glyph-name="Acircumflex" unicode="&#xc2;" horiz-adv-x="642" 
d="M8 0l275 700h78l273 -700h-88l-73 189h-302l-73 -189h-90zM322 580l-120 -311h240zM324 920l166 -121l-46 -54l-120 92l-120 -92l-46 54z" />
    <glyph glyph-name="Atilde" unicode="&#xc3;" horiz-adv-x="642" 
d="M8 0l275 700h78l273 -700h-88l-73 189h-302l-73 -189h-90zM322 580l-120 -311h240zM209 771l-59 37q1 3 3.5 9t12 20.5t21.5 25.5t33 20t45 9q28 0 64 -22.5t48 -22.5q19 0 33 12.5t19 24.5l5 13l58 -37l-3 -9t-11 -20.5t-20.5 -25.5t-32.5 -20t-45 -9q-30 0 -66 22.5
t-48 22.5q-19 0 -33.5 -12.5t-18.5 -24.5z" />
    <glyph glyph-name="Adieresis" unicode="&#xc4;" horiz-adv-x="642" 
d="M8 0l275 700h78l273 -700h-88l-73 189h-302l-73 -189h-90zM322 580l-120 -311h240zM174 838q0 23 17 40t40 17t40 -17t17 -40t-17 -40t-40 -17t-40 17t-17 40zM355 838q0 23 17 40t40 17t40 -17t17 -40t-17 -40t-40 -17t-40 17t-17 40z" />
    <glyph glyph-name="Aring" unicode="&#xc5;" horiz-adv-x="642" 
d="M8 0l275 700h78l273 -700h-88l-73 189h-302l-73 -189h-90zM322 580l-120 -311h240zM267 840q0 -23 16 -39t39 -16t39 16t16 39t-16 39t-39 16t-39 -16t-16 -39zM214 840q0 45 31.5 76.5t76.5 31.5t76.5 -31.5t31.5 -76.5t-31.5 -76.5t-76.5 -31.5t-76.5 31.5t-31.5 76.5z
" />
    <glyph glyph-name="AE" unicode="&#xc6;" horiz-adv-x="885" 
d="M8 0l408 700h411v-80h-280v-221h256v-80h-256v-239h286v-80h-370v189h-252l-110 -189h-93zM257 269h206v352z" />
    <glyph glyph-name="Ccedilla" unicode="&#xc7;" horiz-adv-x="663" 
d="M397 -56l-59 -198l-80 24l62 183zM635 605l-58 -55q-3 3 -8 8.5t-23 20t-38.5 25t-54 19.5t-69.5 9q-111 0 -183.5 -83.5t-72.5 -198.5t72.5 -198.5t183.5 -83.5q36 0 69.5 9.5t56.5 23.5t41 27.5t27 23.5l8 9l57 -58q-4 -5 -11.5 -12.5t-32.5 -27.5t-53 -35t-72 -27.5
t-90 -12.5q-150 0 -248 104.5t-98 257.5t98 257.5t248 104.5q73 0 135.5 -27t88.5 -53z" />
    <glyph glyph-name="Egrave" unicode="&#xc8;" horiz-adv-x="544" 
d="M166 620v-221h296v-80h-296v-239h326v-80h-410v700h404v-80h-320zM161 887l52 52l149 -149l-50 -47z" />
    <glyph glyph-name="Eacute" unicode="&#xc9;" horiz-adv-x="544" 
d="M166 620v-221h296v-80h-296v-239h326v-80h-410v700h404v-80h-320zM349 939l52 -52l-151 -144l-50 47z" />
    <glyph glyph-name="Ecircumflex" unicode="&#xca;" horiz-adv-x="544" 
d="M166 620v-221h296v-80h-296v-239h326v-80h-410v700h404v-80h-320zM283 920l166 -121l-46 -54l-120 92l-120 -92l-46 54z" />
    <glyph glyph-name="Edieresis" unicode="&#xcb;" horiz-adv-x="544" 
d="M166 620v-221h296v-80h-296v-239h326v-80h-410v700h404v-80h-320zM141 838q0 23 17 40t40 17t40 -17t17 -40t-17 -40t-40 -17t-40 17t-17 40zM322 838q0 23 17 40t40 17t40 -17t17 -40t-17 -40t-40 -17t-40 17t-17 40z" />
    <glyph glyph-name="Igrave" unicode="&#xcc;" horiz-adv-x="276" 
d="M96 0v700h84v-700h-84zM20 887l52 52l149 -149l-50 -47z" />
    <glyph glyph-name="Iacute" unicode="&#xcd;" horiz-adv-x="276" 
d="M204 939l52 -52l-151 -144l-50 47zM96 0v700h84v-700h-84z" />
    <glyph glyph-name="Icircumflex" unicode="&#xce;" horiz-adv-x="276" 
d="M96 0v700h84v-700h-84zM138 922l166 -121l-46 -54l-120 92l-120 -92l-46 54z" />
    <glyph glyph-name="Idieresis" unicode="&#xcf;" horiz-adv-x="276" 
d="M85 0v700h84v-700h-84zM-20 838q0 23 17 40t40 17t40 -17t17 -40t-17 -40t-40 -17t-40 17t-17 40zM161 838q0 23 17 40t40 17t40 -17t17 -40t-17 -40t-40 -17t-40 17t-17 40z" />
    <glyph glyph-name="Eth" unicode="&#xd0;" horiz-adv-x="672" 
d="M12 326v70h85v304h191q151 0 248.5 -99t97.5 -251t-97.5 -251t-248.5 -99h-191v326h-85zM288 80q112 0 184 78t72 192t-72 192t-184 78h-107v-224h203v-70h-203v-246h107z" />
    <glyph glyph-name="Ntilde" unicode="&#xd1;" horiz-adv-x="710" 
d="M82 700h87l375 -560v560h84v-700h-87l-375 560v-560h-84v700zM247 791l-59 37q1 3 3.5 9t12 20.5t21.5 25.5t33 20t45 9q28 0 64 -22.5t48 -22.5q19 0 33 12.5t19 24.5l5 13l58 -37l-3 -9t-11 -20.5t-20.5 -25.5t-32.5 -20t-45 -9q-30 0 -66 22.5t-48 22.5
q-19 0 -33.5 -12.5t-18.5 -24.5z" />
    <glyph glyph-name="Ograve" unicode="&#xd2;" horiz-adv-x="768" 
d="M384 712q150 0 248 -104.5t98 -257.5t-98 -257.5t-248 -104.5t-248 104.5t-98 257.5t98 257.5t248 104.5zM384 68q112 0 184 83.5t72 198.5t-72 198.5t-184 83.5t-184 -83.5t-72 -198.5t72 -198.5t184 -83.5zM261 897l52 52l149 -149l-50 -47z" />
    <glyph glyph-name="Oacute" unicode="&#xd3;" horiz-adv-x="768" 
d="M447 949l52 -52l-151 -144l-50 47zM384 712q150 0 248 -104.5t98 -257.5t-98 -257.5t-248 -104.5t-248 104.5t-98 257.5t98 257.5t248 104.5zM384 68q112 0 184 83.5t72 198.5t-72 198.5t-184 83.5t-184 -83.5t-72 -198.5t72 -198.5t184 -83.5z" />
    <glyph glyph-name="Ocircumflex" unicode="&#xd4;" horiz-adv-x="768" 
d="M384 712q150 0 248 -104.5t98 -257.5t-98 -257.5t-248 -104.5t-248 104.5t-98 257.5t98 257.5t248 104.5zM384 68q112 0 184 83.5t72 198.5t-72 198.5t-184 83.5t-184 -83.5t-72 -198.5t72 -198.5t184 -83.5zM384 922l166 -121l-46 -54l-120 92l-120 -92l-46 54z" />
    <glyph glyph-name="Otilde" unicode="&#xd5;" horiz-adv-x="768" 
d="M384 712q150 0 248 -104.5t98 -257.5t-98 -257.5t-248 -104.5t-248 104.5t-98 257.5t98 257.5t248 104.5zM384 68q112 0 184 83.5t72 198.5t-72 198.5t-184 83.5t-184 -83.5t-72 -198.5t72 -198.5t184 -83.5zM272 771l-59 37q1 3 3.5 9t12 20.5t21.5 25.5t33 20t45 9
q28 0 64 -22.5t48 -22.5q19 0 33 12.5t19 24.5l5 13l58 -37l-3 -9t-11 -20.5t-20.5 -25.5t-32.5 -20t-45 -9q-30 0 -66 22.5t-48 22.5q-19 0 -33.5 -12.5t-19.5 -24.5z" />
    <glyph glyph-name="Odieresis" unicode="&#xd6;" horiz-adv-x="768" 
d="M384 712q150 0 248 -104.5t98 -257.5t-98 -257.5t-248 -104.5t-248 104.5t-98 257.5t98 257.5t248 104.5zM384 68q112 0 184 83.5t72 198.5t-72 198.5t-184 83.5t-184 -83.5t-72 -198.5t72 -198.5t184 -83.5zM237 838q0 23 17 40t40 17t40 -17t17 -40t-17 -40t-40 -17
t-40 17t-17 40zM418 838q0 23 17 40t40 17t40 -17t17 -40t-17 -40t-40 -17t-40 17t-17 40z" />
    <glyph glyph-name="multiply" unicode="&#xd7;" horiz-adv-x="520" 
d="M41 425l49 49l170 -170l170 170l49 -49l-170 -170l170 -170l-49 -49l-170 170l-170 -170l-49 49l170 170z" />
    <glyph glyph-name="Oslash" unicode="&#xd8;" horiz-adv-x="776" 
d="M388 712q122 0 214 -73l74 88l44 -38l-76 -90q90 -103 90 -249q0 -153 -98 -257.5t-248 -104.5q-115 0 -204 65l-69 -81l-44 38l69 82q-98 104 -98 258q0 153 98 257.5t248 104.5zM132 350q0 -109 65 -190l349 413q-67 59 -158 59q-111 0 -183.5 -83.5t-72.5 -198.5z
M388 68q111 0 183.5 83.5t72.5 198.5q0 102 -58 180l-347 -411q64 -51 149 -51z" />
    <glyph glyph-name="Ugrave" unicode="&#xd9;" horiz-adv-x="674" 
d="M508 267v433h84v-442q0 -121 -68.5 -195.5t-186.5 -74.5t-186.5 74.5t-68.5 195.5v442h84v-433q0 -90 42 -144.5t129 -54.5t129 54.5t42 144.5zM193 887l52 52l149 -149l-50 -47z" />
    <glyph glyph-name="Uacute" unicode="&#xda;" horiz-adv-x="674" 
d="M508 267v433h84v-442q0 -121 -68.5 -195.5t-186.5 -74.5t-186.5 74.5t-68.5 195.5v442h84v-433q0 -90 42 -144.5t129 -54.5t129 54.5t42 144.5zM430 939l52 -52l-151 -144l-50 47z" />
    <glyph glyph-name="Ucircumflex" unicode="&#xdb;" horiz-adv-x="674" 
d="M508 267v433h84v-442q0 -121 -68.5 -195.5t-186.5 -74.5t-186.5 74.5t-68.5 195.5v442h84v-433q0 -90 42 -144.5t129 -54.5t129 54.5t42 144.5zM337 921l166 -121l-46 -54l-120 92l-120 -92l-46 54z" />
    <glyph glyph-name="Udieresis" unicode="&#xdc;" horiz-adv-x="674" 
d="M508 267v433h84v-442q0 -121 -68.5 -195.5t-186.5 -74.5t-186.5 74.5t-68.5 195.5v442h84v-433q0 -90 42 -144.5t129 -54.5t129 54.5t42 144.5zM190 838q0 23 17 40t40 17t40 -17t17 -40t-17 -40t-40 -17t-40 17t-17 40zM371 838q0 23 17 40t40 17t40 -17t17 -40t-17 -40
t-40 -17t-40 17t-17 40z" />
    <glyph glyph-name="Yacute" unicode="&#xdd;" 
d="M248 0v275l-236 425h94l188 -344l185 344h89l-236 -425v-275h-84zM379 939l52 -52l-151 -144l-50 47z" />
    <glyph glyph-name="Thorn" unicode="&#xde;" horiz-adv-x="540" 
d="M82 0v700h84v-127h105q107 0 172 -50.5t65 -147.5t-65 -147.5t-172 -50.5h-105v-177h-84zM271 257q74 0 113.5 27t39.5 91t-39.5 91t-113.5 27h-105v-236h105z" />
    <glyph glyph-name="germandbls" unicode="&#xdf;" horiz-adv-x="568" 
d="M66 0v553q0 97 53 156t149 59q26 0 53.5 -6t54.5 -21t48.5 -36.5t34.5 -55t13 -74.5q0 -31 -9.5 -57t-23 -41.5t-27.5 -26.5t-24 -15l-9 -4q6 -1 15.5 -4.5t34.5 -18.5t44.5 -35.5t35 -59t15.5 -86.5q0 -61 -23 -108.5t-61 -75t-82 -41.5t-91 -14h-30v78h25
q87 0 132.5 45.5t45.5 115.5t-49 115.5t-144 45.5v74q77 0 109 33.5t32 80.5q0 40 -28 77t-92 37q-63 0 -90.5 -41.5t-27.5 -101.5v-547h-84z" />
    <glyph glyph-name="agrave" unicode="&#xe0;" horiz-adv-x="512" 
d="M247 474q96 0 148.5 -50t52.5 -120v-304h-77v67q-2 -3 -6 -8.5t-19 -19t-31.5 -24t-44 -19t-56.5 -8.5q-67 0 -119.5 43.5t-52.5 114.5q0 67 52 110.5t131 43.5q38 0 72.5 -9.5t50.5 -18.5l16 -10v25q0 34 -12.5 57.5t-32.5 33.5t-37.5 14t-34.5 4q-31 0 -65.5 -10
t-53.5 -20l-19 -9l-35 70q8 5 23 13t60 21t90 13zM232 62q36 0 69 17.5t48 34.5l15 18v65q-46 33 -121 33q-53 0 -85 -23.5t-32 -60.5q0 -42 31 -63t75 -21zM157 669l52 52l149 -149l-50 -47z" />
    <glyph glyph-name="aacute" unicode="&#xe1;" horiz-adv-x="512" 
d="M358 721l52 -52l-151 -144l-50 47zM247 474q96 0 148.5 -50t52.5 -120v-304h-77v67q-2 -3 -6 -8.5t-19 -19t-31.5 -24t-44 -19t-56.5 -8.5q-67 0 -119.5 43.5t-52.5 114.5q0 67 52 110.5t131 43.5q38 0 72.5 -9.5t50.5 -18.5l16 -10v25q0 34 -12.5 57.5t-32.5 33.5
t-37.5 14t-34.5 4q-31 0 -65.5 -10t-53.5 -20l-19 -9l-35 70q8 5 23 13t60 21t90 13zM232 62q36 0 69 17.5t48 34.5l15 18v65q-46 33 -121 33q-53 0 -85 -23.5t-32 -60.5q0 -42 31 -63t75 -21z" />
    <glyph glyph-name="acircumflex" unicode="&#xe2;" horiz-adv-x="512" 
d="M247 474q96 0 148.5 -50t52.5 -120v-304h-77v67q-2 -3 -6 -8.5t-19 -19t-31.5 -24t-44 -19t-56.5 -8.5q-67 0 -119.5 43.5t-52.5 114.5q0 67 52 110.5t131 43.5q38 0 72.5 -9.5t50.5 -18.5l16 -10v25q0 34 -12.5 57.5t-32.5 33.5t-37.5 14t-34.5 4q-31 0 -65.5 -10
t-53.5 -20l-19 -9l-35 70q8 5 23 13t60 21t90 13zM232 62q36 0 69 17.5t48 34.5l15 18v65q-46 33 -121 33q-53 0 -85 -23.5t-32 -60.5q0 -42 31 -63t75 -21zM267 702l166 -121l-46 -54l-120 92l-120 -92l-46 54z" />
    <glyph glyph-name="atilde" unicode="&#xe3;" horiz-adv-x="512" 
d="M247 474q96 0 148.5 -50t52.5 -120v-304h-77v67q-2 -3 -6 -8.5t-19 -19t-31.5 -24t-44 -19t-56.5 -8.5q-67 0 -119.5 43.5t-52.5 114.5q0 67 52 110.5t131 43.5q38 0 72.5 -9.5t50.5 -18.5l16 -10v25q0 34 -12.5 57.5t-32.5 33.5t-37.5 14t-34.5 4q-31 0 -65.5 -10
t-53.5 -20l-19 -9l-35 70q8 5 23 13t60 21t90 13zM232 62q36 0 69 17.5t48 34.5l15 18v65q-46 33 -121 33q-53 0 -85 -23.5t-32 -60.5q0 -42 31 -63t75 -21zM149 552l-59 37q1 3 3.5 9t12 20.5t21.5 25.5t33 20t45 9q28 0 64 -22.5t48 -22.5q19 0 33 12.5t19 25.5l5 12
l58 -37l-3 -9t-11 -20.5t-20.5 -25.5t-32.5 -20t-45 -9q-30 0 -66 22.5t-48 22.5q-19 0 -33.5 -12.5t-18.5 -25.5z" />
    <glyph glyph-name="adieresis" unicode="&#xe4;" horiz-adv-x="512" 
d="M247 474q96 0 148.5 -50t52.5 -120v-304h-77v67q-2 -3 -6 -8.5t-19 -19t-31.5 -24t-44 -19t-56.5 -8.5q-67 0 -119.5 43.5t-52.5 114.5q0 67 52 110.5t131 43.5q38 0 72.5 -9.5t50.5 -18.5l16 -10v25q0 34 -12.5 57.5t-32.5 33.5t-37.5 14t-34.5 4q-31 0 -65.5 -10
t-53.5 -20l-19 -9l-35 70q8 5 23 13t60 21t90 13zM232 62q36 0 69 17.5t48 34.5l15 18v65q-46 33 -121 33q-53 0 -85 -23.5t-32 -60.5q0 -42 31 -63t75 -21zM115 610q0 23 17 40t40 17t40 -17t17 -40t-17 -40t-40 -17t-40 17t-17 40zM296 610q0 23 17 40t40 17t40 -17
t17 -40t-17 -40t-40 -17t-40 17t-17 40z" />
    <glyph glyph-name="aring" unicode="&#xe5;" horiz-adv-x="512" 
d="M247 474q96 0 148.5 -50t52.5 -120v-304h-77v67q-2 -3 -6 -8.5t-19 -19t-31.5 -24t-44 -19t-56.5 -8.5q-67 0 -119.5 43.5t-52.5 114.5q0 67 52 110.5t131 43.5q38 0 72.5 -9.5t50.5 -18.5l16 -10v25q0 34 -12.5 57.5t-32.5 33.5t-37.5 14t-34.5 4q-31 0 -65.5 -10
t-53.5 -20l-19 -9l-35 70q8 5 23 13t60 21t90 13zM232 62q36 0 69 17.5t48 34.5l15 18v65q-46 33 -121 33q-53 0 -85 -23.5t-32 -60.5q0 -42 31 -63t75 -21zM206 645q0 -23 16 -39t39 -16t39 16t16 39t-16 39t-39 16t-39 -16t-16 -39zM153 645q0 45 31.5 76.5t76.5 31.5
t76.5 -31.5t31.5 -76.5t-31.5 -76.5t-76.5 -31.5t-76.5 31.5t-31.5 76.5z" />
    <glyph glyph-name="ae" unicode="&#xe6;" horiz-adv-x="820" 
d="M579 474q96 0 158 -67.5t62 -178.5q0 -16 -1 -27h-363q2 -54 47 -94.5t106 -40.5q41 0 78 19t61 50l52 -54q-34 -41 -85.5 -67t-105.5 -26q-61 0 -112.5 28.5t-81.5 75.5q-26 -45 -74 -74.5t-110 -29.5q-70 0 -119 39t-49 107q0 41 16.5 69.5t44 42t53.5 19t54 5.5h144v9
q0 56 -38.5 86.5t-93.5 30.5q-29 0 -58.5 -10.5t-44.5 -21.5l-15 -10l-42 66q8 6 22 15t56 24t82 15q132 0 187 -81q67 81 170 81zM437 270h279q-2 46 -37.5 86t-99.5 40q-63 0 -101 -41t-41 -85zM210 66q64 0 104 36t40 71v28q-37 2 -119 2q-23 0 -38.5 -2t-33.5 -8.5
t-27.5 -21t-9.5 -37.5q0 -34 27 -51t57 -17z" />
    <glyph glyph-name="ccedilla" unicode="&#xe7;" horiz-adv-x="477" 
d="M405 132l54 -55q-3 -4 -8 -10t-23.5 -21t-38.5 -27t-52.5 -21.5t-66.5 -9.5q-102 0 -170 70t-68 173q0 102 68.5 172.5t169.5 70.5q52 0 98 -21t66 -41l20 -21l-57 -51q-5 6 -15 15.5t-43 25t-69 15.5q-68 0 -111 -47.5t-43 -117.5t43 -117.5t111 -47.5q25 0 48.5 7
t38.5 16.5t26.5 19t16.5 16.5zM300 -56l-59 -198l-80 24l62 183z" />
    <glyph glyph-name="egrave" unicode="&#xe8;" horiz-adv-x="520" 
d="M263 474q98 0 161.5 -68t63.5 -178q0 -16 -1 -27h-373q4 -54 49.5 -94.5t109.5 -40.5q40 0 75 17t50 34l14 17l53 -55q-3 -4 -8.5 -10t-24 -21.5t-39 -27.5t-53.5 -22t-67 -10q-104 0 -172.5 70t-68.5 173t64.5 173t166.5 70zM116 271h290q-3 45 -41 85t-102 40
q-67 0 -104 -39.5t-43 -85.5zM162 670l52 52l149 -149l-50 -47z" />
    <glyph glyph-name="eacute" unicode="&#xe9;" horiz-adv-x="520" 
d="M323 721l52 -52l-151 -144l-50 47zM263 474q98 0 161.5 -68t63.5 -178q0 -16 -1 -27h-373q4 -54 49.5 -94.5t109.5 -40.5q40 0 75 17t50 34l14 17l53 -55q-3 -4 -8.5 -10t-24 -21.5t-39 -27.5t-53.5 -22t-67 -10q-104 0 -172.5 70t-68.5 173t64.5 173t166.5 70zM116 271
h290q-3 45 -41 85t-102 40q-67 0 -104 -39.5t-43 -85.5z" />
    <glyph glyph-name="ecircumflex" unicode="&#xea;" horiz-adv-x="520" 
d="M263 474q98 0 161.5 -68t63.5 -178q0 -16 -1 -27h-373q4 -54 49.5 -94.5t109.5 -40.5q40 0 75 17t50 34l14 17l53 -55q-3 -4 -8.5 -10t-24 -21.5t-39 -27.5t-53.5 -22t-67 -10q-104 0 -172.5 70t-68.5 173t64.5 173t166.5 70zM116 271h290q-3 45 -41 85t-102 40
q-67 0 -104 -39.5t-43 -85.5zM270 702l166 -121l-46 -54l-120 92l-120 -92l-46 54z" />
    <glyph glyph-name="edieresis" unicode="&#xeb;" horiz-adv-x="520" 
d="M263 474q98 0 161.5 -68t63.5 -178q0 -16 -1 -27h-373q4 -54 49.5 -94.5t109.5 -40.5q40 0 75 17t50 34l14 17l53 -55q-3 -4 -8.5 -10t-24 -21.5t-39 -27.5t-53.5 -22t-67 -10q-104 0 -172.5 70t-68.5 173t64.5 173t166.5 70zM116 271h290q-3 45 -41 85t-102 40
q-67 0 -104 -39.5t-43 -85.5zM117 610q0 23 17 40t40 17t40 -17t17 -40t-17 -40t-40 -17t-40 17t-17 40zM298 610q0 23 17 40t40 17t40 -17t17 -40t-17 -40t-40 -17t-40 17t-17 40z" />
    <glyph glyph-name="igrave" unicode="&#xec;" horiz-adv-x="224" 
d="M3 669l52 52l149 -149l-50 -47zM70 0v462h84v-462h-84z" />
    <glyph glyph-name="iacute" unicode="&#xed;" horiz-adv-x="229" 
d="M174 721l52 -52l-151 -144l-50 47zM70 0v462h84v-462h-84z" />
    <glyph glyph-name="icircumflex" unicode="&#xee;" horiz-adv-x="256" 
d="M86 0v462h84v-462h-84zM128 712l166 -121l-46 -54l-120 92l-120 -92l-46 54z" />
    <glyph glyph-name="idieresis" unicode="&#xef;" horiz-adv-x="245" 
d="M-25 610q0 23 17 40t40 17t40 -17t17 -40t-17 -40t-40 -17t-40 17t-17 40zM156 610q0 23 17 40t40 17t40 -17t17 -40t-17 -40t-40 -17t-40 17t-17 40zM80 0v462h84v-462h-84z" />
    <glyph glyph-name="eth" unicode="&#xf0;" horiz-adv-x="544" 
d="M129 529l-30 64l97 45q-53 34 -112 65l34 65q85 -42 158 -93l126 59l30 -64l-94 -44q170 -152 170 -354q0 -141 -65.5 -212.5t-172.5 -71.5q-102 0 -170 70t-68 173t68 173t170 70q36 0 68.5 -12t46.5 -24l14 -13q-38 86 -138 165zM272 66q68 0 111 47.5t43 117.5
q0 71 -42.5 118t-111.5 47q-68 0 -111 -47.5t-43 -117.5t43 -117.5t111 -47.5z" />
    <glyph glyph-name="ntilde" unicode="&#xf1;" horiz-adv-x="522" 
d="M284 474q73 0 123.5 -47.5t50.5 -129.5v-297h-84v283q0 56 -31 84.5t-80 28.5q-21 0 -40.5 -8t-32.5 -19.5t-23 -23t-15 -19.5l-4 -8v-318h-84v462h78v-65q2 3 5.5 8.5t16 18.5t27.5 23t40 18.5t53 8.5zM150 553l-59 37q1 3 3.5 9t12 20.5t21.5 25.5t33 20t45 9
q28 0 64 -22.5t48 -22.5q19 0 33 12.5t19 24.5l5 13l58 -37l-3 -9t-11 -20.5t-20.5 -25.5t-32.5 -20t-45 -9q-30 0 -66 22.5t-48 22.5q-19 0 -33.5 -12.5t-19.5 -24.5z" />
    <glyph glyph-name="ograve" unicode="&#xf2;" horiz-adv-x="540" 
d="M270 474q102 0 170 -70t68 -173t-68 -173t-170 -70t-170 70t-68 173t68 173t170 70zM270 66q68 0 111 47.5t43 117.5t-43 117.5t-111 47.5t-111 -47.5t-43 -117.5t43 -117.5t111 -47.5zM146 669l52 52l149 -149l-50 -47z" />
    <glyph glyph-name="oacute" unicode="&#xf3;" horiz-adv-x="540" 
d="M332 721l52 -52l-151 -144l-50 47zM270 474q102 0 170 -70t68 -173t-68 -173t-170 -70t-170 70t-68 173t68 173t170 70zM270 66q68 0 111 47.5t43 117.5t-43 117.5t-111 47.5t-111 -47.5t-43 -117.5t43 -117.5t111 -47.5z" />
    <glyph glyph-name="ocircumflex" unicode="&#xf4;" horiz-adv-x="540" 
d="M270 474q102 0 170 -70t68 -173t-68 -173t-170 -70t-170 70t-68 173t68 173t170 70zM270 66q68 0 111 47.5t43 117.5t-43 117.5t-111 47.5t-111 -47.5t-43 -117.5t43 -117.5t111 -47.5zM270 702l166 -121l-46 -54l-120 92l-120 -92l-46 54z" />
    <glyph glyph-name="otilde" unicode="&#xf5;" horiz-adv-x="540" 
d="M270 474q102 0 170 -70t68 -173t-68 -173t-170 -70t-170 70t-68 173t68 173t170 70zM270 66q68 0 111 47.5t43 117.5t-43 117.5t-111 47.5t-111 -47.5t-43 -117.5t43 -117.5t111 -47.5zM159 553l-59 37q1 3 3.5 9t12 20.5t21.5 25.5t33 20t45 9q28 0 64 -22.5t48 -22.5
q19 0 33 12.5t19 24.5l5 13l58 -37l-3 -9t-11 -20.5t-20.5 -25.5t-32.5 -20t-45 -9q-30 0 -66 22.5t-48 22.5q-19 0 -33.5 -12.5t-18.5 -24.5z" />
    <glyph glyph-name="odieresis" unicode="&#xf6;" horiz-adv-x="540" 
d="M270 474q102 0 170 -70t68 -173t-68 -173t-170 -70t-170 70t-68 173t68 173t170 70zM270 66q68 0 111 47.5t43 117.5t-43 117.5t-111 47.5t-111 -47.5t-43 -117.5t43 -117.5t111 -47.5zM123 610q0 23 17 40t40 17t40 -17t17 -40t-17 -40t-40 -17t-40 17t-17 40zM304 610
q0 23 17 40t40 17t40 -17t17 -40t-17 -40t-40 -17t-40 17t-17 40z" />
    <glyph glyph-name="divide" unicode="&#xf7;" horiz-adv-x="520" 
d="M45 214v74h430v-74h-430zM202 95q0 23 17 40t40 17t40 -17t17 -40t-17 -40t-40 -17t-40 17t-17 40zM202 417q0 23 17 40t40 17t40 -17t17 -40t-17 -40t-40 -17t-40 17t-17 40z" />
    <glyph glyph-name="oslash" unicode="&#xf8;" horiz-adv-x="548" 
d="M274 474q75 0 135 -41l40 48l43 -37l-41 -49q61 -69 61 -164q0 -103 -68 -173t-170 -70q-74 0 -132 39l-39 -46l-43 37l39 46q-63 68 -63 167q0 103 68 173t170 70zM120 231q0 -61 32 -104l205 245q-37 24 -83 24q-68 0 -111 -47.5t-43 -117.5zM274 66q68 0 111 47.5
t43 117.5q0 57 -30 101l-205 -244q36 -22 81 -22z" />
    <glyph glyph-name="ugrave" unicode="&#xf9;" horiz-adv-x="522" 
d="M238 -12q-73 0 -123.5 47.5t-50.5 129.5v297h84v-283q0 -56 31 -84.5t80 -28.5q35 0 63.5 19t39.5 38l12 19v320h84v-462h-78v71q-2 -3 -5.5 -9t-16 -20t-27.5 -25t-40 -20t-53 -9zM134 669l52 52l149 -149l-50 -47z" />
    <glyph glyph-name="uacute" unicode="&#xfa;" horiz-adv-x="522" 
d="M340 721l52 -52l-151 -144l-50 47zM238 -12q-73 0 -123.5 47.5t-50.5 129.5v297h84v-283q0 -56 31 -84.5t80 -28.5q35 0 63.5 19t39.5 38l12 19v320h84v-462h-78v71q-2 -3 -5.5 -9t-16 -20t-27.5 -25t-40 -20t-53 -9z" />
    <glyph glyph-name="ucircumflex" unicode="&#xfb;" horiz-adv-x="522" 
d="M238 -12q-73 0 -123.5 47.5t-50.5 129.5v297h84v-283q0 -56 31 -84.5t80 -28.5q35 0 63.5 19t39.5 38l12 19v320h84v-462h-78v71q-2 -3 -5.5 -9t-16 -20t-27.5 -25t-40 -20t-53 -9zM262 712l166 -121l-46 -54l-120 92l-120 -92l-46 54z" />
    <glyph glyph-name="udieresis" unicode="&#xfc;" horiz-adv-x="522" 
d="M238 -12q-73 0 -123.5 47.5t-50.5 129.5v297h84v-283q0 -56 31 -84.5t80 -28.5q35 0 63.5 19t39.5 38l12 19v320h84v-462h-78v71q-2 -3 -5.5 -9t-16 -20t-27.5 -25t-40 -20t-53 -9zM114 610q0 23 17 40t40 17t40 -17t17 -40t-17 -40t-40 -17t-40 17t-17 40zM295 610
q0 23 17 40t40 17t40 -17t17 -40t-17 -40t-40 -17t-40 17t-17 40z" />
    <glyph glyph-name="yacute" unicode="&#xfd;" horiz-adv-x="500" 
d="M323 721l52 -52l-151 -144l-50 47zM27 -209l36 69q29 -24 55 -24t41.5 17t30.5 54l36 91l-216 464h95l162 -365l138 365h91q-232 -584 -243 -611q-19 -47 -53.5 -70t-74.5 -23q-25 0 -49.5 8t-36.5 16z" />
    <glyph glyph-name="thorn" unicode="&#xfe;" horiz-adv-x="571" 
d="M166 756v-351q52 69 149 69q94 0 159 -70.5t65 -172.5t-65 -172.5t-159 -70.5q-96 0 -149 69v-287h-84v986h84zM166 317v-172q2 -3 5.5 -8.5t16 -19t27 -24t38 -19t49.5 -8.5q69 0 111 47.5t42 117.5t-42 117.5t-111 47.5q-41 0 -75 -20t-47 -40z" />
    <glyph glyph-name="ydieresis" unicode="&#xff;" horiz-adv-x="500" 
d="M27 -209l36 69q29 -24 55 -24t41.5 17t30.5 54l36 91l-216 464h95l162 -365l138 365h91q-232 -584 -243 -611q-19 -47 -53.5 -70t-74.5 -23q-25 0 -49.5 8t-36.5 16zM110 610q0 23 17 40t40 17t40 -17t17 -40t-17 -40t-40 -17t-40 17t-17 40zM291 610q0 23 17 40t40 17
t40 -17t17 -40t-17 -40t-40 -17t-40 17t-17 40z" />
    <glyph glyph-name="Amacron" unicode="&#x100;" horiz-adv-x="642" 
d="M8 0l275 700h78l273 -700h-88l-73 189h-302l-73 -189h-90zM322 580l-120 -311h240zM170 790v69h302v-69h-302z" />
    <glyph glyph-name="amacron" unicode="&#x101;" horiz-adv-x="512" 
d="M247 474q96 0 148.5 -50t52.5 -120v-304h-77v67q-2 -3 -6 -8.5t-19 -19t-31.5 -24t-44 -19t-56.5 -8.5q-67 0 -119.5 43.5t-52.5 114.5q0 67 52 110.5t131 43.5q38 0 72.5 -9.5t50.5 -18.5l16 -10v25q0 34 -12.5 57.5t-32.5 33.5t-37.5 14t-34.5 4q-31 0 -65.5 -10
t-53.5 -20l-19 -9l-35 70q8 5 23 13t60 21t90 13zM232 62q36 0 69 17.5t48 34.5l15 18v65q-46 33 -121 33q-53 0 -85 -23.5t-32 -60.5q0 -42 31 -63t75 -21zM120 572v69h302v-69h-302z" />
    <glyph glyph-name="Abreve" unicode="&#x102;" horiz-adv-x="642" 
d="M8 0l275 700h78l273 -700h-88l-73 189h-302l-73 -189h-90zM322 580l-120 -311h240zM167 908h75v-8.5t4 -20t11 -25t24 -19.5t40 -9q37 0 56.5 20.5t20.5 41.5l2 20h75q0 -6 -1 -16t-10 -36t-23.5 -45.5t-46 -35.5t-73.5 -16t-73.5 15.5t-46 37.5t-23.5 43.5t-10 36.5z
" />
    <glyph glyph-name="abreve" unicode="&#x103;" horiz-adv-x="512" 
d="M247 474q96 0 148.5 -50t52.5 -120v-304h-77v67q-2 -3 -6 -8.5t-19 -19t-31.5 -24t-44 -19t-56.5 -8.5q-67 0 -119.5 43.5t-52.5 114.5q0 67 52 110.5t131 43.5q38 0 72.5 -9.5t50.5 -18.5l16 -10v25q0 34 -12.5 57.5t-32.5 33.5t-37.5 14t-34.5 4q-31 0 -65.5 -10
t-53.5 -20l-19 -9l-35 70q8 5 23 13t60 21t90 13zM232 62q36 0 69 17.5t48 34.5l15 18v65q-46 33 -121 33q-53 0 -85 -23.5t-32 -60.5q0 -42 31 -63t75 -21zM101 700h75v-8.5t4 -20t11 -25t24 -19.5t40 -9q37 0 56.5 20.5t20.5 41.5l2 20h75q0 -6 -1 -16t-10 -36
t-23.5 -45.5t-46 -35.5t-73.5 -16t-73.5 15.5t-46 37.5t-23.5 43.5t-10 36.5z" />
    <glyph glyph-name="Aogonek" unicode="&#x104;" horiz-adv-x="642" 
d="M8 0l275 700h78l273 -700q-7 0 -27.5 -6t-45 -26t-24.5 -47q0 -23 14.5 -36t36.5 -13q10 0 19 2t13 4l4 1v-69q-18 -7 -46 -7q-47 0 -77 29.5t-30 72.5q0 72 72 102l-70 182h-302l-73 -189h-90zM322 580l-120 -311h240z" />
    <glyph glyph-name="aogonek" unicode="&#x105;" horiz-adv-x="512" 
d="M247 474q96 0 148.5 -50t52.5 -120v-304h-1q-7 -2 -16 -5t-27.5 -12.5t-30.5 -25.5t-12 -36q0 -23 14.5 -36t36.5 -13q10 0 19 2t13 4l4 1v-69q-18 -7 -46 -7q-47 0 -77 29.5t-30 72.5q0 26 10 47t25 33t24.5 17.5t16.5 7.5v57q-2 -3 -6 -8.5t-19 -19t-31.5 -24t-44 -19
t-56.5 -8.5q-67 0 -119.5 43.5t-52.5 114.5q0 67 52 110.5t131 43.5q38 0 72.5 -9.5t50.5 -18.5l16 -10v25q0 27 -9.5 48t-22.5 32t-31 18t-32 9t-27 2q-31 0 -64.5 -10t-51.5 -20l-17 -9l-35 70q8 5 23 13t60 21t90 13zM232 62q36 0 69 17.5t48 34.5l15 18v65
q-46 33 -121 33q-53 0 -85 -23.5t-32 -60.5q0 -42 31 -63t75 -21z" />
    <glyph glyph-name="Cacute" unicode="&#x106;" horiz-adv-x="663" 
d="M635 605l-58 -55q-3 3 -8 8.5t-23 20t-38.5 25t-54 19.5t-69.5 9q-111 0 -183.5 -83.5t-72.5 -198.5t72.5 -198.5t183.5 -83.5q36 0 69.5 9.5t56.5 23.5t41 27.5t27 23.5l8 9l57 -58q-4 -5 -11.5 -12.5t-32.5 -27.5t-53 -35t-72 -27.5t-90 -12.5q-150 0 -248 104.5
t-98 257.5t98 257.5t248 104.5q73 0 135.5 -27t88.5 -53zM436 939l52 -52l-151 -144l-50 47z" />
    <glyph glyph-name="cacute" unicode="&#x107;" horiz-adv-x="477" 
d="M405 132l54 -55q-3 -4 -8 -10t-23.5 -21t-38.5 -27t-52.5 -21.5t-66.5 -9.5q-102 0 -170 70t-68 173q0 102 68.5 172.5t169.5 70.5q52 0 98 -21t66 -41l20 -21l-57 -51q-5 6 -15 15.5t-43 25t-69 15.5q-68 0 -111 -47.5t-43 -117.5t43 -117.5t111 -47.5q25 0 48.5 7
t38.5 16.5t26.5 19t16.5 16.5zM312 712l52 -52l-151 -144l-50 47z" />
    <glyph glyph-name="Ccircumflex" unicode="&#x108;" horiz-adv-x="663" 
d="M635 605l-58 -55q-3 3 -8 8.5t-23 20t-38.5 25t-54 19.5t-69.5 9q-111 0 -183.5 -83.5t-72.5 -198.5t72.5 -198.5t183.5 -83.5q36 0 69.5 9.5t56.5 23.5t41 27.5t27 23.5l8 9l57 -58q-4 -5 -11.5 -12.5t-32.5 -27.5t-53 -35t-72 -27.5t-90 -12.5q-150 0 -248 104.5
t-98 257.5t98 257.5t248 104.5q73 0 135.5 -27t88.5 -53zM379 941l166 -121l-46 -54l-120 92l-120 -92l-46 54z" />
    <glyph glyph-name="ccircumflex" unicode="&#x109;" horiz-adv-x="477" 
d="M405 132l54 -55q-3 -4 -8 -10t-23.5 -21t-38.5 -27t-52.5 -21.5t-66.5 -9.5q-102 0 -170 70t-68 173q0 102 68.5 172.5t169.5 70.5q52 0 98 -21t66 -41l20 -21l-57 -51q-5 6 -15 15.5t-43 25t-69 15.5q-68 0 -111 -47.5t-43 -117.5t43 -117.5t111 -47.5q25 0 48.5 7
t38.5 16.5t26.5 19t16.5 16.5zM268 702l166 -121l-46 -54l-120 92l-120 -92l-46 54z" />
    <glyph glyph-name="Cdotaccent" unicode="&#x10a;" horiz-adv-x="663" 
d="M635 605l-58 -55q-3 3 -8 8.5t-23 20t-38.5 25t-54 19.5t-69.5 9q-111 0 -183.5 -83.5t-72.5 -198.5t72.5 -198.5t183.5 -83.5q36 0 69.5 9.5t56.5 23.5t41 27.5t27 23.5l8 9l57 -58q-4 -5 -11.5 -12.5t-32.5 -27.5t-53 -35t-72 -27.5t-90 -12.5q-150 0 -248 104.5
t-98 257.5t98 257.5t248 104.5q73 0 135.5 -27t88.5 -53zM313 828q0 23 16.5 40t39.5 17t40 -17t17 -40t-17 -39.5t-40 -16.5t-39.5 16.5t-16.5 39.5z" />
    <glyph glyph-name="cdotaccent" unicode="&#x10b;" horiz-adv-x="477" 
d="M405 132l54 -55q-3 -4 -8 -10t-23.5 -21t-38.5 -27t-52.5 -21.5t-66.5 -9.5q-102 0 -170 70t-68 173q0 102 68.5 172.5t169.5 70.5q52 0 98 -21t66 -41l20 -21l-57 -51q-5 6 -15 15.5t-43 25t-69 15.5q-68 0 -111 -47.5t-43 -117.5t43 -117.5t111 -47.5q25 0 48.5 7
t38.5 16.5t26.5 19t16.5 16.5zM207 610q0 23 16.5 40t39.5 17t40 -17t17 -40t-17 -39.5t-40 -16.5t-39.5 16.5t-16.5 39.5z" />
    <glyph glyph-name="Ccaron" unicode="&#x10c;" horiz-adv-x="663" 
d="M635 605l-58 -55q-3 3 -8 8.5t-23 20t-38.5 25t-54 19.5t-69.5 9q-111 0 -183.5 -83.5t-72.5 -198.5t72.5 -198.5t183.5 -83.5q36 0 69.5 9.5t56.5 23.5t41 27.5t27 23.5l8 9l57 -58q-4 -5 -11.5 -12.5t-32.5 -27.5t-53 -35t-72 -27.5t-90 -12.5q-150 0 -248 104.5
t-98 257.5t98 257.5t248 104.5q73 0 135.5 -27t88.5 -53zM548 870l-166 -121l-166 121l42 56l124 -95l124 95z" />
    <glyph glyph-name="ccaron" unicode="&#x10d;" horiz-adv-x="477" 
d="M405 132l54 -55q-3 -4 -8 -10t-23.5 -21t-38.5 -27t-52.5 -21.5t-66.5 -9.5q-102 0 -170 70t-68 173q0 102 68.5 172.5t169.5 70.5q52 0 98 -21t66 -41l20 -21l-57 -51q-5 6 -15 15.5t-43 25t-69 15.5q-68 0 -111 -47.5t-43 -117.5t43 -117.5t111 -47.5q25 0 48.5 7
t38.5 16.5t26.5 19t16.5 16.5zM423 646l-166 -121l-166 121l42 56l124 -95l124 95z" />
    <glyph glyph-name="Dcaron" unicode="&#x10e;" horiz-adv-x="667" 
d="M283 700q160 0 253 -97.5t93 -252.5t-93 -252.5t-253 -97.5h-201v700h201zM278 80q124 0 192.5 76.5t68.5 193.5t-68.5 193.5t-192.5 76.5h-112v-540h112zM478 867l-166 -121l-166 121l42 56l124 -95l124 95z" />
    <glyph glyph-name="dcaron" unicode="&#x10f;" horiz-adv-x="647" 
d="M256 474q29 0 54.5 -7t42 -17t29 -20.5t18.5 -17.5l5 -7v351h84v-756h-77v67q-2 -3 -5.5 -8.5t-17.5 -19t-30 -24t-44 -19t-59 -8.5q-94 0 -159 70.5t-65 172.5t65 172.5t159 70.5zM405 146v170q-2 3 -5.5 8.5t-16 19.5t-27 24.5t-38 19t-49.5 8.5q-68 0 -110.5 -47.5
t-42.5 -117.5t42 -117.5t111 -47.5q26 0 49.5 8t38.5 20t26.5 24t16.5 20zM559 462v238h70v-238h-70z" />
    <glyph glyph-name="Dcroat" unicode="&#x110;" horiz-adv-x="672" 
d="M12 326v70h85v304h191q151 0 248.5 -99t97.5 -251t-97.5 -251t-248.5 -99h-191v326h-85zM288 80q112 0 184 78t72 192t-72 192t-184 78h-107v-224h203v-70h-203v-246h107z" />
    <glyph glyph-name="dcroat" unicode="&#x111;" horiz-adv-x="588" 
d="M405 636v120h84v-120h85v-70h-85v-566h-77v67q-2 -3 -5.5 -8.5t-17.5 -19t-30 -24t-44 -19t-59 -8.5q-94 0 -159 70.5t-65 172.5t65 172.5t159 70.5q29 0 54.5 -7t42 -17t29 -20.5t18.5 -17.5l5 -7v161h-163v70h163zM405 146v170q-2 3 -5.5 8.5t-16 19.5t-27 24.5t-38 19
t-49.5 8.5q-68 0 -110.5 -47.5t-42.5 -117.5t42 -117.5t111 -47.5q26 0 49.5 8t38.5 20t26.5 24t16.5 20z" />
    <glyph glyph-name="Emacron" unicode="&#x112;" horiz-adv-x="544" 
d="M166 620v-221h296v-80h-296v-239h326v-80h-410v700h404v-80h-320zM136 790v69h302v-69h-302z" />
    <glyph glyph-name="emacron" unicode="&#x113;" horiz-adv-x="520" 
d="M263 474q98 0 161.5 -68t63.5 -178q0 -16 -1 -27h-373q4 -54 49.5 -94.5t109.5 -40.5q40 0 75 17t50 34l14 17l53 -55q-3 -4 -8.5 -10t-24 -21.5t-39 -27.5t-53.5 -22t-67 -10q-104 0 -172.5 70t-68.5 173t64.5 173t166.5 70zM116 271h290q-3 45 -41 85t-102 40
q-67 0 -104 -39.5t-43 -85.5zM119 572v69h302v-69h-302z" />
    <glyph glyph-name="Ebreve" unicode="&#x114;" horiz-adv-x="544" 
d="M166 620v-221h296v-80h-296v-239h326v-80h-410v700h404v-80h-320zM136 908h75v-8.5t4 -20t11 -25t24 -19.5t40 -9q37 0 56.5 20.5t21.5 41.5l1 20h75q0 -6 -1 -16t-10 -36t-23.5 -45.5t-46 -35.5t-73.5 -16t-73.5 15.5t-46 37.5t-23.5 43.5t-10 36.5z" />
    <glyph glyph-name="ebreve" unicode="&#x115;" horiz-adv-x="520" 
d="M263 474q98 0 161.5 -68t63.5 -178q0 -16 -1 -27h-373q4 -54 49.5 -94.5t109.5 -40.5q40 0 75 17t50 34l14 17l53 -55q-3 -4 -8.5 -10t-24 -21.5t-39 -27.5t-53.5 -22t-67 -10q-104 0 -172.5 70t-68.5 173t64.5 173t166.5 70zM116 271h290q-3 45 -41 85t-102 40
q-67 0 -104 -39.5t-43 -85.5zM111 700h75v-8.5t4 -20t11 -25t24 -19.5t40 -9q37 0 56.5 20.5t20.5 41.5l2 20h75q0 -6 -1 -16t-10 -36t-23.5 -45.5t-46 -35.5t-73.5 -16t-73.5 15.5t-46 37.5t-23.5 43.5t-10 36.5z" />
    <glyph glyph-name="Edotaccent" unicode="&#x116;" horiz-adv-x="544" 
d="M166 620v-221h296v-80h-296v-239h326v-80h-410v700h404v-80h-320zM226 828q0 23 16.5 40t39.5 17t40 -17t17 -40t-17 -39.5t-40 -16.5t-39.5 16.5t-16.5 39.5z" />
    <glyph glyph-name="edotaccent" unicode="&#x117;" horiz-adv-x="520" 
d="M263 474q98 0 161.5 -68t63.5 -178q0 -16 -1 -27h-373q4 -54 49.5 -94.5t109.5 -40.5q40 0 75 17t50 34l14 17l53 -55q-3 -4 -8.5 -10t-24 -21.5t-39 -27.5t-53.5 -22t-67 -10q-104 0 -172.5 70t-68.5 173t64.5 173t166.5 70zM116 271h290q-3 45 -41 85t-102 40
q-67 0 -104 -39.5t-43 -85.5zM204 610q0 23 16.5 40t39.5 17t40 -17t17 -40t-17 -39.5t-40 -16.5t-39.5 16.5t-16.5 39.5z" />
    <glyph glyph-name="Eogonek" unicode="&#x118;" horiz-adv-x="544" 
d="M166 620v-221h296v-80h-296v-239h326v-80h-410v700h404v-80h-320zM492 -121v-69q-18 -7 -46 -7q-47 0 -77 29t-30 71q0 31 19 55.5t38 33.5l19 8h77q-10 -3 -24.5 -9t-38.5 -27t-24 -45q0 -22 14.5 -34.5t36.5 -12.5q10 0 19 2t13 4z" />
    <glyph glyph-name="eogonek" unicode="&#x119;" horiz-adv-x="520" 
d="M348 -121v-69q-18 -7 -46 -7q-47 0 -77 29t-30 71q0 54 54 87q-96 8 -156.5 76t-60.5 165q0 103 64.5 173t166.5 70q98 0 161.5 -68t63.5 -178q0 -16 -1 -27h-373q4 -54 49.5 -94.5t109.5 -40.5q40 0 75 17t50 34l14 17l53 -55q-5 -6 -14.5 -16t-41 -31.5t-65.5 -32.5
q-83 -32 -83 -80q0 -22 14.5 -34.5t36.5 -12.5q10 0 19 2t13 4zM116 271h290q-3 45 -41 85t-102 40q-67 0 -104 -39.5t-43 -85.5z" />
    <glyph glyph-name="Ecaron" unicode="&#x11a;" horiz-adv-x="544" 
d="M166 620v-221h296v-80h-296v-239h326v-80h-410v700h404v-80h-320zM458 867l-166 -121l-166 121l42 56l124 -95l124 95z" />
    <glyph glyph-name="ecaron" unicode="&#x11b;" horiz-adv-x="520" 
d="M263 474q98 0 161.5 -68t63.5 -178q0 -16 -1 -27h-373q4 -54 49.5 -94.5t109.5 -40.5q40 0 75 17t50 34l14 17l53 -55q-3 -4 -8.5 -10t-24 -21.5t-39 -27.5t-53.5 -22t-67 -10q-104 0 -172.5 70t-68.5 173t64.5 173t166.5 70zM116 271h290q-3 45 -41 85t-102 40
q-67 0 -104 -39.5t-43 -85.5zM432 646l-166 -121l-166 121l42 56l124 -95l124 95z" />
    <glyph glyph-name="Gcircumflex" unicode="&#x11c;" horiz-adv-x="717" 
d="M403 304v80h258v-304q-4 -4 -11 -10t-33 -22t-55.5 -28t-77 -22t-98.5 -10q-150 0 -249 104.5t-99 257.5t99 257.5t249 104.5q51 0 96 -10t73 -25t48.5 -29.5t29.5 -24.5l9 -10l-60 -59q-3 3 -8 8.5t-23.5 19t-39.5 23.5t-55 18.5t-70 8.5q-111 0 -184.5 -83.5
t-73.5 -198.5t73.5 -198.5t184.5 -83.5q57 0 105 13t67 25l20 13v185h-175zM390 922l166 -121l-46 -54l-120 92l-120 -92l-46 54z" />
    <glyph glyph-name="gcircumflex" unicode="&#x11d;" horiz-adv-x="553" 
d="M405 -6v64q-11 -15 -26.5 -28.5t-49.5 -27.5t-73 -14q-94 0 -159 70.5t-65 172.5t65 172.5t159 70.5q49 0 88 -20t54 -40l14 -19v67h77v-464q0 -115 -68.5 -177.5t-174.5 -62.5q-56 0 -106.5 22t-73.5 44l-22 22l51 63q2 -3 6.5 -8t19.5 -17.5t31 -22t41.5 -17.5t52.5 -8
q75 0 117 40.5t42 117.5zM405 144v174q-2 3 -5.5 8.5t-16 19t-27 23.5t-38.5 18.5t-49 8.5q-69 0 -111 -47.5t-42 -117.5t42 -117.5t111 -47.5q26 0 49.5 8t38.5 19.5t26.5 23t16.5 19.5zM276 702l166 -121l-46 -54l-120 92l-120 -92l-46 54z" />
    <glyph glyph-name="Gbreve" unicode="&#x11e;" horiz-adv-x="717" 
d="M403 304v80h258v-304q-4 -4 -11 -10t-33 -22t-55.5 -28t-77 -22t-98.5 -10q-150 0 -249 104.5t-99 257.5t99 257.5t249 104.5q51 0 96 -10t73 -25t48.5 -29.5t29.5 -24.5l9 -10l-60 -59q-3 3 -8 8.5t-23.5 19t-39.5 23.5t-55 18.5t-70 8.5q-111 0 -184.5 -83.5
t-73.5 -198.5t73.5 -198.5t184.5 -83.5q57 0 105 13t67 25l20 13v185h-175zM225 908h75v-8.5t4 -20t11 -25t24 -19.5t40 -9q37 0 56.5 20.5t20.5 41.5l2 20h75q0 -6 -1 -16t-10 -36t-23.5 -45.5t-46 -35.5t-73.5 -16t-73.5 15.5t-46 37.5t-23.5 43.5t-10 36.5z" />
    <glyph glyph-name="gbreve" unicode="&#x11f;" horiz-adv-x="553" 
d="M405 -6v64q-11 -15 -26.5 -28.5t-49.5 -27.5t-73 -14q-94 0 -159 70.5t-65 172.5t65 172.5t159 70.5q49 0 88 -20t54 -40l14 -19v67h77v-464q0 -115 -68.5 -177.5t-174.5 -62.5q-56 0 -106.5 22t-73.5 44l-22 22l51 63q2 -3 6.5 -8t19.5 -17.5t31 -22t41.5 -17.5t52.5 -8
q75 0 117 40.5t42 117.5zM405 144v174q-2 3 -5.5 8.5t-16 19t-27 23.5t-38.5 18.5t-49 8.5q-69 0 -111 -47.5t-42 -117.5t42 -117.5t111 -47.5q26 0 49.5 8t38.5 19.5t26.5 23t16.5 19.5zM120 700h75v-8.5t4 -20t11 -25t24 -19.5t40 -9q37 0 56.5 20.5t21.5 41.5l1 20h75
q0 -6 -1 -16t-10 -36t-23.5 -45.5t-46 -35.5t-73.5 -16t-73.5 15.5t-46 37.5t-23.5 43.5t-10 36.5z" />
    <glyph glyph-name="Gdotaccent" unicode="&#x120;" horiz-adv-x="717" 
d="M403 304v80h258v-304q-4 -4 -11 -10t-33 -22t-55.5 -28t-77 -22t-98.5 -10q-150 0 -249 104.5t-99 257.5t99 257.5t249 104.5q51 0 96 -10t73 -25t48.5 -29.5t29.5 -24.5l9 -10l-60 -59q-3 3 -8 8.5t-23.5 19t-39.5 23.5t-55 18.5t-70 8.5q-111 0 -184.5 -83.5
t-73.5 -198.5t73.5 -198.5t184.5 -83.5q57 0 105 13t67 25l20 13v185h-175zM322 828q0 23 16.5 40t39.5 17t40 -17t17 -40t-17 -39.5t-40 -16.5t-39.5 16.5t-16.5 39.5z" />
    <glyph glyph-name="gdotaccent" unicode="&#x121;" horiz-adv-x="553" 
d="M405 -6v64q-11 -15 -26.5 -28.5t-49.5 -27.5t-73 -14q-94 0 -159 70.5t-65 172.5t65 172.5t159 70.5q49 0 88 -20t54 -40l14 -19v67h77v-464q0 -115 -68.5 -177.5t-174.5 -62.5q-56 0 -106.5 22t-73.5 44l-22 22l51 63q2 -3 6.5 -8t19.5 -17.5t31 -22t41.5 -17.5t52.5 -8
q75 0 117 40.5t42 117.5zM405 144v174q-2 3 -5.5 8.5t-16 19t-27 23.5t-38.5 18.5t-49 8.5q-69 0 -111 -47.5t-42 -117.5t42 -117.5t111 -47.5q26 0 49.5 8t38.5 19.5t26.5 23t16.5 19.5zM220 610q0 23 16.5 40t39.5 17t40 -17t17 -40t-17 -39.5t-40 -16.5t-39.5 16.5
t-16.5 39.5z" />
    <glyph glyph-name="Gcedilla" unicode="&#x122;" horiz-adv-x="717" 
d="M403 304v80h258v-304q-4 -4 -11 -10t-33 -22t-55.5 -28t-77 -22t-98.5 -10q-150 0 -249 104.5t-99 257.5t99 257.5t249 104.5q51 0 96 -10t73 -25t48.5 -29.5t29.5 -24.5l9 -10l-60 -59q-3 3 -8 8.5t-23.5 19t-39.5 23.5t-55 18.5t-70 8.5q-111 0 -184.5 -83.5
t-73.5 -198.5t73.5 -198.5t184.5 -83.5q57 0 105 13t67 25l20 13v185h-175zM427 -56l-59 -198l-80 24l62 183z" />
    <glyph glyph-name="gcedilla" unicode="&#x123;" horiz-adv-x="553" 
d="M405 -6v64q-11 -15 -26.5 -28.5t-49.5 -27.5t-73 -14q-94 0 -159 70.5t-65 172.5t65 172.5t159 70.5q49 0 88 -20t54 -40l14 -19v67h77v-464q0 -115 -68.5 -177.5t-174.5 -62.5q-56 0 -106.5 22t-73.5 44l-22 22l51 63q2 -3 6.5 -8t19.5 -17.5t31 -22t41.5 -17.5t52.5 -8
q75 0 117 40.5t42 117.5zM405 144v174q-2 3 -5.5 8.5t-16 19t-27 23.5t-38.5 18.5t-49 8.5q-69 0 -111 -47.5t-42 -117.5t42 -117.5t111 -47.5q26 0 49.5 8t38.5 19.5t26.5 23t16.5 19.5zM223 533l59 198l80 -24l-62 -183z" />
    <glyph glyph-name="Hcircumflex" unicode="&#x124;" horiz-adv-x="683" 
d="M517 399v301h84v-700h-84v319h-351v-319h-84v700h84v-301h351zM342 919l166 -121l-46 -54l-120 92l-120 -92l-46 54z" />
    <glyph glyph-name="hcircumflex" unicode="&#x125;" horiz-adv-x="535" 
d="M297 474q73 0 123.5 -47.5t50.5 -129.5v-297h-84v283q0 56 -31 84.5t-80 28.5q-21 0 -40.5 -8t-32.5 -19.5t-23 -23t-14 -19.5l-5 -8v-318h-84v756h84v-350q48 68 136 68zM120 962l166 -121l-46 -54l-120 92l-120 -92l-46 54z" />
    <glyph glyph-name="Hbar" unicode="&#x126;" horiz-adv-x="701" 
d="M91 580v120h84v-120h351v120h84v-120h83v-70h-83v-510h-84v319h-351v-319h-84v510h-83v70h83zM175 510v-111h351v111h-351z" />
    <glyph glyph-name="hbar" unicode="&#x127;" horiz-adv-x="559" 
d="M8 570v70h91v116h84v-116h163v-70h-163v-166q2 3 5.5 7.5t16 16.5t27 21.5t38.5 17t51 7.5q73 0 123.5 -47.5t50.5 -129.5v-297h-84v279q0 57 -31 87t-80 30q-22 0 -42.5 -8t-33.5 -19.5t-22.5 -23t-13.5 -19.5l-5 -8v-318h-84v570h-91z" />
    <glyph glyph-name="Itilde" unicode="&#x128;" horiz-adv-x="276" 
d="M109 0v700h84v-700h-84zM39 781l-59 37q1 3 3.5 9t12 20.5t21.5 25.5t33 20t45 9q28 0 64 -22.5t48 -22.5q19 0 33 12.5t19 24.5l5 13l58 -37l-3 -9t-11 -20.5t-20.5 -25.5t-32.5 -20t-45 -9q-30 0 -66 22.5t-48 22.5q-19 0 -33.5 -12.5t-18.5 -24.5z" />
    <glyph glyph-name="itilde" unicode="&#x129;" horiz-adv-x="278" 
d="M97 0v462h84v-462h-84zM27 543l-59 37q1 3 3.5 9t12 20.5t21.5 25.5t33 20t45 9q28 0 64 -22.5t48 -22.5q19 0 33 12.5t19 24.5l5 13l58 -37l-3 -9t-11 -20.5t-20.5 -25.5t-32.5 -20t-45 -9q-30 0 -66 22.5t-48 22.5q-19 0 -33.5 -12.5t-18.5 -24.5z" />
    <glyph glyph-name="Imacron" unicode="&#x12a;" horiz-adv-x="276" 
d="M96 0v700h84v-700h-84zM-13 790v69h302v-69h-302z" />
    <glyph glyph-name="imacron" unicode="&#x12b;" horiz-adv-x="254" 
d="M84 0v462h84v-462h-84zM-24 572v69h302v-69h-302z" />
    <glyph glyph-name="Ibreve" unicode="&#x12c;" horiz-adv-x="276" 
d="M96 0v700h84v-700h-84zM-16 908h75v-8.5t4 -20t11 -25t24 -19.5t40 -9q37 0 56.5 20.5t21.5 41.5l1 20h75q0 -6 -1 -16t-10 -36t-23.5 -45.5t-46 -35.5t-73.5 -16t-73.5 15.5t-46 37.5t-23.5 43.5t-10 36.5z" />
    <glyph glyph-name="ibreve" unicode="&#x12d;" horiz-adv-x="290" 
d="M101 0v462h84v-462h-84zM-9 700h75v-8.5t4 -20t11 -25t24 -19.5t40 -9q37 0 56.5 20.5t20.5 41.5l2 20h75q0 -6 -1 -16t-10 -36t-23.5 -45.5t-46 -35.5t-73.5 -16t-73.5 15.5t-46 37.5t-23.5 43.5t-10 36.5z" />
    <glyph glyph-name="Iogonek" unicode="&#x12e;" horiz-adv-x="276" 
d="M179 -121v-69q-18 -7 -46 -7q-47 0 -77 29.5t-30 72.5q0 42 23.5 67.5t46.5 34.5v693h84v-700h-2q-7 -2 -16 -5t-27.5 -12.5t-30.5 -25.5t-12 -36q0 -23 14.5 -36t36.5 -13q10 0 19 2t13 4z" />
    <glyph glyph-name="iogonek" unicode="&#x12f;" horiz-adv-x="249" 
d="M169 -121v-69q-18 -7 -46 -7q-47 0 -77 29.5t-30 72.5q0 42 23.5 67.5t46.5 34.5v455h84v-462h-2q-7 -2 -16 -5t-27.5 -12.5t-30.5 -25.5t-12 -36q0 -23 14.5 -36t36.5 -13q10 0 19 2t13 4zM71 610q0 23 17 40t40 17t40 -17t17 -40t-17 -40t-40 -17t-40 17t-17 40z" />
    <glyph glyph-name="Idotaccent" unicode="&#x130;" horiz-adv-x="276" 
d="M96 0v700h84v-700h-84zM81 838q0 23 16.5 40t39.5 17t40 -17t17 -40t-17 -39.5t-40 -16.5t-39.5 16.5t-16.5 39.5z" />
    <glyph glyph-name="dotlessi" unicode="&#x131;" horiz-adv-x="220" 
d="M68 0v462h84v-462h-84z" />
    <glyph glyph-name="IJ" unicode="&#x132;" horiz-adv-x="688" 
d="M96 0v700h84v-700h-84zM522 186v514h84v-513q0 -89 -55.5 -144t-150.5 -55q-32 0 -63 10.5t-51.5 25t-36.5 29.5t-23 25l-8 11l61 53q5 -8 14 -20.5t40.5 -33t66.5 -20.5q64 0 93 35t29 83z" />
    <glyph glyph-name="ij" unicode="&#x133;" horiz-adv-x="459" 
d="M79 0v462h84v-462h-84zM64 610q0 23 17 40t40 17t40 -17t17 -40t-17 -40t-40 -17t-40 17t-17 40zM178 -221l30 70q23 -13 35 -13q15 0 25 3.5t19 20.5t9 47v555h84v-563q0 -74 -38.5 -107.5t-85.5 -33.5q-42 0 -78 21zM281 610q0 23 17 40t40 17t40 -17t17 -40t-17 -40
t-40 -17t-40 17t-17 40z" />
    <glyph glyph-name="Jcircumflex" unicode="&#x134;" horiz-adv-x="500" 
d="M308 186v514h84v-513q0 -89 -55.5 -144t-150.5 -55q-32 0 -63 10.5t-51.5 25t-36.5 29.5t-23 25l-8 11l61 53q5 -8 14 -20.5t40.5 -33t66.5 -20.5q64 0 93 35t29 83zM350 922l166 -121l-46 -54l-120 92l-120 -92l-46 54z" />
    <glyph glyph-name="jcircumflex" unicode="&#x135;" horiz-adv-x="268" 
d="M-20 -221l30 70q23 -13 35 -13q15 0 25 3.5t19 20.5t9 47v555h84v-563q0 -74 -38.5 -107.5t-85.5 -33.5q-42 0 -78 21zM140 702l166 -121l-46 -54l-120 92l-120 -92l-46 54z" />
    <glyph glyph-name="Kcedilla" unicode="&#x136;" horiz-adv-x="589" 
d="M166 700v-329l283 329h107l-296 -342l329 -358h-114l-309 334v-334h-84v700h84zM362 -46l-59 -198l-80 24l62 183z" />
    <glyph glyph-name="kcedilla" unicode="&#x137;" horiz-adv-x="494" 
d="M375 0l-209 224v-224h-84v756h84v-499l198 205h110l-216 -218l234 -244h-117zM306 -56l-59 -198l-80 24l62 183z" />
    <glyph glyph-name="kgreenlandic" unicode="&#x138;" horiz-adv-x="476" 
d="M361 0l-213 224v-224h-84v462h84v-201l196 201h109l-213 -218l234 -244h-113z" />
    <glyph glyph-name="Lacute" unicode="&#x139;" horiz-adv-x="486" 
d="M80 0v700h84v-620h314v-80h-398zM209 939l52 -52l-151 -144l-50 47z" />
    <glyph glyph-name="lacute" unicode="&#x13a;" horiz-adv-x="247" 
d="M82 0v756h84v-756h-84zM211 991l52 -52l-151 -144l-50 47z" />
    <glyph glyph-name="Lcedilla" unicode="&#x13b;" horiz-adv-x="488" 
d="M82 0v700h84v-620h314v-80h-398zM323 -56l-59 -198l-80 24l62 183z" />
    <glyph glyph-name="lcedilla" unicode="&#x13c;" horiz-adv-x="247" 
d="M82 0v756h84v-756h-84zM176 -56l-59 -198l-80 24l62 183z" />
    <glyph glyph-name="Lcaron" unicode="&#x13d;" horiz-adv-x="488" 
d="M82 0v700h84v-620h314v-80h-398zM269 462v238h70v-238h-70z" />
    <glyph glyph-name="lcaron" unicode="&#x13e;" horiz-adv-x="323" 
d="M82 0v756h84v-756h-84zM235 462v238h70v-238h-70z" />
    <glyph glyph-name="Ldot" unicode="&#x13f;" horiz-adv-x="488" 
d="M366 360q0 -23 -17 -40t-39 -17t-39.5 17.5t-17.5 39.5t17 39t40 17q22 0 39 -17t17 -39zM82 0v700h84v-620h314v-80h-398z" />
    <glyph glyph-name="ldot" unicode="&#x140;" horiz-adv-x="361" 
d="M333 360q0 -23 -17 -40t-39 -17q-23 0 -40 17.5t-17 39.5t17 39t40 17t39.5 -17t16.5 -39zM82 0v756h84v-756h-84z" />
    <glyph glyph-name="Lslash" unicode="&#x141;" horiz-adv-x="520" 
d="M50 180l-42 57l107 83v380h84v-314l165 128l42 -57l-207 -161v-216h311v-80h-395v230z" />
    <glyph glyph-name="lslash" unicode="&#x142;" horiz-adv-x="334" 
d="M52 228l-42 57l113 88v383h84v-318l78 61l42 -57l-120 -93v-349h-84v283z" />
    <glyph glyph-name="Nacute" unicode="&#x143;" horiz-adv-x="710" 
d="M82 700h87l375 -560v560h84v-700h-87l-375 560v-560h-84v700zM456 939l52 -52l-151 -144l-50 47z" />
    <glyph glyph-name="nacute" unicode="&#x144;" horiz-adv-x="522" 
d="M284 474q73 0 123.5 -47.5t50.5 -129.5v-297h-84v283q0 56 -31 84.5t-80 28.5q-21 0 -40.5 -8t-32.5 -19.5t-23 -23t-15 -19.5l-4 -8v-318h-84v462h78v-65q2 3 5.5 8.5t16 18.5t27.5 23t40 18.5t53 8.5zM314 722l52 -52l-151 -144l-50 47z" />
    <glyph glyph-name="Ncedilla" unicode="&#x145;" horiz-adv-x="710" 
d="M82 700h87l375 -560v560h84v-700h-87l-375 560v-560h-84v700zM394 -46l-59 -198l-80 24l62 183z" />
    <glyph glyph-name="ncedilla" unicode="&#x146;" horiz-adv-x="522" 
d="M284 474q73 0 123.5 -47.5t50.5 -129.5v-297h-84v283q0 56 -31 84.5t-80 28.5q-21 0 -40.5 -8t-32.5 -19.5t-23 -23t-15 -19.5l-4 -8v-318h-84v462h78v-65q2 3 5.5 8.5t16 18.5t27.5 23t40 18.5t53 8.5zM314 -46l-59 -198l-80 24l62 183z" />
    <glyph glyph-name="Ncaron" unicode="&#x147;" horiz-adv-x="710" 
d="M82 700h87l375 -560v560h84v-700h-87l-375 560v-560h-84v700zM533 877l-166 -121l-166 121l42 56l124 -95l124 95z" />
    <glyph glyph-name="ncaron" unicode="&#x148;" horiz-adv-x="522" 
d="M284 474q73 0 123.5 -47.5t50.5 -129.5v-297h-84v283q0 56 -31 84.5t-80 28.5q-21 0 -40.5 -8t-32.5 -19.5t-23 -23t-15 -19.5l-4 -8v-318h-84v462h78v-65q2 3 5.5 8.5t16 18.5t27.5 23t40 18.5t53 8.5zM431 656l-166 -121l-166 121l42 56l124 -95l124 95z" />
    <glyph glyph-name="napostrophe" unicode="&#x149;" horiz-adv-x="588" 
d="M350 474q73 0 123.5 -47.5t50.5 -129.5v-297h-84v283q0 56 -31 84.5t-80 28.5q-21 0 -40.5 -8t-32.5 -19.5t-23 -23t-15 -19.5l-4 -8v-318h-84v462h78v-65q2 3 5.5 8.5t16 18.5t27.5 23t40 18.5t53 8.5zM18 462v238h70v-238h-70z" />
    <glyph glyph-name="Eng" unicode="&#x14a;" horiz-adv-x="710" 
d="M426 -221l30 70q23 -13 35 -13q15 0 25 3.5t19 20.5t9 47v93l-378 558v-558h-84v700h84l378 -558v558h84v-801q0 -74 -38.5 -107.5t-85.5 -33.5q-42 0 -78 21z" />
    <glyph glyph-name="eng" unicode="&#x14b;" horiz-adv-x="522" 
d="M284 474q73 0 123.5 -47.5t50.5 -129.5v-398q0 -74 -38.5 -107.5t-85.5 -33.5q-42 0 -78 21l30 70q23 -13 35 -13q15 0 25 3.5t19 20.5t9 47v372q0 57 -31 87t-80 30q-22 0 -42.5 -8t-33 -19.5t-22 -23t-13.5 -19.5l-4 -8v-318h-84v462h78v-65q2 3 5.5 8.5t16 18.5
t27.5 23t40 18.5t53 8.5z" />
    <glyph glyph-name="Omacron" unicode="&#x14c;" horiz-adv-x="768" 
d="M384 712q150 0 248 -104.5t98 -257.5t-98 -257.5t-248 -104.5t-248 104.5t-98 257.5t98 257.5t248 104.5zM384 68q112 0 184 83.5t72 198.5t-72 198.5t-184 83.5t-184 -83.5t-72 -198.5t72 -198.5t184 -83.5zM233 800v69h302v-69h-302z" />
    <glyph glyph-name="omacron" unicode="&#x14d;" horiz-adv-x="540" 
d="M270 474q102 0 170 -70t68 -173t-68 -173t-170 -70t-170 70t-68 173t68 173t170 70zM270 66q68 0 111 47.5t43 117.5t-43 117.5t-111 47.5t-111 -47.5t-43 -117.5t43 -117.5t111 -47.5zM119 572v69h302v-69h-302z" />
    <glyph glyph-name="Obreve" unicode="&#x14e;" horiz-adv-x="768" 
d="M384 712q150 0 248 -104.5t98 -257.5t-98 -257.5t-248 -104.5t-248 104.5t-98 257.5t98 257.5t248 104.5zM384 68q112 0 184 83.5t72 198.5t-72 198.5t-184 83.5t-184 -83.5t-72 -198.5t72 -198.5t184 -83.5zM230 908h75v-8.5t4 -20t11 -25t24 -19.5t40 -9
q37 0 56.5 20.5t21.5 41.5l1 20h75q0 -6 -1 -16t-10 -36t-23.5 -45.5t-46 -35.5t-73.5 -16t-73.5 15.5t-46 37.5t-23.5 43.5t-10 36.5z" />
    <glyph glyph-name="obreve" unicode="&#x14f;" horiz-adv-x="540" 
d="M270 474q102 0 170 -70t68 -173t-68 -173t-170 -70t-170 70t-68 173t68 173t170 70zM270 66q68 0 111 47.5t43 117.5t-43 117.5t-111 47.5t-111 -47.5t-43 -117.5t43 -117.5t111 -47.5zM116 700h75v-8.5t4 -20t11 -25t24 -19.5t40 -9q37 0 56.5 20.5t21.5 41.5l1 20h75
q0 -6 -1 -16t-10 -36t-23.5 -45.5t-46 -35.5t-73.5 -16t-73.5 15.5t-46 37.5t-23.5 43.5t-10 36.5z" />
    <glyph glyph-name="Ohungarumlaut" unicode="&#x150;" horiz-adv-x="768" 
d="M384 712q150 0 248 -104.5t98 -257.5t-98 -257.5t-248 -104.5t-248 104.5t-98 257.5t98 257.5t248 104.5zM384 68q112 0 184 83.5t72 198.5t-72 198.5t-184 83.5t-184 -83.5t-72 -198.5t72 -198.5t184 -83.5zM537 964l64 -40l-121 -170l-59 36zM375 964l64 -40l-121 -170
l-59 36z" />
    <glyph glyph-name="ohungarumlaut" unicode="&#x151;" horiz-adv-x="540" 
d="M270 474q102 0 170 -70t68 -173t-68 -173t-170 -70t-170 70t-68 173t68 173t170 70zM270 66q68 0 111 47.5t43 117.5t-43 117.5t-111 47.5t-111 -47.5t-43 -117.5t43 -117.5t111 -47.5zM417 726l64 -40l-121 -170l-59 36zM255 726l64 -40l-121 -170l-59 36z" />
    <glyph glyph-name="OE" unicode="&#x152;" horiz-adv-x="836" 
d="M384 0q-151 0 -248.5 99t-97.5 251t97.5 251t248.5 99h394v-80h-280v-221h256v-80h-256v-239h286v-80h-400zM384 620q-113 0 -186.5 -78.5t-73.5 -191.5t73.5 -191.5t186.5 -78.5h30v540h-30z" />
    <glyph glyph-name="oe" unicode="&#x153;" horiz-adv-x="902" 
d="M650 474q96 0 158 -67.5t62 -178.5q0 -16 -1 -27h-363q2 -54 47 -94.5t106 -40.5q41 0 78 19t61 50l52 -54q-34 -41 -85.5 -67t-105.5 -26q-61 0 -111.5 27t-82.5 74q-32 -47 -83.5 -74t-111.5 -27q-102 0 -170 70t-68 173t68 173t170 70q60 0 110.5 -27t82.5 -74
q65 101 187 101zM270 66q66 0 109 45.5t45 112.5v7q0 70 -43 117.5t-111 47.5t-111 -47.5t-43 -117.5t43 -117.5t111 -47.5zM508 270h279q-2 46 -37.5 86t-99.5 40q-63 0 -101 -41t-41 -85z" />
    <glyph glyph-name="Racute" unicode="&#x154;" horiz-adv-x="553" 
d="M269 366q69 0 107 34t38 93t-38 93t-107 34h-103v-254h103zM82 0v700h182q105 0 169.5 -57t64.5 -150q0 -47 -16.5 -84t-37.5 -57.5t-48.5 -34.5t-42.5 -18t-26 -6l194 -293h-101l-189 286h-65v-286h-84zM363 939l52 -52l-151 -144l-50 47z" />
    <glyph glyph-name="racute" unicode="&#x155;" horiz-adv-x="340" 
d="M271 474q17 0 33.5 -3t25.5 -6l8 -3l-31 -76q-18 10 -53 10q-32 0 -58.5 -19.5t-37.5 -38.5l-10 -20v-318h-84v462h78v-71q2 3 5 9t15 20t25.5 25t36 20t47.5 9zM237 722l52 -52l-151 -144l-50 47z" />
    <glyph glyph-name="Rcedilla" unicode="&#x156;" horiz-adv-x="553" 
d="M269 366q69 0 107 34t38 93t-38 93t-107 34h-103v-254h103zM82 0v700h182q105 0 169.5 -57t64.5 -150q0 -47 -16.5 -84t-37.5 -57.5t-48.5 -34.5t-42.5 -18t-26 -6l194 -293h-101l-189 286h-65v-286h-84zM343 -46l-59 -198l-80 24l62 183z" />
    <glyph glyph-name="rcedilla" unicode="&#x157;" horiz-adv-x="340" 
d="M271 474q17 0 33.5 -3t25.5 -6l8 -3l-31 -76q-18 10 -53 10q-32 0 -58.5 -19.5t-37.5 -38.5l-10 -20v-318h-84v462h78v-71q2 3 5 9t15 20t25.5 25t36 20t47.5 9zM171 -56l-59 -198l-80 24l62 183z" />
    <glyph glyph-name="Rcaron" unicode="&#x158;" horiz-adv-x="553" 
d="M269 366q69 0 107 34t38 93t-38 93t-107 34h-103v-254h103zM82 0v700h182q105 0 169.5 -57t64.5 -150q0 -47 -16.5 -84t-37.5 -57.5t-48.5 -34.5t-42.5 -18t-26 -6l194 -293h-101l-189 286h-65v-286h-84zM440 867l-166 -121l-166 121l42 56l124 -95l124 95z" />
    <glyph glyph-name="rcaron" unicode="&#x159;" horiz-adv-x="340" 
d="M271 474q17 0 33.5 -3t25.5 -6l8 -3l-31 -76q-18 10 -53 10q-32 0 -58.5 -19.5t-37.5 -38.5l-10 -20v-318h-84v462h78v-71q2 3 5 9t15 20t25.5 25t36 20t47.5 9zM359 646l-166 -121l-166 121l42 56l124 -95l124 95z" />
    <glyph glyph-name="Sacute" unicode="&#x15a;" horiz-adv-x="542" 
d="M404 178q0 26 -9 46t-31 37t-40.5 27t-55.5 27t-60 29t-51 32t-43.5 39.5t-26.5 48.5t-11 64q0 69 54.5 126.5t147.5 57.5q37 0 71 -10.5t56.5 -25.5t39.5 -30t25 -26l7 -10l-63 -51q-2 3 -6 8t-17 17.5t-27.5 22t-38 17.5t-47.5 8q-54 0 -86 -31.5t-32 -72.5
q0 -26 9.5 -45.5t34 -37t46 -28.5t66.5 -32t73 -38t53 -41t36.5 -55.5t11.5 -72.5q0 -84 -61.5 -137t-155.5 -53q-46 0 -86.5 15t-64.5 36.5t-41 43t-24 36.5l-7 15l70 42q2 -4 5.5 -11.5t16.5 -26t29 -33t43.5 -26t58.5 -11.5q54 0 92.5 29.5t38.5 80.5zM349 949l52 -52
l-151 -144l-50 47z" />
    <glyph glyph-name="sacute" unicode="&#x15b;" horiz-adv-x="455" 
d="M34 85l58 54q2 -3 6 -8t17 -18t28 -23t39.5 -18t49.5 -8q39 0 69.5 15.5t30.5 41.5q0 29 -25 46t-80 28q-81 16 -125 50.5t-44 95.5q0 53 48 93t122 40q48 0 91 -17.5t61 -34.5l19 -18l-55 -57q-5 6 -14.5 14.5t-40 22.5t-61.5 14q-42 0 -65 -17.5t-23 -41.5
q0 -26 26.5 -42t85.5 -28q77 -17 120 -49t43 -97q0 -63 -55 -99t-128 -36q-36 0 -70 10t-56 24.5t-39 28.5t-25 24zM295 721l52 -52l-151 -144l-50 47z" />
    <glyph glyph-name="Scircumflex" unicode="&#x15c;" horiz-adv-x="542" 
d="M404 178q0 26 -9 46t-31 37t-40.5 27t-55.5 27t-60 29t-51 32t-43.5 39.5t-26.5 48.5t-11 64q0 69 54.5 126.5t147.5 57.5q37 0 71 -10.5t56.5 -25.5t39.5 -30t25 -26l7 -10l-63 -51q-2 3 -6 8t-17 17.5t-27.5 22t-38 17.5t-47.5 8q-54 0 -86 -31.5t-32 -72.5
q0 -26 9.5 -45.5t34 -37t46 -28.5t66.5 -32t73 -38t53 -41t36.5 -55.5t11.5 -72.5q0 -84 -61.5 -137t-155.5 -53q-46 0 -86.5 15t-64.5 36.5t-41 43t-24 36.5l-7 15l70 42q2 -4 5.5 -11.5t16.5 -26t29 -33t43.5 -26t58.5 -11.5q54 0 92.5 29.5t38.5 80.5zM285 920l166 -121
l-46 -54l-120 92l-120 -92l-46 54z" />
    <glyph glyph-name="scircumflex" unicode="&#x15d;" horiz-adv-x="455" 
d="M34 85l58 54q2 -3 6 -8t17 -18t28 -23t39.5 -18t49.5 -8q39 0 69.5 15.5t30.5 41.5q0 29 -25 46t-80 28q-81 16 -125 50.5t-44 95.5q0 53 48 93t122 40q48 0 91 -17.5t61 -34.5l19 -18l-55 -57q-5 6 -14.5 14.5t-40 22.5t-61.5 14q-42 0 -65 -17.5t-23 -41.5
q0 -26 26.5 -42t85.5 -28q77 -17 120 -49t43 -97q0 -63 -55 -99t-128 -36q-36 0 -70 10t-56 24.5t-39 28.5t-25 24zM238 702l166 -121l-46 -54l-120 92l-120 -92l-46 54z" />
    <glyph glyph-name="Scedilla" unicode="&#x15e;" horiz-adv-x="542" 
d="M404 178q0 26 -9 46t-31 37t-40.5 27t-55.5 27t-60 29t-51 32t-43.5 39.5t-26.5 48.5t-11 64q0 69 54.5 126.5t147.5 57.5q37 0 71 -10.5t56.5 -25.5t39.5 -30t25 -26l7 -10l-63 -51q-2 3 -6 8t-17 17.5t-27.5 22t-38 17.5t-47.5 8q-54 0 -86 -31.5t-32 -72.5
q0 -26 9.5 -45.5t34 -37t46 -28.5t66.5 -32t73 -38t53 -41t36.5 -55.5t11.5 -72.5q0 -84 -61.5 -137t-155.5 -53q-46 0 -86.5 15t-64.5 36.5t-41 43t-24 36.5l-7 15l70 42q2 -4 5.5 -11.5t16.5 -26t29 -33t43.5 -26t58.5 -11.5q54 0 92.5 29.5t38.5 80.5zM314 -56l-59 -198
l-80 24l62 183z" />
    <glyph glyph-name="scedilla" unicode="&#x15f;" horiz-adv-x="455" 
d="M34 85l58 54q2 -3 6 -8t17 -18t28 -23t39.5 -18t49.5 -8q39 0 69.5 15.5t30.5 41.5q0 29 -25 46t-80 28q-81 16 -125 50.5t-44 95.5q0 53 48 93t122 40q48 0 91 -17.5t61 -34.5l19 -18l-55 -57q-5 6 -14.5 14.5t-40 22.5t-61.5 14q-42 0 -65 -17.5t-23 -41.5
q0 -26 26.5 -42t85.5 -28q77 -17 120 -49t43 -97q0 -63 -55 -99t-128 -36q-36 0 -70 10t-56 24.5t-39 28.5t-25 24zM269 -56l-59 -198l-80 24l62 183z" />
    <glyph glyph-name="Scaron" unicode="&#x160;" horiz-adv-x="542" 
d="M404 178q0 26 -9 46t-31 37t-40.5 27t-55.5 27t-60 29t-51 32t-43.5 39.5t-26.5 48.5t-11 64q0 69 54.5 126.5t147.5 57.5q37 0 71 -10.5t56.5 -25.5t39.5 -30t25 -26l7 -10l-63 -51q-2 3 -6 8t-17 17.5t-27.5 22t-38 17.5t-47.5 8q-54 0 -86 -31.5t-32 -72.5
q0 -26 9.5 -45.5t34 -37t46 -28.5t66.5 -32t73 -38t53 -41t36.5 -55.5t11.5 -72.5q0 -84 -61.5 -137t-155.5 -53q-46 0 -86.5 15t-64.5 36.5t-41 43t-24 36.5l-7 15l70 42q2 -4 5.5 -11.5t16.5 -26t29 -33t43.5 -26t58.5 -11.5q54 0 92.5 29.5t38.5 80.5zM451 867l-166 -121
l-166 121l42 56l124 -95l124 95z" />
    <glyph glyph-name="scaron" unicode="&#x161;" horiz-adv-x="455" 
d="M33 85l58 54q2 -3 6 -8t17 -18t28 -23t39.5 -18t49.5 -8q39 0 69.5 15.5t30.5 41.5q0 29 -25 46t-80 28q-81 16 -125 50.5t-44 95.5q0 53 48 93t122 40q48 0 91 -17.5t62 -34.5l18 -18l-55 -57q-5 6 -14.5 14.5t-40 22.5t-61.5 14q-42 0 -65 -17.5t-23 -41.5
q0 -26 26.5 -42t85.5 -28q77 -17 120 -49t43 -97q0 -63 -55 -99t-128 -36q-36 0 -70 10t-56 24.5t-39 28.5t-25 24zM405 646l-166 -121l-166 121l42 56l124 -95l124 95z" />
    <glyph glyph-name="Tcedilla" unicode="&#x162;" horiz-adv-x="514" 
d="M215 0v620h-201v80h486v-80h-201v-620h-84zM300 -56l-59 -198l-80 24l62 183z" />
    <glyph glyph-name="tcedilla" unicode="&#x163;" horiz-adv-x="376" 
d="M24 386v76h90v141h84v-141h144v-76h-144v-249q0 -71 67 -71q12 0 25 5t20 9l8 5l31 -69q-51 -28 -96 -28q-56 0 -97.5 37t-41.5 108v253h-90zM254 -56l-59 -198l-80 24l62 183z" />
    <glyph glyph-name="Tcaron" unicode="&#x164;" horiz-adv-x="514" 
d="M215 0v620h-201v80h486v-80h-201v-620h-84zM423 868l-166 -121l-166 121l42 56l124 -95l124 95z" />
    <glyph glyph-name="tcaron" unicode="&#x165;" horiz-adv-x="376" 
d="M24 386v76h90v141h84v-141h144v-76h-144v-249q0 -71 67 -71q12 0 25 5t20 9l8 5l31 -69q-51 -28 -96 -28q-56 0 -97.5 37t-41.5 108v253h-90zM271 518v238h70v-238h-70z" />
    <glyph glyph-name="Tbar" unicode="&#x166;" horiz-adv-x="514" 
d="M64 392v70h151v158h-201v80h486v-80h-201v-158h151v-70h-151v-392h-84v392h-151z" />
    <glyph glyph-name="tbar" unicode="&#x167;" horiz-adv-x="374" 
d="M24 388v74h84v141h84v-141h144v-74h-144v-88h144v-70h-144v-90q0 -34 18.5 -54t51.5 -20q12 0 25.5 5t20.5 9l8 5l31 -69q-51 -28 -97 -28q-55 0 -98.5 39t-43.5 108v95h-84v70h84v88h-84z" />
    <glyph glyph-name="Utilde" unicode="&#x168;" horiz-adv-x="674" 
d="M508 267v433h84v-442q0 -121 -68.5 -195.5t-186.5 -74.5t-186.5 74.5t-68.5 195.5v442h84v-433q0 -90 42 -144.5t129 -54.5t129 54.5t42 144.5zM225 791l-59 37q1 3 3.5 9t12 20.5t21.5 25.5t33 20t45 9q28 0 64 -22.5t48 -22.5q19 0 33 12.5t19 24.5l5 13l58 -37l-3 -9
t-11 -20.5t-20.5 -25.5t-32.5 -20t-45 -9q-30 0 -66 22.5t-48 22.5q-19 0 -33.5 -12.5t-18.5 -24.5z" />
    <glyph glyph-name="utilde" unicode="&#x169;" horiz-adv-x="522" 
d="M238 -12q-73 0 -123.5 47.5t-50.5 129.5v297h84v-283q0 -56 31 -84.5t80 -28.5q35 0 63.5 19t39.5 38l12 19v320h84v-462h-78v71q-2 -3 -5.5 -9t-16 -20t-27.5 -25t-40 -20t-53 -9zM149 553l-59 37q1 3 3.5 9t12 20.5t21.5 25.5t33 20t45 9q28 0 64 -22.5t48 -22.5
q19 0 33 12.5t19 24.5l5 13l58 -37l-3 -9t-11 -20.5t-20.5 -25.5t-32.5 -20t-45 -9q-30 0 -66 22.5t-48 22.5q-19 0 -33.5 -12.5t-18.5 -24.5z" />
    <glyph glyph-name="Umacron" unicode="&#x16a;" horiz-adv-x="674" 
d="M508 267v433h84v-442q0 -121 -68.5 -195.5t-186.5 -74.5t-186.5 74.5t-68.5 195.5v442h84v-433q0 -90 42 -144.5t129 -54.5t129 54.5t42 144.5zM186 790v69h302v-69h-302z" />
    <glyph glyph-name="umacron" unicode="&#x16b;" horiz-adv-x="522" 
d="M238 -12q-73 0 -123.5 47.5t-50.5 129.5v297h84v-283q0 -56 31 -84.5t80 -28.5q35 0 63.5 19t39.5 38l12 19v320h84v-462h-78v71q-2 -3 -5.5 -9t-16 -20t-27.5 -25t-40 -20t-53 -9zM111 572v69h302v-69h-302z" />
    <glyph glyph-name="Ubreve" unicode="&#x16c;" horiz-adv-x="674" 
d="M508 267v433h84v-442q0 -121 -68.5 -195.5t-186.5 -74.5t-186.5 74.5t-68.5 195.5v442h84v-433q0 -90 42 -144.5t129 -54.5t129 54.5t42 144.5zM184 908h75v-8.5t4 -20t11 -25t24 -19.5t40 -9q37 0 56.5 20.5t21.5 41.5l1 20h75q0 -6 -1 -16t-10 -36t-23.5 -45.5
t-46 -35.5t-73.5 -16t-73.5 15.5t-46 37.5t-23.5 43.5t-10 36.5z" />
    <glyph glyph-name="ubreve" unicode="&#x16d;" horiz-adv-x="522" 
d="M238 -12q-73 0 -123.5 47.5t-50.5 129.5v297h84v-283q0 -56 31 -84.5t80 -28.5q35 0 63.5 19t39.5 38l12 19v320h84v-462h-78v71q-2 -3 -5.5 -9t-16 -20t-27.5 -25t-40 -20t-53 -9zM106 700h75v-8.5t4 -20t11 -25t24 -19.5t40 -9q37 0 56.5 20.5t21.5 41.5l1 20h75
q0 -6 -1 -16t-10 -36t-23.5 -45.5t-46 -35.5t-73.5 -16t-73.5 15.5t-46 37.5t-23.5 43.5t-10 36.5z" />
    <glyph glyph-name="Uring" unicode="&#x16e;" horiz-adv-x="674" 
d="M508 267v433h84v-442q0 -121 -68.5 -195.5t-186.5 -74.5t-186.5 74.5t-68.5 195.5v442h84v-433q0 -90 42 -144.5t129 -54.5t129 54.5t42 144.5zM283 840q0 -23 16 -39t39 -16t39 16t16 39t-16 39t-39 16t-39 -16t-16 -39zM230 840q0 45 31.5 76.5t76.5 31.5t76.5 -31.5
t31.5 -76.5t-31.5 -76.5t-76.5 -31.5t-76.5 31.5t-31.5 76.5z" />
    <glyph glyph-name="uring" unicode="&#x16f;" horiz-adv-x="522" 
d="M238 -12q-73 0 -123.5 47.5t-50.5 129.5v297h84v-283q0 -56 31 -84.5t80 -28.5q35 0 63.5 19t39.5 38l12 19v320h84v-462h-78v71q-2 -3 -5.5 -9t-16 -20t-27.5 -25t-40 -20t-53 -9zM208 645q0 -23 16 -39t39 -16t39 16t16 39t-16 39t-39 16t-39 -16t-16 -39zM155 645
q0 45 31.5 76.5t76.5 31.5t76.5 -31.5t31.5 -76.5t-31.5 -76.5t-76.5 -31.5t-76.5 31.5t-31.5 76.5z" />
    <glyph glyph-name="Uhungarumlaut" unicode="&#x170;" horiz-adv-x="674" 
d="M508 267v433h84v-442q0 -121 -68.5 -195.5t-186.5 -74.5t-186.5 74.5t-68.5 195.5v442h84v-433q0 -90 42 -144.5t129 -54.5t129 54.5t42 144.5zM474 964l64 -40l-121 -170l-59 36zM312 964l64 -40l-121 -170l-59 36z" />
    <glyph glyph-name="uhungarumlaut" unicode="&#x171;" horiz-adv-x="525" 
d="M238 -12q-73 0 -123.5 47.5t-50.5 129.5v297h84v-283q0 -56 31 -84.5t80 -28.5q35 0 63.5 19t39.5 38l12 19v320h84v-462h-78v71q-2 -3 -5.5 -9t-16 -20t-27.5 -25t-40 -20t-53 -9zM397 726l64 -40l-121 -170l-59 36zM235 726l64 -40l-121 -170l-59 36z" />
    <glyph glyph-name="Uogonek" unicode="&#x172;" horiz-adv-x="674" 
d="M422 -121v-69q-18 -7 -46 -7q-47 0 -77 29t-30 71q0 53 52 86q-111 5 -175 78.5t-64 190.5v442h84v-433q0 -90 42 -144.5t129 -54.5t129 54.5t42 144.5v433h84v-442q0 -97 -44.5 -165t-125.5 -93q-12 -3 -28.5 -10t-37.5 -27t-21 -44q0 -22 14.5 -34.5t36.5 -12.5
q10 0 19 2t13 4z" />
    <glyph glyph-name="uogonek" unicode="&#x173;" horiz-adv-x="522" 
d="M238 -12q-73 0 -123.5 47.5t-50.5 129.5v297h84v-283q0 -56 31 -84.5t80 -28.5q35 0 63.5 19t39.5 38l12 19v320h84v-462h-1q-7 -2 -16 -5t-27.5 -12.5t-30.5 -25.5t-12 -36q0 -23 14.5 -36t36.5 -13q10 0 19 2t13 4l4 1v-69q-18 -7 -46 -7q-47 0 -77 29.5t-30 72.5
q0 25 9.5 45.5t24.5 32.5t24 17t17 8v63q-2 -3 -5.5 -9t-16 -20t-27.5 -25t-40 -20t-53 -9z" />
    <glyph glyph-name="Wcircumflex" unicode="&#x174;" horiz-adv-x="950" 
d="M946 700l-270 -720l-201 551l-202 -551l-269 720h94l177 -485l172 485h61l170 -485l179 485h89zM478 920l166 -121l-46 -54l-120 92l-120 -92l-46 54z" />
    <glyph glyph-name="wcircumflex" unicode="&#x175;" horiz-adv-x="742" 
d="M8 462h91l124 -299l122 299h57l123 -299l123 299h86l-211 -482l-152 347l-152 -347zM373 702l166 -121l-46 -54l-120 92l-120 -92l-46 54z" />
    <glyph glyph-name="Ycircumflex" unicode="&#x176;" 
d="M248 0v275l-236 425h94l188 -344l185 344h89l-236 -425v-275h-84zM290 920l166 -121l-46 -54l-120 92l-120 -92l-46 54z" />
    <glyph glyph-name="ycircumflex" unicode="&#x177;" horiz-adv-x="500" 
d="M27 -209l36 69q29 -24 55 -24t41.5 17t30.5 54l36 91l-216 464h95l162 -365l138 365h91q-232 -584 -243 -611q-19 -47 -53.5 -70t-74.5 -23q-25 0 -49.5 8t-36.5 16zM256 704l166 -121l-46 -54l-120 92l-120 -92l-46 54z" />
    <glyph glyph-name="Ydieresis" unicode="&#x178;" 
d="M248 0v275l-236 425h94l188 -344l185 344h89l-236 -425v-275h-84zM143 838q0 23 17 40t40 17t40 -17t17 -40t-17 -40t-40 -17t-40 17t-17 40zM324 838q0 23 17 40t40 17t40 -17t17 -40t-17 -40t-40 -17t-40 17t-17 40z" />
    <glyph glyph-name="Zacute" unicode="&#x179;" horiz-adv-x="572" 
d="M45 700h509l-393 -620h374v-80h-517l393 620h-366v80zM376 939l52 -52l-151 -144l-50 47z" />
    <glyph glyph-name="zacute" unicode="&#x17a;" horiz-adv-x="470" 
d="M48 462h399l-265 -384h254v-78h-402l265 384h-251v78zM323 701l52 -52l-151 -144l-50 47z" />
    <glyph glyph-name="Zdotaccent" unicode="&#x17b;" horiz-adv-x="572" 
d="M45 700h509l-393 -620h374v-80h-517l393 620h-366v80zM240 818q0 23 16.5 40t39.5 17t40 -17t17 -40t-17 -39.5t-40 -16.5t-39.5 16.5t-16.5 39.5z" />
    <glyph glyph-name="zdotaccent" unicode="&#x17c;" horiz-adv-x="470" 
d="M48 462h399l-265 -384h254v-78h-402l265 384h-251v78zM184 610q0 23 16.5 40t39.5 17t40 -17t17 -40t-17 -39.5t-40 -16.5t-39.5 16.5t-16.5 39.5z" />
    <glyph glyph-name="Zcaron" unicode="&#x17d;" horiz-adv-x="572" 
d="M45 700h509l-393 -620h374v-80h-517l393 620h-366v80zM464 869l-166 -121l-166 121l42 56l124 -95l124 95z" />
    <glyph glyph-name="zcaron" unicode="&#x17e;" horiz-adv-x="470" 
d="M48 462h399l-265 -384h254v-78h-402l265 384h-251v78zM412 646l-166 -121l-166 121l42 56l124 -95l124 95z" />
    <glyph glyph-name="longs" unicode="&#x17f;" horiz-adv-x="331" 
d="M20 388v74h96v159q0 69 43.5 108t98.5 39q48 0 97 -27l-31 -69q-28 18 -54 18q-33 0 -51.5 -20t-18.5 -54v-616h-84v388h-96z" />
    <glyph glyph-name="florin" unicode="&#x192;" 
d="M341 388l-62 -352q-31 -183 -203 -183h-36v78h34q103 0 122 110l61 347h-86l12 74h86l29 159q26 147 167 147q19 0 41 -6t34 -12l12 -7l-31 -69q-27 16 -54 16q-73 0 -86 -74l-28 -154h120l-12 -74h-120z" />
    <glyph glyph-name="apostrophemod" unicode="&#x2bc;" horiz-adv-x="150" 
d="M40 462v238h70v-238h-70z" />
    <glyph glyph-name="circumflex" unicode="&#x2c6;" horiz-adv-x="424" 
d="M212 684l166 -121l-46 -54l-120 92l-120 -92l-46 54z" />
    <glyph glyph-name="caron" unicode="&#x2c7;" horiz-adv-x="418" 
d="M375 641l-166 -121l-166 121l42 56l124 -95l124 95z" />
    <glyph glyph-name="breve" unicode="&#x2d8;" horiz-adv-x="410" 
d="M51 700h75v-8.5t4 -20t11 -25t24 -19.5t40 -9q37 0 56.5 20.5t20.5 41.5l2 20h75q0 -6 -1 -16t-10 -36t-23.5 -45.5t-46 -35.5t-73.5 -16t-73.5 15.5t-46 37.5t-23.5 43.5t-10 36.5z" />
    <glyph glyph-name="dotaccent" unicode="&#x2d9;" horiz-adv-x="239" 
d="M63 600q0 23 16.5 40t39.5 17t40 -17t17 -40t-17 -39.5t-40 -16.5t-39.5 16.5t-16.5 39.5z" />
    <glyph glyph-name="ring" unicode="&#x2da;" horiz-adv-x="242" 
d="M66 633q0 -23 16 -39t39 -16t39 16t16 39t-16 39t-39 16t-39 -16t-16 -39zM13 633q0 45 31.5 76.5t76.5 31.5t76.5 -31.5t31.5 -76.5t-31.5 -76.5t-76.5 -31.5t-76.5 31.5t-31.5 76.5z" />
    <glyph glyph-name="ogonek" unicode="&#x2db;" horiz-adv-x="219" 
d="M165 -121v-69q-18 -7 -46 -7q-47 0 -77 29t-30 71q0 31 19 55.5t38 33.5l19 8h77q-10 -3 -24.5 -9t-38.5 -27t-24 -45q0 -22 14.5 -34.5t36.5 -12.5q10 0 19 2t13 4z" />
    <glyph glyph-name="tilde" unicode="&#x2dc;" horiz-adv-x="390" 
d="M83 553l-59 37q1 3 3.5 9t12 20.5t21.5 25.5t33 20t45 9q28 0 64 -22.5t48 -22.5q19 0 33 12.5t19 24.5l5 13l58 -37l-3 -9t-11 -20.5t-20.5 -25.5t-32.5 -20t-45 -9q-30 0 -66 22.5t-48 22.5q-19 0 -33.5 -12.5t-18.5 -24.5z" />
    <glyph glyph-name="hungarumlaut" unicode="&#x2dd;" horiz-adv-x="382" 
d="M296 726l64 -40l-121 -170l-59 36zM134 726l64 -40l-121 -170l-59 36z" />
    <glyph glyph-name="Delta" unicode="&#x394;" horiz-adv-x="836" 
d="M4 0l414 756l414 -756h-828zM138 75h560l-280 512z" />
    <glyph glyph-name="Delta" unicode="&#x2206;" horiz-adv-x="836" 
d="M4 0l414 756l414 -756h-828zM138 75h560l-280 512z" />
    <glyph glyph-name="Omega" unicode="&#x3a9;" horiz-adv-x="788" 
d="M77 0v80h118q-63 38 -105 111.5t-42 158.5q0 153 98 257.5t248 104.5t248 -104.5t98 -257.5q0 -85 -42.5 -158.5t-105.5 -111.5h119v-80h-240v80q81 27 130 102t49 168q0 115 -72.5 198.5t-183.5 83.5t-183.5 -83.5t-72.5 -198.5q0 -93 49 -168t130 -102v-80h-240z" />
    <glyph glyph-name="Omega" unicode="&#x2126;" horiz-adv-x="788" 
d="M77 0v80h118q-63 38 -105 111.5t-42 158.5q0 153 98 257.5t248 104.5t248 -104.5t98 -257.5q0 -85 -42.5 -158.5t-105.5 -111.5h119v-80h-240v80q81 27 130 102t49 168q0 115 -72.5 198.5t-183.5 83.5t-183.5 -83.5t-72.5 -198.5q0 -93 49 -168t130 -102v-80h-240z" />
    <glyph glyph-name="pi" unicode="&#x3c0;" horiz-adv-x="585" 
d="M519 75l30 -70q-36 -21 -78 -21q-47 0 -85.5 33.5t-38.5 107.5v259h-127v-384h-84v384h-94v78h493v-78h-104v-251q0 -43 15 -57t38 -14q12 0 35 13z" />
    <glyph glyph-name="Wgrave" unicode="&#x1e80;" horiz-adv-x="950" 
d="M946 700l-270 -720l-201 551l-202 -551l-269 720h94l177 -485l172 485h61l170 -485l179 485h89zM357 887l52 52l149 -149l-50 -47z" />
    <glyph glyph-name="wgrave" unicode="&#x1e81;" horiz-adv-x="742" 
d="M262 670l52 52l149 -149l-50 -47zM8 462h91l124 -299l122 299h57l123 -299l123 299h86l-211 -482l-152 347l-152 -347z" />
    <glyph glyph-name="Wacute" unicode="&#x1e82;" horiz-adv-x="950" 
d="M946 700l-270 -720l-201 551l-202 -551l-269 720h94l177 -485l172 485h61l170 -485l179 485h89zM546 939l52 -52l-151 -144l-50 47z" />
    <glyph glyph-name="wacute" unicode="&#x1e83;" horiz-adv-x="742" 
d="M8 462h91l124 -299l122 299h57l123 -299l123 299h86l-211 -482l-152 347l-152 -347zM434 722l52 -52l-151 -144l-50 47z" />
    <glyph glyph-name="Ygrave" unicode="&#x1ef2;" 
d="M248 0v275l-236 425h94l188 -344l185 344h89l-236 -425v-275h-84zM149 887l52 52l149 -149l-50 -47z" />
    <glyph glyph-name="ygrave" unicode="&#x1ef3;" horiz-adv-x="500" 
d="M27 -209l36 69q29 -24 55 -24t41.5 17t30.5 54l36 91l-216 464h95l162 -365l138 365h91q-232 -584 -243 -611q-19 -47 -53.5 -70t-74.5 -23q-25 0 -49.5 8t-36.5 16zM118 669l52 52l149 -149l-50 -47z" />
    <glyph glyph-name="endash" unicode="&#x2013;" horiz-adv-x="500" 
d="M0 204v80h500v-80h-500z" />
    <glyph glyph-name="emdash" unicode="&#x2014;" horiz-adv-x="1000" 
d="M0 204v80h1000v-80h-1000z" />
    <glyph glyph-name="quoteleft" unicode="&#x2018;" horiz-adv-x="150" 
d="M40 462v238h70v-238h-70z" />
    <glyph glyph-name="quoteright" unicode="&#x2019;" horiz-adv-x="150" 
d="M40 462v238h70v-238h-70z" />
    <glyph glyph-name="quotesinglbase" unicode="&#x201a;" horiz-adv-x="150" 
d="M40 -140v238h70v-238h-70z" />
    <glyph glyph-name="quotedblleft" unicode="&#x201c;" horiz-adv-x="332" 
d="M60 462v238h72v-238h-72zM200 462v238h72v-238h-72z" />
    <glyph glyph-name="quotedblright" unicode="&#x201d;" horiz-adv-x="332" 
d="M60 462v238h72v-238h-72zM200 462v238h72v-238h-72z" />
    <glyph glyph-name="quotedblbase" unicode="&#x201e;" horiz-adv-x="332" 
d="M60 -140v238h72v-238h-72zM200 -140v238h72v-238h-72z" />
    <glyph glyph-name="dagger" unicode="&#x2020;" horiz-adv-x="520" 
d="M80 447v74h140v179h78v-179h142v-74h-142v-527h-78v527h-140z" />
    <glyph glyph-name="daggerdbl" unicode="&#x2021;" horiz-adv-x="520" 
d="M80 447v74h140v179h78v-179h142v-74h-142v-274h142v-74h-142v-179h-78v179h-140v74h140v274h-140z" />
    <glyph glyph-name="bullet" unicode="&#x2022;" horiz-adv-x="500" 
d="M129 350q0 50 35.5 85.5t85.5 35.5t85.5 -35.5t35.5 -85.5t-35.5 -85.5t-85.5 -35.5t-85.5 35.5t-35.5 85.5z" />
    <glyph glyph-name="ellipsis" unicode="&#x2026;" horiz-adv-x="1000" 
d="M113 45q0 23 17 40t40 17t40 -17t17 -40t-17 -40t-40 -17t-40 17t-17 40zM443 45q0 23 17 40t40 17t40 -17t17 -40t-17 -40t-40 -17t-40 17t-17 40zM773 45q0 23 17 40t40 17t40 -17t17 -40t-17 -40t-40 -17t-40 17t-17 40z" />
    <glyph glyph-name="perthousand" unicode="&#x2030;" horiz-adv-x="1072" 
d="M189 712q65 0 111 -45t46 -110t-46 -110t-111 -45t-111 45t-46 110t46 110t111 45zM189 456q42 0 70.5 29.5t28.5 71.5t-28.5 71.5t-70.5 29.5t-70.5 -29.5t-28.5 -71.5t28.5 -71.5t70.5 -29.5zM95 11l461 709l43 -29l-459 -711zM523 298q65 0 111 -45t46 -110t-46 -110
t-111 -45t-111 45t-46 110t46 110t111 45zM523 42q42 0 70.5 29.5t28.5 71.5t-28.5 71.5t-70.5 29.5t-70.5 -29.5t-28.5 -71.5t28.5 -71.5t70.5 -29.5zM883 298q65 0 111 -45t46 -110t-46 -110t-111 -45t-111 45t-46 110t46 110t111 45zM883 42q42 0 70.5 29.5t28.5 71.5
t-28.5 71.5t-70.5 29.5t-70.5 -29.5t-28.5 -71.5t28.5 -71.5t70.5 -29.5z" />
    <glyph glyph-name="guilsinglleft" unicode="&#x2039;" horiz-adv-x="305" 
d="M191 14l-177 231l177 231l59 -44l-146 -187l146 -187z" />
    <glyph glyph-name="guilsinglright" unicode="&#x203a;" horiz-adv-x="305" 
d="M291 245l-177 -231l-59 44l146 187l-146 187l59 44z" />
    <glyph glyph-name="fraction" unicode="&#x2044;" horiz-adv-x="130" 
d="M-194 0l475 730l43 -30l-473 -731z" />
    <glyph glyph-name="zerosuperior" unicode="&#x2070;" horiz-adv-x="373" 
d="M186 806q72 0 111.5 -63t39.5 -146t-39.5 -146t-111.5 -63t-111 62.5t-39 146.5t39 146.5t111 62.5zM186 440q49 0 72.5 48t23.5 109t-23.5 109t-72.5 48t-72.5 -48t-23.5 -109t23.5 -109t72.5 -48z" />
    <glyph glyph-name="foursuperior" unicode="&#x2074;" horiz-adv-x="347" 
d="M4 487l217 313h50v-259h54v-54h-54v-93h-56v93h-211zM102 541h113v164z" />
    <glyph glyph-name="fivesuperior" unicode="&#x2075;" horiz-adv-x="369" 
d="M325 527q0 -65 -43.5 -102t-101.5 -37q-52 0 -85.5 27.5t-46.5 63.5l50 24q9 -25 30 -44t52 -19q36 0 62.5 23.5t26.5 63.5q0 43 -25 66t-64 23q-28 0 -56 -11t-42 -23l-15 -11v229h248v-52h-192v-95q29 15 67 15q54 0 94.5 -36.5t40.5 -104.5z" />
    <glyph glyph-name="sixsuperior" unicode="&#x2076;" horiz-adv-x="346" 
d="M232 793l-85 -132q11 4 27 4q65 0 103.5 -40.5t38.5 -96.5q0 -57 -38.5 -98.5t-102.5 -41.5t-102.5 42t-38.5 98q0 37 28 86l127 209zM175 613q-38 0 -61.5 -25t-23.5 -60t23.5 -61.5t61.5 -26.5t61.5 26t23.5 62q0 35 -23.5 60t-61.5 25z" />
    <glyph glyph-name="sevensuperior" unicode="&#x2077;" horiz-adv-x="318" 
d="M22 748v52h294l-216 -416l-48 27l175 337h-205z" />
    <glyph glyph-name="eightsuperior" unicode="&#x2078;" horiz-adv-x="342" 
d="M171 806q55 0 87.5 -34.5t32.5 -78.5q0 -59 -44 -82q57 -27 57 -98q0 -53 -37.5 -89t-95.5 -36t-95.5 36t-37.5 89q0 71 57 98q-44 23 -44 82q0 44 32.5 78.5t87.5 34.5zM171 440q34 0 56 21t22 52t-22 52t-56 21t-56 -21t-22 -52t22 -52t56 -21zM171 632q28 0 47 18
t19 43t-19 43t-47 18t-47 -18t-19 -43t19 -43t47 -18z" />
    <glyph glyph-name="ninesuperior" unicode="&#x2079;" horiz-adv-x="346" 
d="M120 411l79 122q-11 -4 -27 -4q-65 0 -103.5 40.5t-38.5 96.5q0 57 38.5 98.5t102.5 41.5t102.5 -42t38.5 -98q0 -37 -28 -86l-121 -199zM171 581q38 0 61.5 25t23.5 60t-23.5 61.5t-61.5 26.5t-61.5 -26t-23.5 -62q0 -35 23.5 -60t61.5 -25z" />
    <glyph glyph-name="zeroinferior" unicode="&#x2080;" horiz-adv-x="373" 
d="M186 319q72 0 111.5 -63t39.5 -146t-39.5 -146t-111.5 -63t-111 62.5t-39 146.5t39 146.5t111 62.5zM186 -47q49 0 72.5 47.5t23.5 109.5t-23.5 109.5t-72.5 47.5t-72.5 -47.5t-23.5 -109.5t23.5 -109.5t72.5 -47.5z" />
    <glyph glyph-name="oneinferior" unicode="&#x2081;" horiz-adv-x="288" 
d="M12 190l148 123h48v-406h-56v330l-107 -88z" />
    <glyph glyph-name="twoinferior" unicode="&#x2082;" horiz-adv-x="350" 
d="M257 72l-100 -111h152v-54h-279l165 181q17 19 26 29.5t18 29.5t9 38q0 34 -20.5 58t-59.5 24q-62 0 -88 -71l-51 21q14 43 51 72.5t88 29.5q60 0 98 -36.5t38 -97.5q0 -58 -47 -113z" />
    <glyph glyph-name="threeinferior" unicode="&#x2083;" horiz-adv-x="352" 
d="M251 205q0 27 -19.5 44.5t-51.5 17.5q-27 0 -47.5 -14t-27.5 -28l-7 -14l-46 23q1 3 4 9t13.5 20.5t23.5 26t36.5 20.5t50.5 9q55 0 91 -32.5t36 -81.5q0 -18 -5.5 -34t-13.5 -25.5t-16.5 -16t-13.5 -9.5l-6 -3q2 -1 6 -2.5t14 -8.5t17.5 -17t14 -28.5t6.5 -42.5
q0 -53 -40.5 -85t-98.5 -32q-30 0 -55 10t-39 24.5t-24 28.5t-13 24l-4 10l47 23l2.5 -7.5t8.5 -16t16 -20.5t25 -16.5t36 -7.5q35 0 59 17.5t24 47.5q0 71 -78 71h-24v52h17q36 0 59 15.5t23 48.5z" />
    <glyph glyph-name="fourinferior" unicode="&#x2084;" horiz-adv-x="347" 
d="M2 0l217 313h50v-259h54v-54h-54v-93h-56v93h-211zM100 54h113v164z" />
    <glyph glyph-name="fiveinferior" unicode="&#x2085;" horiz-adv-x="369" 
d="M325 40q0 -65 -43.5 -102t-101.5 -37q-52 0 -85.5 27.5t-46.5 63.5l50 24q9 -25 30 -44t52 -19q36 0 62.5 23.5t26.5 63.5q0 43 -25 66t-64 23q-28 0 -56 -11.5t-42 -22.5l-15 -11v229h248v-52h-192v-95q29 15 67 15q54 0 94.5 -36.5t40.5 -104.5z" />
    <glyph glyph-name="sixinferior" unicode="&#x2086;" horiz-adv-x="346" 
d="M232 306l-85 -132q11 4 27 4q65 0 103.5 -40.5t38.5 -96.5q0 -57 -38.5 -98.5t-102.5 -41.5t-102.5 42t-38.5 98q0 37 28 86l127 209zM175 126q-38 0 -61.5 -25t-23.5 -60t23.5 -61.5t61.5 -26.5t61.5 26t23.5 62q0 35 -23.5 60t-61.5 25z" />
    <glyph glyph-name="seveninferior" unicode="&#x2087;" horiz-adv-x="318" 
d="M22 261v52h294l-216 -416l-48 27l175 337h-205z" />
    <glyph glyph-name="eightinferior" unicode="&#x2088;" horiz-adv-x="342" 
d="M171 319q55 0 87.5 -34.5t32.5 -78.5q0 -59 -44 -82q57 -27 57 -98q0 -53 -37.5 -89t-95.5 -36t-95.5 36t-37.5 89q0 71 57 98q-44 23 -44 82q0 44 32.5 78.5t87.5 34.5zM171 -47q34 0 56 21t22 52t-22 52t-56 21t-56 -21t-22 -52t22 -52t56 -21zM171 145q28 0 47 18
t19 43t-19 43t-47 18t-47 -18t-19 -43t19 -43t47 -18z" />
    <glyph glyph-name="nineinferior" unicode="&#x2089;" horiz-adv-x="346" 
d="M120 -76l79 122q-11 -4 -27 -4q-65 0 -103.5 40.5t-38.5 96.5q0 57 38.5 98.5t102.5 41.5t102.5 -42t38.5 -98q0 -37 -28 -86l-121 -199zM171 94q38 0 61.5 25t23.5 60t-23.5 61.5t-61.5 26.5t-61.5 -26t-23.5 -62q0 -35 23.5 -60t61.5 -25z" />
    <glyph glyph-name="Euro" unicode="&#x20ac;" 
d="M555 687l-29 -74q-42 19 -97 19q-85 0 -144.5 -51t-78.5 -132h232v-64h-244q-3 -36 0 -70h244v-64h-236q14 -85 79 -134t148 -49q56 0 103 21l24 -77q-57 -24 -137 -24q-124 0 -207 72.5t-99 190.5h-80v64h73q-3 34 0 70h-73v64h82q27 117 109.5 190t204.5 73
q64 0 126 -25z" />
    <glyph glyph-name="numero" unicode="&#x2116;" horiz-adv-x="1100" 
d="M719 242v74h314v-74h-314zM876 712q80 0 126 -54t46 -117t-46 -117t-126 -54t-126 54t-46 117t46 117t126 54zM876 441q41 0 69.5 28t28.5 72q0 43 -28.5 71.5t-69.5 28.5t-69.5 -28.5t-28.5 -71.5q0 -44 28.5 -72t69.5 -28zM82 700h87l375 -560v560h84v-700h-87
l-375 560v-560h-84v700z" />
    <glyph glyph-name="trademark" unicode="&#x2122;" horiz-adv-x="767" 
d="M120 330v317h-100v53h257v-53h-102v-317h-55zM345 700h55l126 -207l126 207h55v-370h-55v267l-126 -209l-126 209v-267h-55v370z" />
    <glyph glyph-name="onethird" unicode="&#x2153;" horiz-adv-x="830" 
d="M46 577l148 123h48v-406h-56v330l-107 -88zM162 0l475 730l43 -30l-473 -731zM726 298q0 27 -19.5 44.5t-51.5 17.5q-27 0 -47.5 -14t-27.5 -28l-7 -14l-46 23q1 3 4 9t13.5 20.5t23.5 26t36.5 20.5t50.5 9q55 0 91 -32.5t36 -81.5q0 -29 -14 -51t-28 -29l-13 -8
q2 -1 6 -2.5t14 -8.5t17.5 -17t14 -28.5t6.5 -42.5q0 -53 -40.5 -85t-98.5 -32q-30 0 -55 10t-39 24.5t-24 28.5t-14 24l-3 10l47 23l2.5 -7.5t8.5 -16t16 -20.5t25 -16.5t36 -7.5q35 0 59 17.5t24 47.5q0 71 -78 71h-24v52h17q36 0 59 15.5t23 48.5z" />
    <glyph glyph-name="twothirds" unicode="&#x2154;" horiz-adv-x="830" 
d="M252 459l-100 -111h152v-54h-279l165 181q17 19 26 29.5t18 29.5t9 38q0 34 -20.5 58t-59.5 24q-62 0 -88 -71l-51 21q14 43 51 72.5t88 29.5q60 0 98 -36.5t38 -97.5q0 -58 -47 -113zM736 298q0 27 -19.5 44.5t-51.5 17.5q-27 0 -47.5 -14t-27.5 -28l-7 -14l-46 23
q1 3 4 9t13.5 20.5t23.5 26t36.5 20.5t50.5 9q55 0 91 -32.5t36 -81.5q0 -29 -14 -51t-28 -29l-13 -8q2 -1 6 -2.5t14 -8.5t17.5 -17t14 -28.5t6.5 -42.5q0 -53 -40.5 -85t-98.5 -32q-30 0 -55 10t-39 24.5t-24 28.5t-14 24l-3 10l47 23l2.5 -7.5t8.5 -16t16 -20.5t25 -16.5
t36 -7.5q35 0 59 17.5t24 47.5q0 71 -78 71h-24v52h17q36 0 59 15.5t23 48.5zM176 0l475 730l43 -30l-473 -731z" />
    <glyph glyph-name="oneeighth" unicode="&#x215b;" horiz-adv-x="830" 
d="M46 577l148 123h48v-406h-56v330l-107 -88zM162 0l475 730l43 -30l-473 -731zM649 412q55 0 87.5 -34.5t32.5 -78.5q0 -59 -44 -82q57 -27 57 -98q0 -53 -37.5 -89t-95.5 -36t-95.5 36t-37.5 89q0 71 57 98q-44 23 -44 82q0 44 32.5 78.5t87.5 34.5zM649 46q34 0 56 21
t22 52t-22 52t-56 21t-56 -21t-22 -52t22 -52t56 -21zM649 238q28 0 47 18t19 43t-19 43t-47 18t-47 -18t-19 -43t19 -43t47 -18z" />
    <glyph glyph-name="threeeighths" unicode="&#x215c;" horiz-adv-x="830" 
d="M649 412q55 0 87.5 -34.5t32.5 -78.5q0 -59 -44 -82q57 -27 57 -98q0 -53 -37.5 -89t-95.5 -36t-95.5 36t-37.5 89q0 71 57 98q-44 23 -44 82q0 44 32.5 78.5t87.5 34.5zM649 46q34 0 56 21t22 52t-22 52t-56 21t-56 -21t-22 -52t22 -52t56 -21zM649 238q28 0 47 18
t19 43t-19 43t-47 18t-47 -18t-19 -43t19 -43t47 -18zM162 0l475 730l43 -30l-473 -731zM259 592q0 27 -19.5 44.5t-51.5 17.5q-27 0 -47.5 -14t-27.5 -28l-7 -14l-46 23q1 3 4 9t13.5 20.5t23.5 26t36.5 20.5t50.5 9q55 0 91 -32.5t36 -81.5q0 -18 -5.5 -34t-13.5 -25.5
t-16.5 -16t-13.5 -9.5l-6 -3q2 -1 6 -2.5t14 -8.5t17.5 -17t14 -28.5t6.5 -42.5q0 -53 -40.5 -85t-98.5 -32q-30 0 -55 10t-39 24t-24 28.5t-13 24.5l-4 10l47 23l2.5 -7.5t8.5 -16t16 -20.5t25 -16.5t36 -7.5q35 0 59 17.5t24 47.5q0 71 -78 71h-24v52h17q36 0 59 15.5
t23 48.5z" />
    <glyph glyph-name="fiveeighths" unicode="&#x215d;" horiz-adv-x="830" 
d="M321 427q0 -65 -43.5 -102t-101.5 -37q-52 0 -85.5 27.5t-46.5 63.5l50 24q9 -25 30 -44t52 -19q36 0 62.5 23.5t26.5 63.5q0 43 -25 66t-64 23q-28 0 -56 -11t-42 -23l-15 -11v229h248v-52h-192v-95q29 15 67 15q54 0 94.5 -36.5t40.5 -104.5zM164 0l475 730l43 -30
l-473 -731zM649 412q55 0 87.5 -34.5t32.5 -78.5q0 -59 -44 -82q57 -27 57 -98q0 -53 -37.5 -89t-95.5 -36t-95.5 36t-37.5 89q0 71 57 98q-44 23 -44 82q0 44 32.5 78.5t87.5 34.5zM649 46q34 0 56 21t22 52t-22 52t-56 21t-56 -21t-22 -52t22 -52t56 -21zM649 238
q28 0 47 18t19 43t-19 43t-47 18t-47 -18t-19 -43t19 -43t47 -18z" />
    <glyph glyph-name="seveneighths" unicode="&#x215e;" horiz-adv-x="830" 
d="M70 648v52h294l-216 -416l-48 27l175 337h-205zM133 -1l475 730l43 -30l-473 -731zM653 411q55 0 87.5 -34.5t32.5 -78.5q0 -59 -44 -82q57 -27 57 -98q0 -53 -37.5 -89t-95.5 -36t-95.5 36t-37.5 89q0 71 57 98q-44 23 -44 82q0 44 32.5 78.5t87.5 34.5zM653 45
q34 0 56 21t22 52t-22 52t-56 21t-56 -21t-22 -52t22 -52t56 -21zM653 237q28 0 47 18t19 43t-19 43t-47 18t-47 -18t-19 -43t19 -43t47 -18z" />
    <glyph glyph-name="arrowleft" unicode="&#x2190;" horiz-adv-x="760" 
d="M736 284v-74h-590l159 -173l-54 -53l-229 263l229 263l54 -53l-159 -173h590z" />
    <glyph glyph-name="arrowup" unicode="&#x2191;" horiz-adv-x="600" 
d="M337 0h-74v590l-173 -159l-53 54l263 229l263 -229l-53 -54l-173 159v-590z" />
    <glyph glyph-name="arrowright" unicode="&#x2192;" horiz-adv-x="760" 
d="M24 210v74h590l-159 173l54 53l229 -263l-229 -263l-54 53l159 173h-590z" />
    <glyph glyph-name="arrowdown" unicode="&#x2193;" horiz-adv-x="600" 
d="M263 700h74v-590l173 159l53 -54l-263 -229l-263 229l53 54l173 -159v590z" />
    <glyph glyph-name="uni21B3" unicode="&#x21b3;" horiz-adv-x="796" 
d="M60 210v490h74v-416h516l-159 173l54 53l229 -263l-229 -263l-54 53l159 173h-590z" />
    <glyph glyph-name="carriagereturn" unicode="&#x21b5;" horiz-adv-x="796" 
d="M736 700v-490h-590l159 -173l-54 -53l-229 263l229 263l54 -53l-159 -173h516v416h74z" />
    <glyph glyph-name="partialdiff" unicode="&#x2202;" horiz-adv-x="548" 
d="M506 277q0 -134 -66.5 -211.5t-171.5 -77.5q-102 0 -170 70t-68 173t68 173t170 70q37 0 74.5 -14.5t63.5 -37.5q-17 48 -53.5 88t-77 62.5t-78 38.5t-61.5 22l-25 6l20 73q8 -1 21.5 -4t52.5 -15.5t74.5 -30.5t78.5 -52.5t74 -77.5t52.5 -108.5t21.5 -142.5v-4zM268 66
q68 0 111 47.5t43 117.5t-43 117.5t-111 47.5t-111 -47.5t-43 -117.5t43 -117.5t111 -47.5z" />
    <glyph glyph-name="product" unicode="&#x220f;" horiz-adv-x="707" 
d="M617 700v-930h-84v850h-359v-850h-84v930h527z" />
    <glyph glyph-name="summation" unicode="&#x2211;" horiz-adv-x="738" 
d="M24 -230l345 466l-343 464h664v-80h-504l285 -384l-287 -386h506v-80h-666z" />
    <glyph glyph-name="minus" unicode="&#x2212;" horiz-adv-x="520" 
d="M45 202v78h430v-78h-430z" />
    <glyph glyph-name="radical" unicode="&#x221a;" horiz-adv-x="625" 
d="M322 179l248 781h79l-313 -972l-209 400h-87v74h137z" />
    <glyph glyph-name="infinity" unicode="&#x221e;" horiz-adv-x="838" 
d="M38 247q0 73 49 122q55 54 126 54q74 0 132 -58l74 -74l74 74q58 58 132 58q71 0 126 -54q49 -49 49 -122t-49 -122q-55 -54 -126 -54q-74 0 -132 58l-74 74l-74 -74q-58 -58 -132 -58q-71 0 -126 54q-49 49 -49 122zM532 170q42 -39 91 -39t83 32.5t34 83.5t-34 83.5
t-83 32.5t-91 -39l-78 -77q57 -59 78 -77zM215 131q49 0 91 39l78 77q-57 59 -78 77q-42 39 -91 39t-83 -32.5t-34 -83.5t34 -83.5t83 -32.5z" />
    <glyph glyph-name="integral" unicode="&#x222b;" horiz-adv-x="418" 
d="M251 616v-712q0 -69 -43.5 -108t-98.5 -39q-48 0 -97 27l31 69q28 -18 54 -18q33 0 51.5 20t18.5 54v712q0 69 43.5 108t98.5 39q48 0 97 -27l-31 -69q-28 18 -54 18q-33 0 -51.5 -20t-18.5 -54z" />
    <glyph glyph-name="approxequal" unicode="&#x2248;" horiz-adv-x="520" 
d="M111 270l-55 43q1 3 4 8.5t13.5 19.5t23.5 24.5t35.5 19t47.5 8.5q32 0 76 -23.5t63 -23.5q17 0 30.5 5.5t21 13t12 15.5t5.5 14l2 5l55 -43q-1 -3 -4 -8.5t-13 -19.5t-22.5 -24.5t-35 -19.5t-47.5 -9q-32 0 -78 23.5t-65 23.5q-26 0 -43 -13t-21 -26zM131 120l-55 43
q1 3 4 8.5t13.5 19.5t23.5 24.5t35.5 19t47.5 8.5q32 0 76 -23.5t63 -23.5q17 0 30.5 5.5t21 13t12 15.5t5.5 14l2 5l55 -43q-1 -3 -4 -8.5t-13 -19.5t-22.5 -24.5t-35 -19.5t-47.5 -9q-32 0 -78 23.5t-65 23.5q-26 0 -43 -13t-21 -26z" />
    <glyph glyph-name="notequal" unicode="&#x2260;" horiz-adv-x="520" 
d="M55 306v74h238l147 277l45 -26l-133 -251h113v-74h-152l-44 -84h196v-74h-235l-140 -265l-47 27l126 238h-114v74h154l44 84h-198z" />
    <glyph glyph-name="lessequal" unicode="&#x2264;" horiz-adv-x="520" 
d="M18 336v77l462 188v-78l-363 -149l363 -148v-78zM18 0v76h462v-76h-462z" />
    <glyph glyph-name="greaterequal" unicode="&#x2265;" horiz-adv-x="520" 
d="M502 413v-77l-462 -188v78l363 148l-363 149v78zM502 76v-76h-462v76h462z" />
    <glyph glyph-name="lozenge" unicode="&#x25ca;" horiz-adv-x="460" 
d="M230 114l143 242l-143 233l-143 -233zM8 356l222 356l222 -356l-222 -370z" />
    <glyph glyph-name="BALLOTBOX" unicode="&#x2610;" horiz-adv-x="844" 
d="M82 0v700h680v-700h-680zM157 629v-558h530v558h-530z" />
    <glyph glyph-name="BALLOTBOXWITHCHECK" unicode="&#x2611;" horiz-adv-x="844" 
d="M82 0v700h680v-700h-680zM157 629v-558h530v558h-530zM621 562l-181 -428h-81l-133 216h87l83 -146l145 358h80z" />
    <glyph glyph-name="BALLOTBOXWITHX" unicode="&#x2612;" horiz-adv-x="844" 
d="M82 0v700h680v-700h-680zM248 589l174 -190l173 189l49 -48l-177 -190l175 -191l-49 -48l-171 190l-173 -190l-49 49l176 190l-176 190zM157 629v-558h530v558h-530z" />
    <glyph glyph-name="heart" unicode="&#x2665;" horiz-adv-x="654" 
d="M327 127l-240 239q-42 42 -42 101t42 100q41 41 100 41q58 0 99 -41q36 -36 41 -86q5 51 40 86q41 41 100 41q57 0 100 -41q42 -41 42 -100q0 -61 -42 -101z" />
    <glyph glyph-name="uni2709" unicode="&#x2709;" horiz-adv-x="844" 
d="M20 0v700h804v-700h-804zM422 210l-327 352v-491h654v491zM131 629l291 -314l292 314h-583z" />
    <glyph glyph-name="uni270E" unicode="&#x270e;" horiz-adv-x="844" 
d="M819 434l-383 -382l-371 -52l52 371l382 383zM437 158l275 275l-214 214l-275 -275zM259 98l125 13l-208 208l-13 -124z" />
    <glyph glyph-name="uni2717" unicode="&#x2717;" horiz-adv-x="844" 
d="M761 655l-283 -306l283 -305l-60 -56l-279 301l-279 -301l-60 56l283 305l-283 306l60 56l279 -301l279 301z" />
    <glyph glyph-name="uni27F5" unicode="&#x27f5;" horiz-adv-x="1000" 
d="M972 284v-74h-826l159 -173l-54 -53l-229 263l229 263l54 -53l-159 -173h826z" />
    <glyph glyph-name="uni27F6" unicode="&#x27f6;" horiz-adv-x="1000" 
d="M28 210v74h826l-159 173l54 53l229 -263l-229 -263l-54 53l159 173h-826z" />
    <glyph glyph-name="zero.denominator" unicode="&#xf655;" horiz-adv-x="373" 
d="M186 412q72 0 111.5 -63t39.5 -146t-39.5 -146t-111.5 -63t-111 62.5t-39 146.5t39 146.5t111 62.5zM186 46q49 0 72.5 48t23.5 109t-23.5 109t-72.5 48t-72.5 -48t-23.5 -109t23.5 -109t72.5 -48z" />
    <glyph glyph-name="one.denominator" unicode="&#xf656;" horiz-adv-x="288" 
d="M12 283l148 123h48v-406h-56v330l-107 -88z" />
    <glyph glyph-name="two.denominator" unicode="&#xf657;" horiz-adv-x="350" 
d="M256 165l-100 -111h152v-54h-279l165 181q17 19 26 29.5t18 29.5t9 38q0 34 -20.5 58t-59.5 24q-62 0 -88 -71l-51 21q14 43 51 72.5t88 29.5q60 0 98 -36.5t38 -97.5q0 -58 -47 -113z" />
    <glyph glyph-name="three.denominator" unicode="&#xf658;" horiz-adv-x="352" 
d="M251 298q0 27 -19.5 44.5t-51.5 17.5q-27 0 -47.5 -14t-27.5 -28l-7 -14l-46 23q1 3 4 9t13.5 20.5t23.5 26t36.5 20.5t50.5 9q55 0 91 -32.5t36 -81.5q0 -18 -5.5 -34t-13.5 -25.5t-16.5 -16t-13.5 -9.5l-6 -3q2 -1 6 -2.5t14 -8.5t17.5 -17t14 -28.5t6.5 -42.5
q0 -53 -40.5 -85t-98.5 -32q-30 0 -55 10t-39 24.5t-24 28.5t-13 24l-4 10l47 23l2.5 -7.5t8.5 -16t16 -20.5t25 -16.5t36 -7.5q35 0 59 17.5t24 47.5q0 71 -78 71h-24v52h17q36 0 59 15.5t23 48.5z" />
    <glyph glyph-name="four.denominator" unicode="&#xf659;" horiz-adv-x="347" 
d="M4 93l217 313h50v-259h54v-54h-54v-93h-56v93h-211zM102 147h113v164z" />
    <glyph glyph-name="five.denominator" unicode="&#xf65a;" horiz-adv-x="369" 
d="M325 133q0 -65 -43.5 -102t-101.5 -37q-52 0 -85.5 27.5t-46.5 63.5l50 24q9 -25 30 -44t52 -19q36 0 62.5 23.5t26.5 63.5q0 43 -25 66t-64 23q-28 0 -56 -11t-42 -23l-15 -11v229h248v-52h-192v-95q29 15 67 15q54 0 94.5 -36.5t40.5 -104.5z" />
    <glyph glyph-name="six.denominator" unicode="&#xf65b;" horiz-adv-x="346" 
d="M232 399l-85 -132q11 4 27 4q65 0 103.5 -40.5t38.5 -96.5q0 -57 -38.5 -98.5t-102.5 -41.5t-102.5 42t-38.5 98q0 37 28 86l127 209zM175 219q-38 0 -61.5 -25t-23.5 -60t23.5 -61.5t61.5 -26.5t61.5 26t23.5 62q0 35 -23.5 60t-61.5 25z" />
    <glyph glyph-name="seven.denominator" unicode="&#xf65c;" horiz-adv-x="318" 
d="M22 354v52h294l-216 -416l-48 27l175 337h-205z" />
    <glyph glyph-name="eight.denominator" unicode="&#xf65d;" horiz-adv-x="342" 
d="M171 412q55 0 87.5 -34.5t32.5 -78.5q0 -59 -44 -82q57 -27 57 -98q0 -53 -37.5 -89t-95.5 -36t-95.5 36t-37.5 89q0 71 57 98q-44 23 -44 82q0 44 32.5 78.5t87.5 34.5zM171 46q34 0 56 21t22 52t-22 52t-56 21t-56 -21t-22 -52t22 -52t56 -21zM171 238q28 0 47 18
t19 43t-19 43t-47 18t-47 -18t-19 -43t19 -43t47 -18z" />
    <glyph glyph-name="nine.denominator" unicode="&#xf65e;" horiz-adv-x="346" 
d="M120 17l79 122q-11 -4 -27 -4q-65 0 -103.5 40.5t-38.5 96.5q0 57 38.5 98.5t102.5 41.5t102.5 -42t38.5 -98q0 -37 -28 -86l-121 -199zM171 187q38 0 61.5 25t23.5 60t-23.5 61.5t-61.5 26.5t-61.5 -26t-23.5 -62q0 -35 23.5 -60t61.5 -25z" />
    <glyph glyph-name="zero.numerator" unicode="&#xf661;" horiz-adv-x="373" 
d="M186 706q72 0 111.5 -63t39.5 -146t-39.5 -146t-111.5 -63t-111 62.5t-39 146.5t39 146.5t111 62.5zM186 340q49 0 72.5 48t23.5 109t-23.5 109t-72.5 48t-72.5 -48t-23.5 -109t23.5 -109t72.5 -48z" />
    <glyph glyph-name="one.numerator" unicode="&#xf662;" horiz-adv-x="288" 
d="M12 577l148 123h48v-406h-56v330l-107 -88z" />
    <glyph glyph-name="two.numerator" unicode="&#xf663;" horiz-adv-x="350" 
d="M256 459l-100 -111h152v-54h-279l165 181q17 19 26 29.5t18 29.5t9 38q0 34 -20.5 58t-59.5 24q-62 0 -88 -71l-51 21q14 43 51 72.5t88 29.5q60 0 98 -36.5t38 -97.5q0 -58 -47 -113z" />
    <glyph glyph-name="three.numerator" unicode="&#xf664;" horiz-adv-x="352" 
d="M251 592q0 27 -19.5 44.5t-51.5 17.5q-27 0 -47.5 -14t-27.5 -28l-7 -14l-46 23q1 3 4 9t13.5 20.5t23.5 26t36.5 20.5t50.5 9q55 0 91 -32.5t36 -81.5q0 -18 -5.5 -34t-13.5 -25.5t-16.5 -16t-13.5 -9.5l-6 -3q2 -1 6 -2.5t14 -8.5t17.5 -17t14 -28.5t6.5 -42.5
q0 -53 -40.5 -85t-98.5 -32q-30 0 -55 10t-39 24t-24 28.5t-13 24.5l-4 10l47 23l2.5 -7.5t8.5 -16t16 -20.5t25 -16.5t36 -7.5q35 0 59 17.5t24 47.5q0 71 -78 71h-24v52h17q36 0 59 15.5t23 48.5z" />
    <glyph glyph-name="four.numerator" unicode="&#xf665;" horiz-adv-x="347" 
d="M2 387l217 313h50v-259h54v-54h-54v-93h-56v93h-211zM100 441h113v164z" />
    <glyph glyph-name="five.numerator" unicode="&#xf666;" horiz-adv-x="369" 
d="M325 427q0 -65 -43.5 -102t-101.5 -37q-52 0 -85.5 27.5t-46.5 63.5l50 24q9 -25 30 -44t52 -19q36 0 62.5 23.5t26.5 63.5q0 43 -25 66t-64 23q-28 0 -56 -11t-42 -23l-15 -11v229h248v-52h-192v-95q29 15 67 15q54 0 94.5 -36.5t40.5 -104.5z" />
    <glyph glyph-name="six.numerator" unicode="&#xf667;" horiz-adv-x="346" 
d="M232 693l-85 -132q11 4 27 4q65 0 103.5 -40.5t38.5 -96.5q0 -57 -38.5 -98.5t-102.5 -41.5t-102.5 42t-38.5 98q0 37 28 86l127 209zM175 513q-38 0 -61.5 -25t-23.5 -60t23.5 -61.5t61.5 -26.5t61.5 26t23.5 62q0 35 -23.5 60t-61.5 25z" />
    <glyph glyph-name="seven.numerator" unicode="&#xf668;" horiz-adv-x="318" 
d="M22 648v52h294l-216 -416l-48 27l175 337h-205z" />
    <glyph glyph-name="eight.numerator" unicode="&#xf669;" horiz-adv-x="342" 
d="M171 706q55 0 87.5 -34.5t32.5 -78.5q0 -59 -44 -82q57 -27 57 -98q0 -53 -37.5 -89t-95.5 -36t-95.5 36t-37.5 89q0 71 57 98q-44 23 -44 82q0 44 32.5 78.5t87.5 34.5zM171 340q34 0 56 21t22 52t-22 52t-56 21t-56 -21t-22 -52t22 -52t56 -21zM171 532q28 0 47 18
t19 43t-19 43t-47 18t-47 -18t-19 -43t19 -43t47 -18z" />
    <glyph glyph-name="nine.numerator" unicode="&#xf66a;" horiz-adv-x="346" 
d="M120 311l79 122q-11 -4 -27 -4q-65 0 -103.5 40.5t-38.5 96.5q0 57 38.5 98.5t102.5 41.5t102.5 -42t38.5 -98q0 -37 -28 -86l-121 -199zM171 481q38 0 61.5 25t23.5 60t-23.5 61.5t-61.5 26.5t-61.5 -26t-23.5 -62q0 -35 23.5 -60t61.5 -25z" />
    <glyph glyph-name="at.alt" horiz-adv-x="799" 
d="M585 72l17 -37q-88 -47 -192 -47q-150 0 -256 106t-106 256t106 256t256 106q148 0 244.5 -101t96.5 -246q0 -66 -15 -112t-39.5 -67t-46.5 -29t-45 -8h-2q-84 0 -102 71l-5 -7.5t-14 -17t-24.5 -22t-35.5 -17t-46 -7.5q-51 0 -91.5 36t-40.5 93q0 55 41.5 90.5
t104.5 35.5q29 0 55 -12t38 -24l12 -12v30q0 54 -27.5 75.5t-64.5 21.5q-29 0 -55.5 -9.5t-39.5 -19.5l-12 -10l-29 53q7 5 19 13t47.5 21.5t70.5 13.5q73 0 114.5 -39t41.5 -106v-166q0 -43 46 -43h2q100 0 100 174q0 129 -83 217t-215 88q-135 0 -227 -93t-92 -227
q0 -133 92.5 -226.5t226.5 -93.5q96 0 175 42zM390 209q22 0 41 6.5t30.5 16t19.5 19t11 15.5l3 7v30q-4 5 -11 12.5t-33 19.5t-55 12q-36 0 -60 -20t-24 -49q0 -34 22.5 -51.5t55.5 -17.5z" />
    <glyph glyph-name="a.alt" horiz-adv-x="553" 
d="M405 144v174q-2 3 -5.5 8.5t-16 19t-27 23.5t-38 18.5t-48.5 8.5q-69 0 -111.5 -47.5t-42.5 -117.5t42.5 -117.5t111.5 -47.5q25 0 48.5 8t38.5 19.5t26.5 23t16.5 19.5zM412 462h77v-462h-77v67q-2 -3 -5.5 -8.5t-17.5 -19t-30.5 -24t-44.5 -19t-60 -8.5
q-92 0 -157 70.5t-65 172.5t65 172.5t157 70.5q50 0 89.5 -20t54.5 -40l14 -19v67z" />
    <glyph glyph-name="euro.alt" horiz-adv-x="739" 
d="M18 385v64h104q28 117 116.5 190t212.5 73q157 0 260 -116l-63 -52q-76 90 -197 90q-85 0 -147.5 -51.5t-88.5 -133.5h332v-64h-345q-2 -22 -2 -35t2 -35h303v-64h-290q26 -82 88.5 -132.5t147.5 -50.5q61 0 115.5 28t89.5 74l59 -57q-106 -125 -264 -125q-128 0 -214 72
t-115 191h-104v64h93q-1 11 -1 35q0 23 1 35h-93z" />
    <glyph glyph-name="bullet.alt" horiz-adv-x="500" 
d="M40 350q0 87 61.5 148.5t148.5 61.5t148.5 -61.5t61.5 -148.5t-61.5 -148.5t-148.5 -61.5t-148.5 61.5t-61.5 148.5z" />
    <glyph glyph-name="paragraph.alt" horiz-adv-x="555" 
d="M24 513q0 77 55 132t132 55h262v-700h-84v622h-94v-622h-84v326q-77 0 -132 55t-55 132z" />
    <glyph glyph-name="fj" horiz-adv-x="539" 
d="M255 -221l30 70q23 -13 35 -13q15 0 25 3.5t19 20.5t9 47v555h84v-563q0 -74 -38.5 -107.5t-85.5 -33.5q-42 0 -78 21zM372 586v14q0 35 -22 62.5t-65 27.5t-65 -27.5t-22 -62.5v-138h103v-76h-103v-386h-84v386h-94v76h94v134q0 73 47.5 122.5t123.5 49.5t123.5 -49.5
t47.5 -122.5v-10q0 -17 -12.5 -29.5t-29.5 -12.5t-29.5 12.5t-12.5 29.5z" />
    <glyph glyph-name="ft" horiz-adv-x="649" 
d="M198 462h190v141h84v-141h144v-76h-144v-246q0 -35 17 -54.5t50 -19.5q12 0 25 5t20 9l8 5l31 -69q-51 -28 -96 -28q-55 0 -97 39t-42 108v251h-190v-386h-84v386h-94v76h94v159q0 69 43.5 108t98.5 39q48 0 97 -27l-31 -69q-28 18 -54 18q-33 0 -51.5 -20t-18.5 -54
v-154z" />
    <glyph glyph-name="agrave.alt" horiz-adv-x="553" 
d="M405 144v174q-2 3 -5.5 8.5t-16 19t-27 23.5t-38 18.5t-48.5 8.5q-69 0 -111.5 -47.5t-42.5 -117.5t42.5 -117.5t111.5 -47.5q25 0 48.5 8t38.5 19.5t26.5 23t16.5 19.5zM412 462h77v-462h-77v67q-2 -3 -5.5 -8.5t-17.5 -19t-30.5 -24t-44.5 -19t-60 -8.5
q-92 0 -157 70.5t-65 172.5t65 172.5t157 70.5q50 0 89.5 -20t54.5 -40l14 -19v67zM156 669l52 52l149 -149l-50 -47z" />
    <glyph glyph-name="aacute.alt" horiz-adv-x="553" 
d="M361 721l52 -52l-151 -144l-50 47zM405 144v174q-2 3 -5.5 8.5t-16 19t-27 23.5t-38 18.5t-48.5 8.5q-69 0 -111.5 -47.5t-42.5 -117.5t42.5 -117.5t111.5 -47.5q25 0 48.5 8t38.5 19.5t26.5 23t16.5 19.5zM412 462h77v-462h-77v67q-2 -3 -5.5 -8.5t-17.5 -19t-30.5 -24
t-44.5 -19t-60 -8.5q-92 0 -157 70.5t-65 172.5t65 172.5t157 70.5q50 0 89.5 -20t54.5 -40l14 -19v67z" />
    <glyph glyph-name="acircumflex.alt" horiz-adv-x="553" 
d="M405 144v174q-2 3 -5.5 8.5t-16 19t-27 23.5t-38 18.5t-48.5 8.5q-69 0 -111.5 -47.5t-42.5 -117.5t42.5 -117.5t111.5 -47.5q25 0 48.5 8t38.5 19.5t26.5 23t16.5 19.5zM412 462h77v-462h-77v67q-2 -3 -5.5 -8.5t-17.5 -19t-30.5 -24t-44.5 -19t-60 -8.5
q-92 0 -157 70.5t-65 172.5t65 172.5t157 70.5q50 0 89.5 -20t54.5 -40l14 -19v67zM278 702l166 -121l-46 -54l-120 92l-120 -92l-46 54z" />
    <glyph glyph-name="atilde.alt" horiz-adv-x="553" 
d="M405 144v174q-2 3 -5.5 8.5t-16 19t-27 23.5t-38 18.5t-48.5 8.5q-69 0 -111.5 -47.5t-42.5 -117.5t42.5 -117.5t111.5 -47.5q25 0 48.5 8t38.5 19.5t26.5 23t16.5 19.5zM412 462h77v-462h-77v67q-2 -3 -5.5 -8.5t-17.5 -19t-30.5 -24t-44.5 -19t-60 -8.5
q-92 0 -157 70.5t-65 172.5t65 172.5t157 70.5q50 0 89.5 -20t54.5 -40l14 -19v67zM167 553l-59 37q1 3 3.5 9t12 20.5t21.5 25.5t33 20t45 9q28 0 64 -22.5t48 -22.5q19 0 33 12.5t19 24.5l5 13l58 -37l-3 -9t-11 -20.5t-20.5 -25.5t-32.5 -20t-45 -9q-30 0 -66 22.5
t-48 22.5q-19 0 -33.5 -12.5t-18.5 -24.5z" />
    <glyph glyph-name="adieresis.alt" horiz-adv-x="553" 
d="M405 144v174q-2 3 -5.5 8.5t-16 19t-27 23.5t-38 18.5t-48.5 8.5q-69 0 -111.5 -47.5t-42.5 -117.5t42.5 -117.5t111.5 -47.5q25 0 48.5 8t38.5 19.5t26.5 23t16.5 19.5zM412 462h77v-462h-77v67q-2 -3 -5.5 -8.5t-17.5 -19t-30.5 -24t-44.5 -19t-60 -8.5
q-92 0 -157 70.5t-65 172.5t65 172.5t157 70.5q50 0 89.5 -20t54.5 -40l14 -19v67zM130 610q0 23 17 40t40 17t40 -17t17 -40t-17 -40t-40 -17t-40 17t-17 40zM311 610q0 23 17 40t40 17t40 -17t17 -40t-17 -40t-40 -17t-40 17t-17 40z" />
    <glyph glyph-name="aring.alt" horiz-adv-x="553" 
d="M405 144v174q-2 3 -5.5 8.5t-16 19t-27 23.5t-38 18.5t-48.5 8.5q-69 0 -111.5 -47.5t-42.5 -117.5t42.5 -117.5t111.5 -47.5q25 0 48.5 8t38.5 19.5t26.5 23t16.5 19.5zM412 462h77v-462h-77v67q-2 -3 -5.5 -8.5t-17.5 -19t-30.5 -24t-44.5 -19t-60 -8.5
q-92 0 -157 70.5t-65 172.5t65 172.5t157 70.5q50 0 89.5 -20t54.5 -40l14 -19v67zM221 644q0 -23 16 -39t39 -16t39 16t16 39t-16 39t-39 16t-39 -16t-16 -39zM168 644q0 45 31.5 76.5t76.5 31.5t76.5 -31.5t31.5 -76.5t-31.5 -76.5t-76.5 -31.5t-76.5 31.5t-31.5 76.5z
" />
    <glyph glyph-name="amacron.alt" horiz-adv-x="553" 
d="M405 144v174q-2 3 -5.5 8.5t-16 19t-27 23.5t-38 18.5t-48.5 8.5q-69 0 -111.5 -47.5t-42.5 -117.5t42.5 -117.5t111.5 -47.5q25 0 48.5 8t38.5 19.5t26.5 23t16.5 19.5zM412 462h77v-462h-77v67q-2 -3 -5.5 -8.5t-17.5 -19t-30.5 -24t-44.5 -19t-60 -8.5
q-92 0 -157 70.5t-65 172.5t65 172.5t157 70.5q50 0 89.5 -20t54.5 -40l14 -19v67zM134 572v69h302v-69h-302z" />
    <glyph glyph-name="abreve.alt" horiz-adv-x="553" 
d="M405 144v174q-2 3 -5.5 8.5t-16 19t-27 23.5t-38 18.5t-48.5 8.5q-69 0 -111.5 -47.5t-42.5 -117.5t42.5 -117.5t111.5 -47.5q25 0 48.5 8t38.5 19.5t26.5 23t16.5 19.5zM412 462h77v-462h-77v67q-2 -3 -5.5 -8.5t-17.5 -19t-30.5 -24t-44.5 -19t-60 -8.5
q-92 0 -157 70.5t-65 172.5t65 172.5t157 70.5q50 0 89.5 -20t54.5 -40l14 -19v67zM115 700h75v-8.5t4 -20t11 -25t24 -19.5t40 -9q37 0 56.5 20.5t20.5 41.5l2 20h75q0 -6 -1 -16t-10 -36t-23.5 -45.5t-46 -35.5t-73.5 -16t-73.5 15.5t-46 37.5t-23.5 43.5t-10 36.5z" />
    <glyph glyph-name="aogonek.alt" horiz-adv-x="553" 
d="M412 462h77v-462h-1q-7 -2 -16 -5t-27.5 -12.5t-30.5 -25.5t-12 -36q0 -23 14.5 -36t36.5 -13q10 0 19 2t13 4l4 1v-69q-18 -7 -46 -7q-47 0 -77 29.5t-30 72.5q0 26 10 47t25 33t24.5 17.5t16.5 7.5v57q-2 -3 -5.5 -8.5t-17.5 -19t-30.5 -24t-44.5 -19t-60 -8.5
q-92 0 -157 70.5t-65 172.5t65 172.5t157 70.5q50 0 89.5 -20t54.5 -40l14 -19v67zM405 144v174q-2 3 -5.5 8.5t-16 19t-27 23.5t-38 18.5t-48.5 8.5q-69 0 -111.5 -47.5t-42.5 -117.5t42.5 -117.5t111.5 -47.5q25 0 48.5 8t38.5 19.5t26.5 23t16.5 19.5z" />
    <glyph glyph-name="zero.lnum_tnum" 
d="M291 712q64 0 112.5 -32t76 -85t41 -115t13.5 -130t-13.5 -130t-41 -115t-76 -85t-112.5 -32t-112.5 32t-76.5 85t-42 115t-14 130t14 130t42 115t76.5 85t112.5 32zM291 64q44 0 76.5 27t49.5 72t25 91.5t8 95.5t-8 95.5t-25 90.5t-49.5 71t-76.5 27t-77 -27t-50.5 -71
t-25.5 -90.5t-8 -95.5t8 -95.5t25.5 -91t50.5 -72t77 -27.5z" />
    <glyph glyph-name="one.lnum_tnum" 
d="M75 505l245 195h75v-700h-84v590l-186 -148z" />
    <glyph glyph-name="two.lnum_tnum" 
d="M70 0l246 326l15 19q15 19 20.5 26.5t18 28t18.5 34.5t11.5 34.5t5.5 38.5q0 54 -33.5 90.5t-95.5 36.5q-49 0 -83.5 -27t-44.5 -53l-10 -27l-72 27q2 6 5.5 17t19.5 38t37.5 48t60.5 38t87 17q95 0 154 -58.5t59 -146.5q0 -19 -3 -38t-9 -35.5t-12 -30t-14.5 -27.5
t-13.5 -21l-12.5 -17.5t-8.5 -11.5l-186 -248h264v-78h-424z" />
    <glyph glyph-name="three.lnum_tnum" 
d="M395 515q0 48 -35.5 83.5t-89.5 35.5q-44 0 -77 -23t-43 -45l-11 -23l-72 32q2 6 6.5 15t21 32.5t37.5 41.5t58 33t80 15q87 0 148 -57t61 -140q0 -32 -9 -59.5t-21.5 -43.5t-25 -28t-21.5 -16l-9 -5q4 -1 11 -3.5t25 -15t31.5 -29.5t24.5 -49.5t11 -72.5q0 -93 -65 -149
t-163 -56q-50 0 -92 16.5t-65.5 40t-40 46.5t-22.5 39l-5 17l74 34q1 -5 4 -12.5t14.5 -27.5t27 -35t43.5 -27.5t62 -12.5q65 0 104.5 37t39.5 90q0 60 -37.5 93t-110.5 33h-33v77h21q62 0 102.5 30.5t40.5 88.5z" />
    <glyph glyph-name="four.lnum_tnum" 
d="M0 184l365 516h74v-438h87v-78h-87v-184h-82v184h-357zM140 262h217v310z" />
    <glyph glyph-name="five.lnum_tnum" 
d="M525 223q0 -111 -70 -173t-168 -62q-48 0 -89 15.5t-65.5 37.5t-42 44.5t-24.5 38.5l-6 15l73 39l5 -12.5t16 -26.5t29 -34t44 -27t60 -12q65 0 109.5 41.5t44.5 115.5q0 76 -44 116.5t-112 40.5q-43 0 -90.5 -19.5t-73.5 -38.5l-26 -20v398h415v-78h-335v-192
q51 29 129 29q92 0 156.5 -61.5t64.5 -174.5z" />
    <glyph glyph-name="six.lnum_tnum" 
d="M392 680l-151 -240q21 10 50 10q105 0 167 -67.5t62 -161.5t-62 -163.5t-167 -69.5t-167 69.5t-62 161.5q0 61 34 124l228 381zM291 372q-64 0 -104.5 -44t-40.5 -107q0 -64 40 -109.5t105 -45.5t105 45.5t40 109.5q0 63 -40.5 107t-104.5 44z" />
    <glyph glyph-name="seven.lnum_tnum" 
d="M82 622v78h466l-372 -718l-71 38l311 602h-334z" />
    <glyph glyph-name="eight.lnum_tnum" 
d="M290 712q89 0 143 -57t54 -131q0 -43 -21.5 -83.5t-56.5 -61.5q48 -26 75.5 -73t27.5 -106q0 -88 -62 -150t-160 -62t-160 62t-62 150q0 59 27.5 106t75.5 73q-35 21 -56.5 61.5t-21.5 83.5q0 74 54 131t143 57zM290 66q61 0 99.5 40.5t38.5 93.5q0 57 -38 98t-100 41
t-100 -41t-38 -98q0 -53 38.5 -93.5t99.5 -40.5zM290 412q48 0 80.5 31.5t32.5 79.5t-32.5 79.5t-80.5 31.5t-80.5 -31.5t-32.5 -79.5t32.5 -79.5t80.5 -31.5z" />
    <glyph glyph-name="nine.lnum_tnum" 
d="M189 23l151 241q-15 -12 -51 -12q-105 0 -167 68t-62 160t62 162t167 70t167 -70t62 -162q0 -51 -28 -109l-233 -392zM289 330q64 0 104.5 43.5t40.5 106.5q0 64 -40 109t-105 45t-105 -45t-40 -109q0 -63 40.5 -106.5t104.5 -43.5z" />
    <glyph glyph-name="zero.onum_pnum" horiz-adv-x="550" 
d="M275 474q102 0 173.5 -70.5t71.5 -172.5t-71.5 -172.5t-173.5 -70.5t-173.5 70.5t-71.5 172.5t71.5 172.5t173.5 70.5zM275 66q69 0 115 48t46 117t-46 117t-115 48t-115 -48t-46 -117t46 -117t115 -48z" />
    <glyph glyph-name="one.onum_pnum" horiz-adv-x="365" 
d="M18 309l192 153h75v-462h-84v357l-135 -108z" />
    <glyph glyph-name="two.onum_pnum" horiz-adv-x="466" 
d="M349 193l-110 -115h166v-78h-353l192 198q3 3 15 15.5t16.5 17.5t13 16.5t12 19t7 19t3.5 22.5q0 37 -23 62.5t-63 25.5q-35 0 -61.5 -19.5t-35.5 -38.5l-9 -20l-71 29q2 5 5.5 13.5t18 30.5t32.5 39t50.5 30.5t70.5 13.5q72 0 121 -47.5t49 -118.5q0 -62 -46 -115z" />
    <glyph glyph-name="three.onum_pnum" horiz-adv-x="500" 
d="M370 287q0 46 -32.5 77.5t-81.5 31.5q-27 0 -50 -9t-36.5 -22t-23.5 -26.5t-14 -22.5l-3 -9l-70 33q2 5 6 14.5t20 32.5t36.5 40.5t56.5 32t78 14.5q84 0 140 -55t56 -132q0 -29 -8 -54t-19.5 -40.5t-23.5 -27t-19.5 -16t-8.5 -4.5q4 -1 9.5 -4t20.5 -15t26.5 -28t21 -46
t9.5 -67q0 -85 -62 -140t-151 -55q-45 0 -83.5 16t-61 38.5t-38.5 45t-22 38.5l-6 16l72 32q1 -4 4 -11.5t14 -26t25.5 -33t40 -26t55.5 -11.5q58 0 93.5 33t35.5 84q0 57 -33 87t-95 30h-41v76h37q59 0 92.5 28.5t33.5 80.5z" />
    <glyph glyph-name="four.onum_pnum" horiz-adv-x="532" 
d="M0 0l351 462h76v-384h73v-78h-73v-198h-82v198h-345zM151 78h194v257z" />
    <glyph glyph-name="five.onum_pnum" horiz-adv-x="559" 
d="M507 15q0 -107 -66.5 -166t-162.5 -59q-47 0 -86.5 15.5t-62.5 38t-39.5 45t-23.5 37.5l-6 16l71 34q2 -4 5 -11.5t16 -26t28 -33t41.5 -26t56.5 -11.5q62 0 103.5 40.5t41.5 106.5q0 67 -40.5 107t-105.5 40q-45 0 -91.5 -19t-70.5 -38l-24 -19v376h389v-78h-309v-173
q54 29 118 29q94 0 156 -58.5t62 -166.5z" />
    <glyph glyph-name="six.onum_pnum" horiz-adv-x="540" 
d="M373 680l-151 -240q21 10 50 10q105 0 167 -67.5t62 -161.5t-62 -163.5t-167 -69.5t-167 69.5t-62 161.5q0 61 34 124l228 381zM272 372q-64 0 -104.5 -44t-40.5 -107q0 -64 40 -109.5t105 -45.5t105 45.5t40 109.5q0 63 -40.5 107t-104.5 44z" />
    <glyph glyph-name="seven.onum_pnum" horiz-adv-x="471" 
d="M28 384v78h449l-348 -672l-71 38l287 556h-317z" />
    <glyph glyph-name="eight.onum_pnum" horiz-adv-x="548" 
d="M274 712q89 0 143 -57.5t54 -131.5q0 -43 -21.5 -83.5t-56.5 -61.5q48 -26 75.5 -72.5t27.5 -105.5q0 -88 -62 -150t-160 -62t-160 62t-62 150q0 59 27.5 105.5t75.5 72.5q-35 21 -56.5 61.5t-21.5 83.5q0 74 54 131.5t143 57.5zM274 66q61 0 99.5 40.5t38.5 93.5
q0 57 -38 98t-100 41t-100 -41t-38 -98q0 -53 38.5 -93.5t99.5 -40.5zM274 412q48 0 80.5 31.5t32.5 79.5t-32.5 79.5t-80.5 31.5t-80.5 -31.5t-32.5 -79.5t32.5 -79.5t80.5 -31.5z" />
    <glyph glyph-name="nine.onum_pnum" horiz-adv-x="522" 
d="M190 -171l120 215q-24 -6 -50 -6q-98 0 -159 65.5t-61 152.5q0 86 61.5 152t158.5 66t158.5 -66t61.5 -152q0 -39 -22 -93l-198 -374zM260 116q62 0 100 41t38 99t-38 99t-100 41t-100 -41t-38 -99t38 -99t100 -41z" />
    <glyph glyph-name="zero.onum_tnum" 
d="M290 474q102 0 173.5 -70.5t71.5 -172.5t-71.5 -172.5t-173.5 -70.5t-173.5 70.5t-71.5 172.5t71.5 172.5t173.5 70.5zM290 66q69 0 115 48t46 117t-46 117t-115 48t-115 -48t-46 -117t46 -117t115 -48z" />
    <glyph glyph-name="one.onum_tnum" 
d="M95 276l231 186h75v-462h-84v357l-174 -141z" />
    <glyph glyph-name="two.onum_tnum" 
d="M412 193l-110 -115h166v-78h-353l192 198q3 3 15 15.5t16.5 17.5t13 16.5t12 19t7 19t3.5 22.5q0 37 -23 62.5t-63 25.5q-35 0 -61.5 -19.5t-35.5 -38.5l-9 -20l-71 29q2 5 5.5 13.5t18 30.5t32.5 39t50.5 30.5t70.5 13.5q72 0 121 -47.5t49 -118.5q0 -62 -46 -115z" />
    <glyph glyph-name="three.onum_tnum" 
d="M390 287q0 46 -32.5 77.5t-81.5 31.5q-27 0 -50 -9t-36.5 -22t-23.5 -26.5t-14 -22.5l-3 -9l-70 33q2 5 6 14.5t20 32.5t36.5 40.5t56.5 32t78 14.5q84 0 140 -55t56 -132q0 -29 -8 -54t-19.5 -40.5t-23.5 -27t-19.5 -16t-8.5 -4.5q4 -1 9.5 -4t20.5 -15t26.5 -28t21 -46
t9.5 -67q0 -85 -62 -140t-151 -55q-45 0 -83.5 16t-61 38.5t-38.5 45t-22 38.5l-6 16l72 32q1 -4 4 -11.5t14 -26t25.5 -33t40 -26t55.5 -11.5q58 0 93.5 33t35.5 84q0 57 -33 87t-95 30h-41v76h37q59 0 92.5 28.5t33.5 80.5z" />
    <glyph glyph-name="four.onum_tnum" 
d="M0 0l351 462h76v-384h73v-78h-73v-198h-82v198h-345zM151 78h194v257z" />
    <glyph glyph-name="five.onum_tnum" 
d="M524 15q0 -107 -66.5 -166t-162.5 -59q-47 0 -86.5 15.5t-62.5 38t-39.5 45t-22.5 37.5l-7 16l71 34q2 -4 5 -11.5t16 -26t28 -33t41.5 -26t56.5 -11.5q62 0 103.5 40.5t41.5 106.5q0 67 -40.5 107t-105.5 40q-45 0 -91.5 -19t-70.5 -38l-24 -19v376h389v-78h-309v-173
q54 29 118 29q94 0 156 -58.5t62 -166.5z" />
    <glyph glyph-name="six.onum_tnum" 
d="M393 680l-151 -240q21 10 50 10q105 0 167 -67.5t62 -161.5t-62 -163.5t-167 -69.5t-167 69.5t-62 161.5q0 61 34 124l228 381zM292 372q-64 0 -104.5 -44t-40.5 -107q0 -64 40 -109.5t105 -45.5t105 45.5t40 109.5q0 63 -40.5 107t-104.5 44z" />
    <glyph glyph-name="seven.onum_tnum" 
d="M92 384v78h449l-348 -672l-71 38l287 556h-317z" />
    <glyph glyph-name="eight.onum_tnum" 
d="M290 712q89 0 143 -57.5t54 -131.5q0 -43 -21.5 -83.5t-56.5 -61.5q48 -26 75.5 -72.5t27.5 -105.5q0 -88 -62 -150t-160 -62t-160 62t-62 150q0 59 27.5 105.5t75.5 72.5q-35 21 -56.5 61.5t-21.5 83.5q0 74 54 131.5t143 57.5zM290 66q61 0 99.5 40.5t38.5 93.5
q0 57 -38 98t-100 41t-100 -41t-38 -98q0 -53 38.5 -93.5t99.5 -40.5zM290 412q48 0 80.5 31.5t32.5 79.5t-32.5 79.5t-80.5 31.5t-80.5 -31.5t-32.5 -79.5t32.5 -79.5t80.5 -31.5z" />
    <glyph glyph-name="nine.onum_tnum" 
d="M218 -171l120 215q-24 -6 -50 -6q-98 0 -159 65.5t-61 152.5q0 86 61.5 152t158.5 66t158.5 -66t61.5 -152q0 -39 -22 -93l-198 -374zM288 116q62 0 100 41t38 99t-38 99t-100 41t-100 -41t-38 -99t38 -99t100 -41z" />
    <glyph glyph-name="Circle" horiz-adv-x="844" 
d="M62 350q0 151 104.5 256.5t254.5 105.5q151 0 256 -105.5t105 -256.5q0 -150 -105.5 -256t-255.5 -106t-254.5 106t-104.5 256zM135 350q0 -119 83.5 -203.5t202.5 -84.5t202.5 84.5t83.5 203.5t-83.5 203.5t-202.5 84.5t-202.5 -84.5t-83.5 -203.5z" />
    <glyph glyph-name="CircleDotted" horiz-adv-x="844" 
d="M62 350q0 151 104.5 256.5t254.5 105.5q151 0 256 -105.5t105 -256.5q0 -150 -105.5 -256t-255.5 -106t-254.5 106t-104.5 256zM135 350q0 -119 83.5 -203.5t202.5 -84.5t202.5 84.5t83.5 203.5t-83.5 203.5t-202.5 84.5t-202.5 -84.5t-83.5 -203.5zM282 350
q0 57 41 98.5t98 41.5t98.5 -41.5t41.5 -98.5t-41.5 -98t-98.5 -41q-58 0 -98.5 40.5t-40.5 98.5z" />
    <glyph glyph-name="Trash" horiz-adv-x="844" 
d="M666 0h-488l-133 700h754zM501 620h-158l9 -152h140zM551 620l-9 -152h124l27 152h-142zM293 620h-142l27 -152h124zM354 424l9 -150h117l9 150h-135zM185 424l27 -150h101l-9 150h-119zM539 424l-9 -150h102l26 150h-119zM366 230l9 -150h94l9 150h-112zM528 230
l-9 -150h79l26 150h-96zM219 230l27 -150h79l-9 150h-97z" />
    <glyph glyph-name="EuropaType" horiz-adv-x="776" 
d="M619 194l24 -64q-32 -21 -92 -38q-8 13 -24 13q-12 0 -20.5 -8.5t-8.5 -20.5t8.5 -20.5t20.5 -8.5q11 0 19.5 8t9.5 19q43 12 94 38l24 -63q-12 -7 -33 -17t-82 -26.5t-118 -16.5q-21 30 -23 84q0 41 11 67q49 0 96.5 13.5t70.5 26.5zM211 408h363q-3 63 -52 109t-130 46
q-77 0 -126 -46t-55 -109zM391 712q153 0 245.5 -101.5t92.5 -264.5q0 -4 -3 -55h-514q9 -60 61.5 -102.5t133.5 -47.5q-11 -33 -11 -69q2 -50 21 -84h-6q-160 0 -262 105t-102 257t96 257t248 105z" />
    <glyph glyph-name="period.tabular" 
d="M233 45q0 23 17 40t40 17t40 -17t17 -40t-17 -40t-40 -17t-40 17t-17 40z" />
    <glyph glyph-name="space.tabular" 
 />
    </font>
</defs>
</svg>
